NewsreaderText-Italic.ufo
<glyph name="exclam" format="2">
	<unicode hex="0021"/>
	<advance width="517"/>
	<outline>
		<contour>
			<point x="610" y="1318" type="line" smooth="yes"/>
			<point x="620" y="1348"/>
			<point x="595" y="1353"/>
			<point x="538" y="1353" type="curve" smooth="yes"/>
			<point x="483" y="1353"/>
			<point x="461" y="1349"/>
			<point x="453" y="1321" type="curve" smooth="yes"/>
			<point x="406" y="1154" type="line" smooth="yes"/>
			<point x="367" y="1019"/>
			<point x="315" y="748"/>
			<point x="221" y="396" type="curve"/>
			<point x="278" y="396" type="line"/>
			<point x="399" y="748"/>
			<point x="512" y="1019"/>
			<point x="556" y="1154" type="curve" smooth="yes"/>
		</contour>
		<contour>
			<point x="174" y="224" type="curve" smooth="yes"/>
			<point x="93" y="224"/>
			<point x="35" y="160"/>
			<point x="35" y="86" type="curve" smooth="yes"/>
			<point x="35" y="30"/>
			<point x="78" y="-14"/>
			<point x="142" y="-14" type="curve" smooth="yes"/>
			<point x="223" y="-14"/>
			<point x="281" y="50"/>
			<point x="281" y="124" type="curve" smooth="yes"/>
			<point x="281" y="180"/>
			<point x="238" y="224"/>
		</contour>
	</outline>
</glyph>
<glyph name="ampersand" format="2">
	<unicode hex="0026"/>
	<advance width="1332"/>
	<outline>
		<contour>
			<point x="939" y="221" type="line"/>
			<point x="1043" y="337"/>
			<point x="1142" y="502"/>
			<point x="1229" y="728" type="curve"/>
			<point x="1394" y="776" type="line"/>
			<point x="1405" y="813" type="line"/>
			<point x="997" y="813" type="line"/>
			<point x="985" y="776" type="line"/>
			<point x="1124" y="728" type="line"/>
			<point x="1059" y="516"/>
			<point x="980" y="372"/>
			<point x="895" y="275" type="curve"/>
			<point x="860" y="238" type="line"/>
			<point x="743" y="123"/>
			<point x="617" y="92"/>
			<point x="503" y="92" type="curve" smooth="yes"/>
			<point x="327" y="92"/>
			<point x="235" y="186"/>
			<point x="235" y="320" type="curve" smooth="yes"/>
			<point x="235" y="462"/>
			<point x="300" y="611"/>
			<point x="586" y="715" type="curve"/>
			<point x="642" y="732" type="line"/>
			<point x="943" y="862"/>
			<point x="1060" y="974"/>
			<point x="1060" y="1141" type="curve" smooth="yes"/>
			<point x="1060" y="1269"/>
			<point x="972" y="1360"/>
			<point x="799" y="1360" type="curve" smooth="yes"/>
			<point x="586" y="1360"/>
			<point x="424" y="1223"/>
			<point x="424" y="1021" type="curve" smooth="yes"/>
			<point x="424" y="937"/>
			<point x="452" y="840"/>
			<point x="513" y="738" type="curve" smooth="yes"/>
			<point x="954" y="0" type="line"/>
			<point x="1219" y="0" type="line"/>
			<point x="1227" y="37" type="line"/>
			<point x="1056" y="96" type="line"/>
			<point x="610" y="831" type="line" smooth="yes"/>
			<point x="570" y="897"/>
			<point x="548" y="975"/>
			<point x="548" y="1047" type="curve" smooth="yes"/>
			<point x="548" y="1170"/>
			<point x="623" y="1286"/>
			<point x="793" y="1286" type="curve" smooth="yes"/>
			<point x="888" y="1286"/>
			<point x="938" y="1229"/>
			<point x="938" y="1151" type="curve" smooth="yes"/>
			<point x="938" y="1012"/>
			<point x="845" y="893"/>
			<point x="619" y="797" type="curve"/>
			<point x="560" y="771" type="line"/>
			<point x="196" y="649"/>
			<point x="100" y="489"/>
			<point x="100" y="305" type="curve" smooth="yes"/>
			<point x="100" y="115"/>
			<point x="221" y="-19"/>
			<point x="458" y="-19" type="curve" smooth="yes"/>
			<point x="603" y="-19"/>
			<point x="756" y="36"/>
			<point x="901" y="181" type="curve"/>
		</contour>
	</outline>
</glyph>
<glyph name="quotesingle" format="2">
	<unicode hex="0027"/>
	<advance width="370"/>
	<outline>
		<contour>
			<point x="273" y="862" type="line"/>
			<point x="347" y="862" type="line"/>
			<point x="531" y="1292" type="line"/>
			<point x="546" y="1340" type="line"/>
			<point x="369" y="1340" type="line"/>
			<point x="354" y="1292" type="line"/>
		</contour>
	</outline>
</glyph>
<glyph name="parenleft" format="2">
	<unicode hex="0028"/>
	<advance width="526"/>
	<outline>
		<contour>
			<point x="760" y="1385" type="curve"/>
			<point x="726" y="1419" type="line"/>
			<point x="185" y="901"/>
			<point x="88" y="610"/>
			<point x="88" y="269" type="curve" smooth="yes"/>
			<point x="88" y="114"/>
			<point x="123" y="-59"/>
			<point x="208" y="-275" type="curve"/>
			<point x="256" y="-258" type="line"/>
			<point x="218" y="-121"/>
			<point x="202" y="3"/>
			<point x="202" y="118" type="curve" smooth="yes"/>
			<point x="202" y="550"/>
			<point x="313" y="901"/>
		</contour>
	</outline>
</glyph>
<glyph name="parenright" format="2">
	<unicode hex="0029"/>
	<advance width="526"/>
	<outline>
		<contour>
			<point x="-146" y="-241" type="curve"/>
			<point x="-112" y="-275" type="line"/>
			<point x="429" y="243"/>
			<point x="526" y="534"/>
			<point x="526" y="875" type="curve" smooth="yes"/>
			<point x="526" y="1030"/>
			<point x="491" y="1203"/>
			<point x="406" y="1419" type="curve"/>
			<point x="358" y="1402" type="line"/>
			<point x="396" y="1265"/>
			<point x="412" y="1141"/>
			<point x="412" y="1026" type="curve" smooth="yes"/>
			<point x="412" y="594"/>
			<point x="301" y="243"/>
		</contour>
	</outline>
</glyph>
<glyph name="asterisk" format="2">
	<unicode hex="002A"/>
	<advance width="852"/>
	<outline>
		<contour>
			<point x="758" y="717" type="line"/>
			<point x="685" y="969" type="line"/>
			<point x="944" y="1017" type="line"/>
			<point x="940" y="1074" type="line"/>
			<point x="676" y="1082" type="line"/>
			<point x="711" y="1344" type="line"/>
			<point x="656" y="1357" type="line"/>
			<point x="567" y="1109" type="line"/>
			<point x="329" y="1223" type="line"/>
			<point x="298" y="1175" type="line"/>
			<point x="507" y="1013" type="line"/>
			<point x="326" y="822" type="line"/>
			<point x="362" y="778" type="line"/>
			<point x="580" y="926" type="line"/>
			<point x="705" y="694" type="line"/>
		</contour>
	</outline>
</glyph>
<glyph name="plus" format="2">
	<unicode hex="002B"/>
	<advance width="1000"/>
	<outline>
		<contour>
			<point x="349" y="79" type="line"/>
			<point x="437" y="79" type="line"/>
			<point x="655" y="793" type="line"/>
			<point x="567" y="793" type="line"/>
		</contour>
		<contour>
			<point x="158" y="478" type="line"/>
			<point x="132" y="394" type="line"/>
			<point x="846" y="394" type="line"/>
			<point x="872" y="478" type="line"/>
		</contour>
	</outline>
</glyph>
<glyph name="comma" format="2">
	<unicode hex="002C"/>
	<advance width="448"/>
	<outline>
		<contour>
			<point x="-136" y="-299" type="curve"/>
			<point x="-108" y="-351" type="line"/>
			<point x="187" y="-172"/>
			<point x="266" y="-34"/>
			<point x="266" y="105" type="curve" smooth="yes"/>
			<point x="266" y="181"/>
			<point x="219" y="223"/>
			<point x="158" y="223" type="curve" smooth="yes"/>
			<point x="76" y="223"/>
			<point x="24" y="170"/>
			<point x="24" y="96" type="curve" smooth="yes"/>
			<point x="24" y="61"/>
			<point x="111" y="40"/>
			<point x="111" y="-31" type="curve" smooth="yes"/>
			<point x="111" y="-99"/>
			<point x="57" y="-187"/>
		</contour>
	</outline>
</glyph>
<glyph name="hyphen" format="2">
  <advance width="667"/>
  <unicode hex="002D"/>
  <outline>
    <contour>
      <point x="145.0" y="498.0" type="line"/>
      <point x="108.0" y="374.0" type="line"/>
      <point x="527.0" y="374.0" type="line"/>
      <point x="564.0" y="498.0" type="line"/>
    </contour>
  </outline>
</glyph>
<glyph name="period" format="2">
	<unicode hex="002E"/>
	<advance width="435"/>
	<outline>
		<contour>
			<point x="157" y="224" type="curve" smooth="yes"/>
			<point x="76" y="224"/>
			<point x="18" y="160"/>
			<point x="18" y="86" type="curve" smooth="yes"/>
			<point x="18" y="30"/>
			<point x="61" y="-14"/>
			<point x="125" y="-14" type="curve" smooth="yes"/>
			<point x="206" y="-14"/>
			<point x="264" y="50"/>
			<point x="264" y="124" type="curve" smooth="yes"/>
			<point x="264" y="180"/>
			<point x="221" y="224"/>
		</contour>
	</outline>
</glyph>
<glyph name="slash" format="2">
	<unicode hex="002F"/>
	<advance width="804"/>
	<outline>
		<contour>
			<point x="-49" y="0" type="line"/>
			<point x="68" y="0" type="line"/>
			<point x="1000" y="1340" type="line"/>
			<point x="882" y="1340" type="line"/>
		</contour>
	</outline>
</glyph>
<glyph name="zero" format="2">
	<unicode hex="0030"/>
	<advance width="1100"/>
	<outline>
		<contour>
			<point x="271" y="359" type="curve" smooth="yes"/>
			<point x="271" y="699"/>
			<point x="469" y="1285"/>
			<point x="776" y="1285" type="curve" smooth="yes"/>
			<point x="911" y="1285"/>
			<point x="977" y="1182"/>
			<point x="977" y="982" type="curve" smooth="yes"/>
			<point x="977" y="642"/>
			<point x="779" y="56"/>
			<point x="472" y="56" type="curve" smooth="yes"/>
			<point x="337" y="56"/>
			<point x="271" y="159"/>
		</contour>
		<contour>
			<point x="782" y="1360" type="curve" smooth="yes"/>
			<point x="399" y="1359"/>
			<point x="124" y="846"/>
			<point x="124" y="426" type="curve" smooth="yes"/>
			<point x="124" y="132"/>
			<point x="259" y="-20"/>
			<point x="466" y="-20" type="curve" smooth="yes"/>
			<point x="849" y="-20"/>
			<point x="1124" y="495"/>
			<point x="1124" y="915" type="curve" smooth="yes"/>
			<point x="1124" y="1209"/>
			<point x="989" y="1360"/>
		</contour>
	</outline>
</glyph>
<glyph name="one" format="2">
	<unicode hex="0031"/>
	<advance width="1100"/>
	<outline>
		<contour>
			<point x="470" y="93" type="line"/>
			<point x="174" y="38" type="line"/>
			<point x="163" y="0" type="line"/>
			<point x="851" y="0" type="line"/>
			<point x="863" y="38" type="line"/>
			<point x="613" y="90" type="line"/>
			<point x="1002" y="1360" type="line"/>
			<point x="977" y="1360" type="line"/>
			<point x="360" y="1090" type="line"/>
			<point x="372" y="1051" type="line"/>
			<point x="854" y="1179" type="line"/>
			<point x="824" y="1249" type="line"/>
		</contour>
	</outline>
</glyph>
<glyph name="colon" format="2">
	<unicode hex="003A"/>
	<advance width="495"/>
	<outline>
		<contour>
			<point x="165" y="224" type="curve" smooth="yes"/>
			<point x="84" y="224"/>
			<point x="26" y="160"/>
			<point x="26" y="86" type="curve" smooth="yes"/>
			<point x="26" y="30"/>
			<point x="69" y="-14"/>
			<point x="133" y="-14" type="curve" smooth="yes"/>
			<point x="214" y="-14"/>
			<point x="272" y="50"/>
			<point x="272" y="124" type="curve" smooth="yes"/>
			<point x="272" y="180"/>
			<point x="229" y="224"/>
		</contour>
		<contour>
			<point x="359" y="863" type="curve" smooth="yes"/>
			<point x="278" y="863"/>
			<point x="220" y="799"/>
			<point x="220" y="725" type="curve" smooth="yes"/>
			<point x="220" y="669"/>
			<point x="263" y="625"/>
			<point x="327" y="625" type="curve" smooth="yes"/>
			<point x="408" y="625"/>
			<point x="466" y="689"/>
			<point x="466" y="763" type="curve" smooth="yes"/>
			<point x="466" y="819"/>
			<point x="423" y="863"/>
		</contour>
	</outline>
</glyph>
<glyph name="semicolon" format="2">
	<unicode hex="003B"/>
	<advance width="514"/>
	<outline>
		<contour>
			<point x="-122" y="-299" type="curve"/>
			<point x="-94" y="-351" type="line"/>
			<point x="201" y="-172"/>
			<point x="280" y="-34"/>
			<point x="280" y="105" type="curve" smooth="yes"/>
			<point x="280" y="181"/>
			<point x="233" y="223"/>
			<point x="172" y="223" type="curve" smooth="yes"/>
			<point x="90" y="223"/>
			<point x="38" y="170"/>
			<point x="38" y="96" type="curve" smooth="yes"/>
			<point x="38" y="61"/>
			<point x="125" y="40"/>
			<point x="125" y="-31" type="curve" smooth="yes"/>
			<point x="125" y="-99"/>
			<point x="71" y="-187"/>
		</contour>
		<contour>
			<point x="367" y="863" type="curve" smooth="yes"/>
			<point x="286" y="863"/>
			<point x="228" y="799"/>
			<point x="228" y="725" type="curve" smooth="yes"/>
			<point x="228" y="669"/>
			<point x="271" y="625"/>
			<point x="335" y="625" type="curve" smooth="yes"/>
			<point x="416" y="625"/>
			<point x="474" y="689"/>
			<point x="474" y="763" type="curve" smooth="yes"/>
			<point x="474" y="819"/>
			<point x="431" y="863"/>
		</contour>
	</outline>
</glyph>
<glyph name="less" format="2">
	<unicode hex="003C"/>
	<advance width="1000"/>
	<outline>
		<contour>
			<point x="133" y="419" type="line"/>
			<point x="1053" y="788" type="line"/>
			<point x="1085" y="892" type="line"/>
			<point x="57" y="473" type="line"/>
			<point x="35" y="399" type="line"/>
			<point x="807" y="-20" type="line"/>
			<point x="833" y="68" type="line"/>
			<point x="139" y="437" type="line"/>
		</contour>
	</outline>
</glyph>
<glyph name="greater" format="2">
	<unicode hex="003E"/>
	<advance width="1000"/>
	<outline>
		<contour>
			<point x="871" y="454" type="line"/>
			<point x="-49" y="85" type="line"/>
			<point x="-81" y="-20" type="line"/>
			<point x="947" y="399" type="line"/>
			<point x="969" y="473" type="line"/>
			<point x="197" y="892" type="line"/>
			<point x="171" y="805" type="line"/>
			<point x="865" y="436" type="line"/>
		</contour>
	</outline>
</glyph>
<glyph name="question" format="2">
	<unicode hex="003F"/>
	<advance width="844"/>
	<outline>
		<contour>
			<point x="293" y="224" type="curve" smooth="yes"/>
			<point x="212" y="224"/>
			<point x="154" y="160"/>
			<point x="154" y="86" type="curve" smooth="yes"/>
			<point x="154" y="30"/>
			<point x="197" y="-14"/>
			<point x="261" y="-14" type="curve" smooth="yes"/>
			<point x="342" y="-14"/>
			<point x="400" y="50"/>
			<point x="400" y="124" type="curve" smooth="yes"/>
			<point x="400" y="180"/>
			<point x="357" y="224"/>
		</contour>
		<contour>
			<point x="527" y="1360" type="curve" smooth="yes"/>
			<point x="358" y="1360"/>
			<point x="310" y="1312"/>
			<point x="310" y="1250" type="curve" smooth="yes"/>
			<point x="310" y="1210"/>
			<point x="337" y="1182"/>
			<point x="382" y="1182" type="curve" smooth="yes"/>
			<point x="455" y="1182"/>
			<point x="481" y="1256"/>
			<point x="626" y="1256" type="curve" smooth="yes"/>
			<point x="738" y="1256"/>
			<point x="813" y="1146"/>
			<point x="813" y="1017" type="curve" smooth="yes"/>
			<point x="813" y="822"/>
			<point x="689" y="738"/>
			<point x="376" y="754" type="curve"/>
			<point x="335" y="396" type="line"/>
			<point x="376" y="396" type="line"/>
			<point x="481" y="739" type="line"/>
			<point x="387" y="626" type="line"/>
			<point x="769" y="611"/>
			<point x="893" y="756"/>
			<point x="893" y="983" type="curve" smooth="yes"/>
			<point x="893" y="1195"/>
			<point x="729" y="1360"/>
		</contour>
	</outline>
</glyph>
<glyph name="at" format="2">
	<unicode hex="0040"/>
	<advance width="1798"/>
	<outline>
		<contour>
			<point x="1265" y="264" type="curve" smooth="yes"/>
			<point x="1218" y="264"/>
			<point x="1189" y="284"/>
			<point x="1189" y="348" type="curve" smooth="yes"/>
			<point x="1189" y="393"/>
			<point x="1203" y="459"/>
			<point x="1234" y="554" type="curve" smooth="yes"/>
			<point x="1378" y="999" type="line"/>
			<point x="1231" y="999" type="line"/>
			<point x="1206" y="921" type="line"/>
			<point x="1123" y="663" type="line" smooth="yes"/>
			<point x="1058" y="461"/>
			<point x="891" y="308"/>
			<point x="805" y="308" type="curve" smooth="yes"/>
			<point x="759" y="308"/>
			<point x="728" y="337"/>
			<point x="728" y="390" type="curve" smooth="yes"/>
			<point x="728" y="586"/>
			<point x="916" y="936"/>
			<point x="1110" y="936" type="curve" smooth="yes"/>
			<point x="1156" y="936"/>
			<point x="1183" y="907"/>
			<point x="1194" y="877" type="curve"/>
			<point x="1233" y="928" type="line"/>
			<point x="1192" y="972"/>
			<point x="1152" y="1002"/>
			<point x="1082" y="1002" type="curve" smooth="yes"/>
			<point x="784" y="1002"/>
			<point x="560" y="604"/>
			<point x="560" y="378" type="curve" smooth="yes"/>
			<point x="560" y="249"/>
			<point x="631" y="198"/>
			<point x="735" y="198" type="curve" smooth="yes"/>
			<point x="831" y="198"/>
			<point x="935" y="284"/>
			<point x="1119" y="552" type="curve"/>
			<point x="1092" y="552" type="line"/>
			<point x="1075" y="490" type="line" smooth="yes"/>
			<point x="1059" y="432"/>
			<point x="1049" y="383"/>
			<point x="1049" y="343" type="curve" smooth="yes"/>
			<point x="1049" y="245"/>
			<point x="1105" y="198"/>
			<point x="1254" y="198" type="curve" smooth="yes"/>
			<point x="1520" y="198"/>
			<point x="1814" y="489"/>
			<point x="1814" y="867" type="curve" smooth="yes"/>
			<point x="1814" y="1174"/>
			<point x="1591" y="1418"/>
			<point x="1154" y="1418" type="curve" smooth="yes"/>
			<point x="510" y="1418"/>
			<point x="108" y="873"/>
			<point x="108" y="382" type="curve" smooth="yes"/>
			<point x="108" y="-14"/>
			<point x="399" y="-256"/>
			<point x="814" y="-256" type="curve" smooth="yes"/>
			<point x="1096" y="-256"/>
			<point x="1288" y="-177"/>
			<point x="1475" y="-65" type="curve"/>
			<point x="1444" y="-10" type="line"/>
			<point x="1254" y="-129"/>
			<point x="1048" y="-178"/>
			<point x="856" y="-178" type="curve" smooth="yes"/>
			<point x="470" y="-178"/>
			<point x="255" y="57"/>
			<point x="255" y="393" type="curve" smooth="yes"/>
			<point x="255" y="860"/>
			<point x="582" y="1344"/>
			<point x="1139" y="1344" type="curve" smooth="yes"/>
			<point x="1554" y="1344"/>
			<point x="1682" y="1091"/>
			<point x="1682" y="842" type="curve" smooth="yes"/>
			<point x="1682" y="504"/>
			<point x="1473" y="264"/>
		</contour>
	</outline>
</glyph>
<glyph name="A" format="2">
	<unicode hex="0041"/>
	<advance width="1311"/>
	<outline>
		<contour>
			<point x="367" y="505" type="line"/>
			<point x="995" y="505" type="line"/>
			<point x="1023" y="587" type="line"/>
			<point x="395" y="587" type="line"/>
		</contour>
		<contour>
			<point x="1089" y="85" type="line"/>
			<point x="958" y="1360" type="line"/>
			<point x="913" y="1360" type="line"/>
			<point x="42" y="83" type="line"/>
			<point x="-122" y="38" type="line"/>
			<point x="-133" y="0" type="line"/>
			<point x="275" y="0" type="line"/>
			<point x="286" y="38" type="line"/>
			<point x="149" y="83" type="line"/>
			<point x="894" y="1195" type="line"/>
			<point x="831" y="1195" type="line"/>
			<point x="937" y="83" type="line"/>
			<point x="755" y="38" type="line"/>
			<point x="744" y="0" type="line"/>
			<point x="1201" y="0" type="line"/>
			<point x="1212" y="38" type="line"/>
		</contour>
	</outline>
	<anchor name="UCtop" x="922" y="1340"/>
	<anchor name="bottom" x="560" y="0"/>
	<anchor name="right" x="939" y="0"/>
</glyph>
<glyph name="B" format="2">
	<unicode hex="0042"/>
	<advance width="1213"/>
	<outline>
		<contour>
			<point x="580" y="1252" type="line"/>
			<point x="850" y="1252" type="line" smooth="yes"/>
			<point x="1000" y="1252"/>
			<point x="1078" y="1189"/>
			<point x="1078" y="1073" type="curve" smooth="yes"/>
			<point x="1078" y="890"/>
			<point x="940" y="755"/>
			<point x="735" y="755" type="curve" smooth="yes"/>
			<point x="431" y="755" type="line"/>
			<point x="401" y="667" type="line"/>
			<point x="702" y="667" type="line" smooth="yes"/>
			<point x="879" y="667"/>
			<point x="954" y="589"/>
			<point x="954" y="467" type="curve" smooth="yes"/>
			<point x="954" y="241"/>
			<point x="795" y="88"/>
			<point x="516" y="88" type="curve" smooth="yes"/>
			<point x="229" y="88" type="line"/>
			<point x="200" y="0" type="line"/>
			<point x="553" y="0" type="line" smooth="yes"/>
			<point x="933" y="0"/>
			<point x="1119" y="231"/>
			<point x="1119" y="457" type="curve" smooth="yes"/>
			<point x="1119" y="602.2072727273"/>
			<point x="1014.2531770093" y="712.9182710646"/>
			<point x="829" y="725" type="curve"/>
			<point x="841" y="710" type="line"/>
			<point x="1091.3356440377" y="732.1180087102"/>
			<point x="1224" y="897.5384615385"/>
			<point x="1224" y="1081" type="curve" smooth="yes"/>
			<point x="1224" y="1221"/>
			<point x="1129" y="1340"/>
			<point x="891" y="1340" type="curve" smooth="yes"/>
			<point x="609" y="1340" type="line"/>
		</contour>
		<contour>
			<point x="494" y="1249" type="line"/>
			<point x="140" y="91" type="line"/>
			<point x="-26" y="39" type="line"/>
			<point x="-38" y="0" type="line"/>
			<point x="264" y="0" type="line"/>
			<point x="674" y="1340" type="line"/>
			<point x="372" y="1340" type="line"/>
			<point x="360" y="1301" type="line"/>
		</contour>
	</outline>
	<anchor name="UCtop" x="842" y="1340"/>
	<anchor name="bottom" x="493" y="0"/>
</glyph>
<glyph name="C" format="2">
	<unicode hex="0043"/>
	<advance width="1333"/>
	<outline>
		<contour>
			<point x="1043" y="116" type="line"/>
			<point x="942" y="76"/>
			<point x="849" y="64"/>
			<point x="748" y="64" type="curve" smooth="yes"/>
			<point x="477" y="64"/>
			<point x="321" y="222"/>
			<point x="321" y="531" type="curve" smooth="yes"/>
			<point x="321" y="940"/>
			<point x="596" y="1275"/>
			<point x="1003" y="1275" type="curve" smooth="yes"/>
			<point x="1129" y="1275"/>
			<point x="1207" y="1253"/>
			<point x="1307" y="1186" type="curve"/>
			<point x="1258" y="1230" type="line"/>
			<point x="1316" y="936" type="line"/>
			<point x="1358" y="936" type="line"/>
			<point x="1444" y="1398" type="line"/>
			<point x="1427" y="1398" type="line"/>
			<point x="1282" y="1315" type="line"/>
			<point x="1341" y="1313" type="line"/>
			<point x="1242" y="1350"/>
			<point x="1142" y="1360"/>
			<point x="1038" y="1360" type="curve" smooth="yes"/>
			<point x="542" y="1360"/>
			<point x="157" y="1000"/>
			<point x="157" y="502" type="curve" smooth="yes"/>
			<point x="157" y="180"/>
			<point x="364" y="-20"/>
			<point x="744" y="-20" type="curve" smooth="yes"/>
			<point x="878" y="-20"/>
			<point x="1044" y="10"/>
			<point x="1148" y="54" type="curve"/>
			<point x="1248" y="354" type="line"/>
			<point x="1201" y="354" type="line"/>
			<point x="996" y="80" type="line"/>
		</contour>
	</outline>
	<anchor name="UCtop" x="975" y="1340"/>
	<anchor name="bottom" x="670" y="0"/>
	<anchor name="right" x="1314" y="0"/>
</glyph>
<glyph name="D" format="2">
	<unicode hex="0044"/>
	<advance width="1460"/>
	<outline>
		<contour>
			<point x="508" y="88" type="curve" smooth="yes"/>
			<point x="198" y="88" type="line"/>
			<point x="169" y="0" type="line"/>
			<point x="509" y="0" type="line" smooth="yes"/>
			<point x="1117" y="0"/>
			<point x="1447" y="364"/>
			<point x="1447" y="820" type="curve" smooth="yes"/>
			<point x="1447" y="1163"/>
			<point x="1255" y="1340"/>
			<point x="834" y="1340" type="curve" smooth="yes"/>
			<point x="579" y="1340" type="line"/>
			<point x="550" y="1252" type="line"/>
			<point x="782" y="1252" type="line" smooth="yes"/>
			<point x="1123" y="1252"/>
			<point x="1278" y="1102"/>
			<point x="1278" y="824" type="curve" smooth="yes"/>
			<point x="1278" y="372"/>
			<point x="989" y="88"/>
		</contour>
		<contour>
			<point x="495" y="1257" type="line"/>
			<point x="140" y="86" type="line"/>
			<point x="-22" y="38" type="line"/>
			<point x="-34" y="0" type="line"/>
			<point x="266" y="0" type="line"/>
			<point x="672" y="1340" type="line"/>
			<point x="368" y="1340" type="line"/>
			<point x="356" y="1302" type="line"/>
		</contour>
	</outline>
	<anchor name="UCtop" x="986" y="1340"/>
	<anchor name="bottom" x="607" y="0"/>
</glyph>
<glyph name="E" format="2">
	<unicode hex="0045"/>
	<advance width="1209"/>
	<outline>
		<contour>
			<point x="495" y="1257" type="line"/>
			<point x="140" y="86" type="line"/>
			<point x="-22" y="38" type="line"/>
			<point x="-34" y="0" type="line"/>
			<point x="266" y="0" type="line"/>
			<point x="672" y="1340" type="line"/>
			<point x="368" y="1340" type="line"/>
			<point x="356" y="1302" type="line"/>
		</contour>
		<contour>
			<point x="1143" y="1271" type="line"/>
			<point x="1198" y="957" type="line"/>
			<point x="1246" y="957" type="line"/>
			<point x="1315" y="1389" type="line"/>
			<point x="1300" y="1389" type="line"/>
			<point x="1179" y="1340" type="line"/>
			<point x="579" y="1340" type="line"/>
			<point x="550" y="1252" type="line"/>
			<point x="1184" y="1252" type="line"/>
		</contour>
		<contour>
			<point x="920" y="-59" type="line"/>
			<point x="935" y="-59" type="line"/>
			<point x="1134" y="360" type="line"/>
			<point x="1099" y="381" type="line"/>
			<point x="803" y="68" type="line"/>
			<point x="882" y="88" type="line"/>
			<point x="198" y="88" type="line"/>
			<point x="169" y="0" type="line"/>
			<point x="824" y="0" type="line"/>
		</contour>
		<contour>
			<point x="847" y="441" type="line"/>
			<point x="927" y="703" type="line"/>
			<point x="1007" y="965" type="line"/>
			<point x="936" y="965" type="line"/>
			<point x="848" y="746" type="line"/>
			<point x="397" y="746" type="line"/>
			<point x="371" y="660" type="line"/>
			<point x="822" y="660" type="line"/>
			<point x="776" y="441" type="line"/>
		</contour>
	</outline>
	<anchor name="UCtop" x="840" y="1340"/>
	<anchor name="right" x="753" y="0"/>
	<anchor name="bottom" x="532" y="0"/>
</glyph>
<glyph name="F" format="2">
	<unicode hex="0046"/>
	<advance width="1110"/>
	<outline>
		<contour>
			<point x="1012" y="935" type="line"/>
			<point x="941" y="935" type="line"/>
			<point x="853" y="716" type="line"/>
			<point x="402" y="716" type="line"/>
			<point x="376" y="630" type="line"/>
			<point x="827" y="630" type="line"/>
			<point x="781" y="411" type="line"/>
			<point x="852" y="411" type="line"/>
			<point x="932" y="673" type="line"/>
		</contour>
		<contour>
			<point x="1222" y="957" type="line"/>
			<point x="1291" y="1389" type="line"/>
			<point x="1276" y="1389" type="line"/>
			<point x="1155" y="1340" type="line"/>
			<point x="579" y="1340" type="line"/>
			<point x="550" y="1252" type="line"/>
			<point x="1160" y="1252" type="line"/>
			<point x="1119" y="1271" type="line"/>
			<point x="1174" y="957" type="line"/>
		</contour>
		<contour>
			<point x="291" y="83" type="line"/>
			<point x="672" y="1340" type="line"/>
			<point x="368" y="1340" type="line"/>
			<point x="356" y="1302" type="line"/>
			<point x="495" y="1257" type="line"/>
			<point x="140" y="86" type="line"/>
			<point x="-22" y="38" type="line"/>
			<point x="-34" y="0" type="line"/>
			<point x="418" y="0" type="line"/>
			<point x="430" y="38" type="line"/>
		</contour>
	</outline>
	<anchor name="UCtop" x="824" y="1340"/>
	<anchor name="bottom" x="199" y="0"/>
</glyph>
<glyph name="G" format="2">
	<unicode hex="0047"/>
	<advance width="1429"/>
	<outline>
		<contour>
			<point x="746" y="64" type="curve" smooth="yes"/>
			<point x="475" y="64"/>
			<point x="319" y="222"/>
			<point x="319" y="531" type="curve" smooth="yes"/>
			<point x="319" y="940"/>
			<point x="603" y="1275"/>
			<point x="1024" y="1275" type="curve" smooth="yes"/>
			<point x="1150" y="1275"/>
			<point x="1228" y="1253"/>
			<point x="1328" y="1186" type="curve"/>
			<point x="1279" y="1230" type="line"/>
			<point x="1337" y="936" type="line"/>
			<point x="1379" y="936" type="line"/>
			<point x="1465" y="1398" type="line"/>
			<point x="1448" y="1398" type="line"/>
			<point x="1303" y="1315" type="line"/>
			<point x="1362" y="1313" type="line"/>
			<point x="1263" y="1350"/>
			<point x="1163" y="1360"/>
			<point x="1059" y="1360" type="curve" smooth="yes"/>
			<point x="550" y="1360"/>
			<point x="155" y="1000"/>
			<point x="155" y="502" type="curve" smooth="yes"/>
			<point x="155" y="180"/>
			<point x="362" y="-20"/>
			<point x="742" y="-20" type="curve" smooth="yes"/>
			<point x="892" y="-20"/>
			<point x="1050" y="7"/>
			<point x="1180" y="66" type="curve"/>
			<point x="1180" y="66" type="line"/>
			<point x="1192" y="177" type="line"/>
			<point x="1294" y="513" type="line"/>
			<point x="1430" y="561" type="line"/>
			<point x="1442" y="599" type="line"/>
			<point x="990" y="599" type="line"/>
			<point x="978" y="561" type="line"/>
			<point x="1143" y="516" type="line"/>
			<point x="1003" y="57" type="line"/>
			<point x="1110" y="177" type="line"/>
			<point x="1023" y="110"/>
			<point x="863" y="64"/>
		</contour>
	</outline>
	<anchor name="UCtop" x="999" y="1340"/>
	<anchor name="bottom" x="680" y="0"/>
</glyph>
<glyph name="H" format="2">
	<unicode hex="0048"/>
	<advance width="1507"/>
	<outline>
		<contour>
			<point x="364" y="639" type="line"/>
			<point x="1269" y="639" type="line"/>
			<point x="1296" y="727" type="line"/>
			<point x="391" y="727" type="line"/>
		</contour>
		<contour>
			<point x="495" y="1257" type="line"/>
			<point x="140" y="86" type="line"/>
			<point x="-22" y="38" type="line"/>
			<point x="-34" y="0" type="line"/>
			<point x="418" y="0" type="line"/>
			<point x="430" y="38" type="line"/>
			<point x="291" y="83" type="line"/>
			<point x="646" y="1254" type="line"/>
			<point x="808" y="1302" type="line"/>
			<point x="820" y="1340" type="line"/>
			<point x="368" y="1340" type="line"/>
			<point x="356" y="1302" type="line"/>
		</contour>
		<contour>
			<point x="1363" y="1257" type="line"/>
			<point x="1008" y="86" type="line"/>
			<point x="846" y="38" type="line"/>
			<point x="834" y="0" type="line"/>
			<point x="1286" y="0" type="line"/>
			<point x="1298" y="38" type="line"/>
			<point x="1159" y="83" type="line"/>
			<point x="1514" y="1254" type="line"/>
			<point x="1676" y="1302" type="line"/>
			<point x="1688" y="1340" type="line"/>
			<point x="1236" y="1340" type="line"/>
			<point x="1224" y="1302" type="line"/>
		</contour>
	</outline>
	<anchor name="UCtop" x="995" y="1340"/>
	<anchor name="bottom" x="656" y="0"/>
</glyph>
<glyph name="I" format="2">
	<unicode hex="0049"/>
	<advance width="639"/>
	<outline>
		<contour>
			<point x="495" y="1257" type="line"/>
			<point x="140" y="86" type="line"/>
			<point x="-22" y="38" type="line"/>
			<point x="-34" y="0" type="line"/>
			<point x="418" y="0" type="line"/>
			<point x="430" y="38" type="line"/>
			<point x="291" y="83" type="line"/>
			<point x="646" y="1254" type="line"/>
			<point x="808" y="1302" type="line"/>
			<point x="820" y="1340" type="line"/>
			<point x="368" y="1340" type="line"/>
			<point x="356" y="1302" type="line"/>
		</contour>
	</outline>
	<anchor name="UCtop" x="582" y="1340"/>
	<anchor name="right" x="194" y="0"/>
	<anchor name="bottom" x="194" y="0"/>
</glyph>
<glyph name="J" format="2">
	<unicode hex="004A"/>
	<advance width="805"/>
	<outline>
		<contour>
			<point x="588" y="400" type="curve" smooth="yes"/>
			<point x="847" y="1254" type="line"/>
			<point x="1009" y="1302" type="line"/>
			<point x="1021" y="1340" type="line"/>
			<point x="569" y="1340" type="line"/>
			<point x="557" y="1302" type="line"/>
			<point x="696" y="1257" type="line"/>
			<point x="400" y="278" type="line" smooth="yes"/>
			<point x="352" y="122"/>
			<point x="266" y="73"/>
			<point x="179" y="73" type="curve" smooth="yes"/>
			<point x="95.1104721379" y="73"/>
			<point x="47" y="162"/>
			<point x="-1" y="162" type="curve" smooth="yes"/>
			<point x="-59" y="162"/>
			<point x="-89" y="124"/>
			<point x="-89" y="84" type="curve" smooth="yes"/>
			<point x="-89" y="22"/>
			<point x="-23" y="-20"/>
			<point x="71" y="-20" type="curve" smooth="yes"/>
			<point x="303" y="-20"/>
			<point x="507" y="133"/>
		</contour>
	</outline>
	<anchor name="UCtop" x="767" y="1340"/>
	<anchor name="bottom" x="336" y="0"/>
</glyph>
<glyph name="K" format="2">
	<unicode hex="004B"/>
	<advance width="1350"/>
	<outline>
		<contour>
			<point x="1117" y="79" type="line"/>
			<point x="703" y="755" type="line"/>
			<point x="664" y="676" type="line"/>
			<point x="1385" y="1256" type="line"/>
			<point x="1545" y="1302" type="line"/>
			<point x="1556" y="1340" type="line"/>
			<point x="1149" y="1340" type="line"/>
			<point x="1138" y="1302" type="line"/>
			<point x="1273" y="1261" type="line"/>
			<point x="622" y="738" type="line"/>
			<point x="438" y="738" type="line"/>
			<point x="410" y="652" type="line"/>
			<point x="599" y="652" type="line"/>
			<point x="943" y="82" type="line"/>
			<point x="795" y="38" type="line"/>
			<point x="784" y="0" type="line"/>
			<point x="1239" y="0" type="line"/>
			<point x="1250" y="38" type="line"/>
		</contour>
		<contour>
			<point x="495" y="1257" type="line"/>
			<point x="140" y="86" type="line"/>
			<point x="-22" y="38" type="line"/>
			<point x="-34" y="0" type="line"/>
			<point x="418" y="0" type="line"/>
			<point x="430" y="38" type="line"/>
			<point x="291" y="83" type="line"/>
			<point x="646" y="1254" type="line"/>
			<point x="808" y="1302" type="line"/>
			<point x="820" y="1340" type="line"/>
			<point x="368" y="1340" type="line"/>
			<point x="356" y="1302" type="line"/>
		</contour>
	</outline>
	<anchor name="UCtop" x="936" y="1340"/>
	<anchor name="bottom" x="631" y="0"/>
</glyph>
<glyph name="L" format="2">
	<unicode hex="004C"/>
	<advance width="1109"/>
	<outline>
		<contour>
			<point x="646" y="1254" type="line"/>
			<point x="808" y="1302" type="line"/>
			<point x="820" y="1340" type="line"/>
			<point x="368" y="1340" type="line"/>
			<point x="356" y="1302" type="line"/>
			<point x="495" y="1257" type="line"/>
			<point x="140" y="86" type="line"/>
			<point x="-22" y="38" type="line"/>
			<point x="-34" y="0" type="line"/>
			<point x="266" y="0" type="line"/>
		</contour>
		<contour>
			<point x="728" y="68" type="line"/>
			<point x="807" y="88" type="line"/>
			<point x="223" y="88" type="line"/>
			<point x="194" y="0" type="line"/>
			<point x="749" y="0" type="line"/>
			<point x="845" y="-59" type="line"/>
			<point x="860" y="-59" type="line"/>
			<point x="1059" y="360" type="line"/>
			<point x="1024" y="381" type="line"/>
		</contour>
	</outline>
	<anchor name="UCtop" x="568" y="1340"/>
	<anchor name="right" x="934" y="1340"/>
	<anchor name="bottom" x="503" y="0"/>
	<anchor name="mid" x="935" y="702"/>
</glyph>
<glyph name="M" format="2">
	<unicode hex="004D"/>
	<advance width="1840"/>
	<outline>
		<contour>
			<point x="605" y="1200" type="line"/>
			<point x="587" y="1194" type="line"/>
			<point x="721" y="-19" type="line"/>
			<point x="762" y="-19" type="line"/>
			<point x="1732" y="1310" type="line"/>
			<point x="1732" y="1340" type="line"/>
			<point x="1654" y="1340" type="line"/>
			<point x="794" y="157" type="line"/>
			<point x="850" y="157" type="line"/>
			<point x="723" y="1340" type="line"/>
			<point x="406" y="1340" type="line"/>
			<point x="394" y="1302" type="line"/>
			<point x="539" y="1245" type="line"/>
			<point x="103" y="86" type="line"/>
			<point x="-59" y="38" type="line"/>
			<point x="-71" y="0" type="line"/>
			<point x="318" y="0" type="line"/>
			<point x="330" y="38" type="line"/>
			<point x="191" y="83" type="line"/>
		</contour>
		<contour>
			<point x="1670" y="1340" type="line"/>
			<point x="1368" y="86" type="line"/>
			<point x="1206" y="38" type="line"/>
			<point x="1194" y="0" type="line"/>
			<point x="1648" y="0" type="line"/>
			<point x="1660" y="38" type="line"/>
			<point x="1521" y="83" type="line"/>
			<point x="1794" y="1250" type="line"/>
			<point x="1960" y="1302" type="line"/>
			<point x="1972" y="1340" type="line"/>
		</contour>
	</outline>
	<anchor name="UCtop" x="1146" y="1340"/>
	<anchor name="bottom" x="741" y="0"/>
</glyph>
<glyph name="N" format="2">
	<unicode hex="004E"/>
	<advance width="1448"/>
	<outline>
		<contour>
			<point x="1100" y="228" type="line"/>
			<point x="657" y="1340" type="line"/>
			<point x="351" y="1340" type="line"/>
			<point x="340" y="1302" type="line"/>
			<point x="498" y="1240" type="line"/>
			<point x="146" y="86" type="line"/>
			<point x="-16" y="38" type="line"/>
			<point x="-28" y="0" type="line"/>
			<point x="359" y="0" type="line"/>
			<point x="371" y="38" type="line"/>
			<point x="232" y="83" type="line"/>
			<point x="580" y="1221" type="line"/>
			<point x="543" y="1243" type="line"/>
			<point x="1046" y="-20" type="line"/>
			<point x="1087" y="-20" type="line"/>
			<point x="1476" y="1254" type="line"/>
			<point x="1638" y="1302" type="line"/>
			<point x="1650" y="1340" type="line"/>
			<point x="1263" y="1340" type="line"/>
			<point x="1251" y="1302" type="line"/>
			<point x="1390" y="1257" type="line"/>
			<point x="1066" y="198" type="line"/>
		</contour>
	</outline>
	<anchor name="UCtop" x="988" y="1340"/>
	<anchor name="bottom" x="661" y="0"/>
</glyph>
<glyph name="O" format="2">
	<unicode hex="004F"/>
	<advance width="1479"/>
	<outline>
		<contour>
			<point x="324" y="495" type="curve" smooth="yes"/>
			<point x="324" y="929"/>
			<point x="605" y="1275"/>
			<point x="931" y="1275" type="curve" smooth="yes"/>
			<point x="1171" y="1275"/>
			<point x="1302" y="1126"/>
			<point x="1302" y="845" type="curve" smooth="yes"/>
			<point x="1302" y="411"/>
			<point x="1021" y="65"/>
			<point x="695" y="65" type="curve" smooth="yes"/>
			<point x="455" y="65"/>
			<point x="324" y="214"/>
		</contour>
		<contour>
			<point x="1464" y="818" type="curve" smooth="yes"/>
			<point x="1464" y="1159"/>
			<point x="1260" y="1360"/>
			<point x="936" y="1360" type="curve" smooth="yes"/>
			<point x="497" y="1360"/>
			<point x="162" y="969"/>
			<point x="162" y="522" type="curve" smooth="yes"/>
			<point x="162" y="181"/>
			<point x="366" y="-20"/>
			<point x="690" y="-20" type="curve" smooth="yes"/>
			<point x="1129" y="-20"/>
			<point x="1464" y="371"/>
		</contour>
	</outline>
	<anchor name="UCtop" x="962" y="1340"/>
	<anchor name="bottom" x="633" y="0"/>
	<anchor name="right" x="593" y="0"/>
	<anchor name="horn" x="1143" y="1340"/>
</glyph>
<glyph name="P" format="2">
	<unicode hex="0050"/>
	<advance width="1146"/>
	<outline>
		<contour>
			<point x="711" y="675" type="curve" smooth="yes"/>
			<point x="329" y="675" type="line"/>
			<point x="313" y="587" type="line"/>
			<point x="679" y="587" type="line" smooth="yes"/>
			<point x="1040" y="587"/>
			<point x="1260" y="775"/>
			<point x="1260" y="1047" type="curve" smooth="yes"/>
			<point x="1260" y="1212"/>
			<point x="1141" y="1340"/>
			<point x="849" y="1340" type="curve" smooth="yes"/>
			<point x="545" y="1340" type="line"/>
			<point x="503" y="1252" type="line"/>
			<point x="817" y="1252" type="line" smooth="yes"/>
			<point x="1015" y="1252"/>
			<point x="1099" y="1171"/>
			<point x="1099" y="1023" type="curve" smooth="yes"/>
			<point x="1099" y="799"/>
			<point x="943" y="675"/>
		</contour>
		<contour>
			<point x="291" y="83" type="line"/>
			<point x="672" y="1340" type="line"/>
			<point x="368" y="1340" type="line"/>
			<point x="356" y="1302" type="line"/>
			<point x="495" y="1257" type="line"/>
			<point x="140" y="86" type="line"/>
			<point x="-22" y="38" type="line"/>
			<point x="-34" y="0" type="line"/>
			<point x="418" y="0" type="line"/>
			<point x="430" y="38" type="line"/>
		</contour>
	</outline>
	<anchor name="UCtop" x="852" y="1340"/>
	<anchor name="bottom" x="183" y="0"/>
</glyph>
<glyph name="Q" format="2">
	<unicode hex="0051"/>
	<advance width="1476"/>
	<outline>
		<contour>
			<point x="755" y="-249" type="line" smooth="yes"/>
			<point x="898" y="-365"/>
			<point x="954" y="-393"/>
			<point x="1078" y="-393" type="curve" smooth="yes"/>
			<point x="1174" y="-393"/>
			<point x="1233" y="-379"/>
			<point x="1320" y="-350" type="curve"/>
			<point x="1330" y="-316" type="line"/>
			<point x="1194" y="-335"/>
			<point x="1113" y="-330"/>
			<point x="927" y="-202" type="curve" smooth="yes"/>
			<point x="571" y="43" type="line"/>
			<point x="621" y="-6" type="line"/>
			<point x="1148" y="-56"/>
			<point x="1464" y="414"/>
			<point x="1464" y="818" type="curve" smooth="yes"/>
			<point x="1464" y="1159"/>
			<point x="1260" y="1360"/>
			<point x="936" y="1360" type="curve" smooth="yes"/>
			<point x="497" y="1360"/>
			<point x="162" y="969"/>
			<point x="162" y="522" type="curve" smooth="yes"/>
			<point x="162" y="318"/>
			<point x="231" y="177"/>
			<point x="353" y="78" type="curve" smooth="yes"/>
		</contour>
		<contour>
			<point x="324" y="495" type="curve" smooth="yes"/>
			<point x="324" y="929"/>
			<point x="605" y="1275"/>
			<point x="931" y="1275" type="curve" smooth="yes"/>
			<point x="1171" y="1275"/>
			<point x="1302" y="1126"/>
			<point x="1302" y="845" type="curve" smooth="yes"/>
			<point x="1302" y="411"/>
			<point x="1021" y="65"/>
			<point x="695" y="65" type="curve" smooth="yes"/>
			<point x="455" y="65"/>
			<point x="324" y="214"/>
		</contour>
	</outline>
	<anchor name="UCtop" x="962" y="1340"/>
	<anchor name="bottom" x="545" y="-172"/>
</glyph>
<glyph name="R" format="2">
	<unicode hex="0052"/>
	<advance width="1222"/>
	<outline>
		<contour>
			<point x="685" y="722" type="curve" smooth="yes"/>
			<point x="354" y="722" type="line"/>
			<point x="328" y="634" type="line"/>
			<point x="646" y="634" type="line" smooth="yes"/>
			<point x="729" y="634"/>
			<point x="769" y="612"/>
			<point x="793" y="502" type="curve" smooth="yes"/>
			<point x="867" y="163" type="line" smooth="yes"/>
			<point x="902" y="5"/>
			<point x="931" y="-13"/>
			<point x="1138" y="0" type="curve"/>
			<point x="1153" y="52" type="line"/>
			<point x="1072" y="51"/>
			<point x="1039" y="66"/>
			<point x="1009" y="197" type="curve" smooth="yes"/>
			<point x="948" y="462" type="line" smooth="yes"/>
			<point x="915" y="603"/>
			<point x="881" y="665"/>
			<point x="753" y="671" type="curve"/>
			<point x="753" y="666" type="line"/>
			<point x="1042" y="684"/>
			<point x="1201" y="853"/>
			<point x="1201" y="1067" type="curve" smooth="yes"/>
			<point x="1201" y="1246"/>
			<point x="1089" y="1340"/>
			<point x="809" y="1340" type="curve" smooth="yes"/>
			<point x="545" y="1340" type="line"/>
			<point x="513" y="1252" type="line"/>
			<point x="760" y="1252" type="line" smooth="yes"/>
			<point x="970" y="1252"/>
			<point x="1046" y="1184"/>
			<point x="1046" y="1059" type="curve" smooth="yes"/>
			<point x="1046" y="857"/>
			<point x="900" y="722"/>
		</contour>
		<contour>
			<point x="291" y="83" type="line"/>
			<point x="672" y="1340" type="line"/>
			<point x="368" y="1340" type="line"/>
			<point x="356" y="1302" type="line"/>
			<point x="495" y="1257" type="line"/>
			<point x="140" y="86" type="line"/>
			<point x="-22" y="38" type="line"/>
			<point x="-34" y="0" type="line"/>
			<point x="418" y="0" type="line"/>
			<point x="430" y="38" type="line"/>
		</contour>
	</outline>
	<anchor name="UCtop" x="802" y="1340"/>
	<anchor name="bottom" x="613" y="0"/>
</glyph>
<glyph name="S" format="2">
	<unicode hex="0053"/>
	<advance width="1044"/>
	<outline>
		<contour>
			<point x="970" y="1186" type="curve"/>
			<point x="914" y="1273" type="line"/>
			<point x="979" y="936" type="line"/>
			<point x="1021" y="936" type="line"/>
			<point x="1107" y="1398" type="line"/>
			<point x="1090" y="1398" type="line"/>
			<point x="945" y="1315" type="line"/>
			<point x="1004" y="1313" type="line"/>
			<point x="905" y="1350"/>
			<point x="835" y="1360"/>
			<point x="743" y="1360" type="curve" smooth="yes"/>
			<point x="457" y="1360"/>
			<point x="285" y="1198"/>
			<point x="285" y="980" type="curve" smooth="yes"/>
			<point x="285" y="821"/>
			<point x="365" y="751"/>
			<point x="488" y="681" type="curve" smooth="yes"/>
			<point x="611" y="612"/>
			<point x="799" y="571"/>
			<point x="799" y="357" type="curve" smooth="yes"/>
			<point x="799" y="174"/>
			<point x="665" y="60"/>
			<point x="418" y="60" type="curve" smooth="yes"/>
			<point x="354" y="60"/>
			<point x="305" y="66"/>
			<point x="242" y="90" type="curve"/>
			<point x="286" y="54" type="line"/>
			<point x="131" y="386" type="line"/>
			<point x="90" y="386" type="line"/>
			<point x="103" y="45" type="line"/>
			<point x="207" y="-5"/>
			<point x="288" y="-20"/>
			<point x="420" y="-20" type="curve" smooth="yes"/>
			<point x="732" y="-20"/>
			<point x="936" y="150"/>
			<point x="936" y="395" type="curve" smooth="yes"/>
			<point x="936" y="591"/>
			<point x="829" y="676"/>
			<point x="701" y="745" type="curve" smooth="yes"/>
			<point x="572" y="815"/>
			<point x="419" y="860"/>
			<point x="419" y="1026" type="curve" smooth="yes"/>
			<point x="419" y="1191"/>
			<point x="524" y="1283"/>
			<point x="704" y="1283" type="curve" smooth="yes"/>
			<point x="824" y="1283"/>
			<point x="883" y="1254"/>
		</contour>
	</outline>
	<anchor name="UCtop" x="728" y="1340"/>
	<anchor name="bottom" x="449" y="0"/>
</glyph>
<glyph name="T" format="2">
	<unicode hex="0054"/>
	<advance width="1226"/>
	<outline>
		<contour>
			<point x="1351" y="1246" type="line"/>
			<point x="1272" y="1265" type="line"/>
			<point x="1309" y="978" type="line"/>
			<point x="1346" y="978" type="line"/>
			<point x="1446" y="1408" type="line"/>
			<point x="1429" y="1408" type="line"/>
			<point x="1273" y="1324" type="line"/>
			<point x="1358" y="1340" type="line"/>
			<point x="419" y="1340" type="line"/>
			<point x="485" y="1324" type="line"/>
			<point x="388" y="1408" type="line"/>
			<point x="371" y="1408" type="line"/>
			<point x="221" y="998" type="line"/>
			<point x="258" y="979" type="line"/>
			<point x="479" y="1267" type="line"/>
			<point x="368" y="1246" type="line"/>
		</contour>
		<contour>
			<point x="796" y="1279" type="line"/>
			<point x="434" y="86" type="line"/>
			<point x="272" y="38" type="line"/>
			<point x="260" y="0" type="line"/>
			<point x="712" y="0" type="line"/>
			<point x="724" y="38" type="line"/>
			<point x="585" y="83" type="line"/>
			<point x="948" y="1279" type="line"/>
		</contour>
	</outline>
	<anchor name="UCtop" x="893" y="1340"/>
	<anchor name="bottom" x="484" y="0"/>
</glyph>
<glyph name="U" format="2">
	<unicode hex="0055"/>
	<advance width="1442"/>
	<outline>
		<contour>
			<point x="394" y="514" type="curve" smooth="yes"/>
			<point x="620" y="1254" type="line"/>
			<point x="782" y="1302" type="line"/>
			<point x="794" y="1340" type="line"/>
			<point x="342" y="1340" type="line"/>
			<point x="330" y="1302" type="line"/>
			<point x="469" y="1257" type="line"/>
			<point x="245" y="523" type="line" smooth="yes"/>
			<point x="132" y="154"/>
			<point x="299" y="-20"/>
			<point x="637" y="-20" type="curve" smooth="yes"/>
			<point x="927" y="-20"/>
			<point x="1141" y="117"/>
			<point x="1246" y="464" type="curve" smooth="yes"/>
			<point x="1486" y="1254" type="line"/>
			<point x="1648" y="1302" type="line"/>
			<point x="1660" y="1340" type="line"/>
			<point x="1273" y="1340" type="line"/>
			<point x="1261" y="1302" type="line"/>
			<point x="1400" y="1257" type="line"/>
			<point x="1166" y="489" type="line" smooth="yes"/>
			<point x="1074" y="187"/>
			<point x="889" y="92"/>
			<point x="676" y="92" type="curve" smooth="yes"/>
			<point x="391" y="92"/>
			<point x="309" y="236"/>
		</contour>
	</outline>
	<anchor name="UCtop" x="1002" y="1340"/>
	<anchor name="right" x="605" y="0"/>
	<anchor name="bottom" x="593" y="0"/>
	<anchor name="horn" x="1527" y="1340"/>
</glyph>
<glyph name="V" format="2">
	<unicode hex="0056"/>
	<advance width="1280"/>
	<outline>
		<contour>
			<point x="368" y="1255" type="line"/>
			<point x="489" y="-20" type="line"/>
			<point x="534" y="-20" type="line"/>
			<point x="1384" y="1257" type="line"/>
			<point x="1548" y="1302" type="line"/>
			<point x="1559" y="1340" type="line"/>
			<point x="1151" y="1340" type="line"/>
			<point x="1140" y="1302" type="line"/>
			<point x="1277" y="1257" type="line"/>
			<point x="553" y="145" type="line"/>
			<point x="616" y="145" type="line"/>
			<point x="520" y="1257" type="line"/>
			<point x="702" y="1302" type="line"/>
			<point x="713" y="1340" type="line"/>
			<point x="256" y="1340" type="line"/>
			<point x="245" y="1302" type="line"/>
		</contour>
	</outline>
	<anchor name="UCtop" x="911" y="1340"/>
	<anchor name="bottom" x="532" y="0"/>
</glyph>
<glyph name="W" format="2">
	<unicode hex="0057"/>
	<advance width="1786"/>
	<outline>
		<contour>
			<point x="1788" y="1254" type="line"/>
			<point x="1214" y="148" type="line"/>
			<point x="1309" y="185" type="line"/>
			<point x="1228" y="1360" type="line"/>
			<point x="1181" y="1360" type="line"/>
			<point x="411" y="225" type="line"/>
			<point x="462" y="225" type="line"/>
			<point x="535" y="1254" type="line"/>
			<point x="716" y="1303" type="line"/>
			<point x="727" y="1340" type="line"/>
			<point x="268" y="1340" type="line"/>
			<point x="257" y="1303" type="line"/>
			<point x="380" y="1252" type="line"/>
			<point x="295" y="-20" type="line"/>
			<point x="339" y="-20" type="line"/>
			<point x="1163" y="1182" type="line"/>
			<point x="1090" y="1158" type="line"/>
			<point x="1169" y="-20" type="line"/>
			<point x="1213" y="-20" type="line"/>
			<point x="1891" y="1254" type="line"/>
			<point x="2045" y="1303" type="line"/>
			<point x="2056" y="1340" type="line"/>
			<point x="1652" y="1340" type="line"/>
			<point x="1641" y="1303" type="line"/>
		</contour>
	</outline>
	<anchor name="UCtop" x="1175" y="1340"/>
	<anchor name="bottom" x="766" y="0"/>
</glyph>
<glyph name="X" format="2">
	<unicode hex="0058"/>
	<advance width="1310"/>
	<outline>
		<contour>
			<point x="735" y="651" type="line"/>
			<point x="778" y="679" type="line"/>
			<point x="1359" y="1250" type="line"/>
			<point x="1520" y="1302" type="line"/>
			<point x="1532" y="1340" type="line"/>
			<point x="1121" y="1340" type="line"/>
			<point x="1109" y="1302" type="line"/>
			<point x="1253" y="1254" type="line"/>
			<point x="743" y="744" type="line"/>
			<point x="696" y="712" type="line"/>
			<point x="50" y="90" type="line"/>
			<point x="-111" y="38" type="line"/>
			<point x="-123" y="0" type="line"/>
			<point x="287" y="0" type="line"/>
			<point x="299" y="38" type="line"/>
			<point x="157" y="86" type="line"/>
		</contour>
		<contour>
			<point x="903" y="86" type="line"/>
			<point x="737" y="38" type="line"/>
			<point x="725" y="0" type="line"/>
			<point x="1189" y="0" type="line"/>
			<point x="1201" y="38" type="line"/>
			<point x="1063" y="88" type="line"/>
			<point x="805" y="738" type="line"/>
			<point x="794" y="764" type="line"/>
			<point x="602" y="1256" type="line"/>
			<point x="772" y="1302" type="line"/>
			<point x="784" y="1340" type="line"/>
			<point x="320" y="1340" type="line"/>
			<point x="308" y="1302" type="line"/>
			<point x="441" y="1254" type="line"/>
			<point x="678" y="661" type="line"/>
			<point x="687" y="640" type="line"/>
		</contour>
	</outline>
	<anchor name="UCtop" x="927" y="1340"/>
	<anchor name="bottom" x="518" y="0"/>
</glyph>
<glyph name="Y" format="2">
	<unicode hex="0059"/>
	<advance width="1266"/>
	<outline>
		<contour>
			<point x="1253" y="1264" type="line"/>
			<point x="710" y="626" type="line"/>
			<point x="756" y="624" type="line"/>
			<point x="541" y="1259" type="line"/>
			<point x="709" y="1302" type="line"/>
			<point x="721" y="1340" type="line"/>
			<point x="264" y="1340" type="line"/>
			<point x="252" y="1302" type="line"/>
			<point x="381" y="1257" type="line"/>
			<point x="616" y="581" type="line"/>
			<point x="466" y="86" type="line"/>
			<point x="304" y="38" type="line"/>
			<point x="292" y="0" type="line"/>
			<point x="744" y="0" type="line"/>
			<point x="756" y="38" type="line"/>
			<point x="617" y="83" type="line"/>
			<point x="770" y="588" type="line"/>
			<point x="1357" y="1261" type="line"/>
			<point x="1513" y="1302" type="line"/>
			<point x="1525" y="1340" type="line"/>
			<point x="1119" y="1340" type="line"/>
			<point x="1107" y="1302" type="line"/>
		</contour>
	</outline>
	<anchor name="UCtop" x="888" y="1340"/>
	<anchor name="bottom" x="529" y="0"/>
</glyph>
<glyph name="Z" format="2">
	<unicode hex="005A"/>
	<advance width="1197"/>
	<outline>
		<contour>
			<point x="1372" y="1340" type="line"/>
			<point x="558" y="1340" type="line"/>
			<point x="459" y="1399" type="line"/>
			<point x="439" y="1399" type="line"/>
			<point x="240" y="976" type="line"/>
			<point x="274" y="957" type="line"/>
			<point x="558" y="1252" type="line"/>
			<point x="1142" y="1252" type="line"/>
			<point x="1138" y="1271" type="line"/>
			<point x="-20" y="20" type="line"/>
			<point x="-26" y="0" type="line"/>
			<point x="818" y="0" type="line"/>
			<point x="914" y="-49" type="line"/>
			<point x="929" y="-49" type="line"/>
			<point x="1107" y="345" type="line"/>
			<point x="1068" y="353" type="line"/>
			<point x="824" y="88" type="line"/>
			<point x="199" y="88" type="line"/>
			<point x="203" y="69" type="line"/>
			<point x="1366" y="1320" type="line"/>
		</contour>
	</outline>
	<anchor name="UCtop" x="872" y="1340"/>
	<anchor name="bottom" x="473" y="0"/>
</glyph>
<glyph name="bracketleft" format="2">
	<unicode hex="005B"/>
	<advance width="614"/>
	<outline>
		<contour>
			<point x="-20" y="-258" type="line"/>
			<point x="377" y="-258" type="line"/>
			<point x="398" y="-188" type="line"/>
			<point x="131" y="-188" type="line"/>
			<point x="595" y="1329" type="line"/>
			<point x="862" y="1329" type="line"/>
			<point x="884" y="1399" type="line"/>
			<point x="486" y="1399" type="line"/>
		</contour>
	</outline>
</glyph>
<glyph name="backslash" format="2">
  <advance width="737"/>
  <unicode hex="005C"/>
  <outline>
    <contour>
      <point x="553.0" y="0.0" type="line"/>
      <point x="426.0" y="1340.0" type="line"/>
      <point x="333.0" y="1340.0" type="line"/>
      <point x="461.0" y="0.0" type="line"/>
    </contour>
  </outline>
</glyph>
<glyph name="bracketright" format="2">
	<unicode hex="005D"/>
	<advance width="617"/>
	<outline>
		<contour>
			<point x="724" y="1400" type="line"/>
			<point x="327" y="1400" type="line"/>
			<point x="306" y="1330" type="line"/>
			<point x="573" y="1330" type="line"/>
			<point x="109" y="-187" type="line"/>
			<point x="-158" y="-187" type="line"/>
			<point x="-180" y="-257" type="line"/>
			<point x="218" y="-257" type="line"/>
		</contour>
	</outline>
</glyph>
<glyph name="asciicircum" format="2">
	<unicode hex="005E"/>
	<advance width="1000"/>
	<outline>
		<contour>
			<point x="757" y="1246" type="line"/>
			<point x="828" y="592" type="line"/>
			<point x="910" y="592" type="line"/>
			<point x="823" y="1340" type="line"/>
			<point x="739" y="1340" type="line"/>
			<point x="198" y="592" type="line"/>
			<point x="296" y="592" type="line"/>
			<point x="765" y="1246" type="line"/>
		</contour>
	</outline>
</glyph>
<glyph name="a" format="2">
	<unicode hex="0061"/>
	<advance width="923"/>
	<outline>
		<contour>
			<point x="488" y="45" type="line" smooth="yes"/>
			<point x="475" y="6"/>
			<point x="503" y="-20"/>
			<point x="560" y="-20" type="curve" smooth="yes"/>
			<point x="649" y="-20"/>
			<point x="748" y="35"/>
			<point x="892" y="195" type="curve"/>
			<point x="864" y="227" type="line"/>
			<point x="776" y="146"/>
			<point x="675" y="98"/>
			<point x="609" y="109" type="curve"/>
			<point x="626" y="71" type="line"/>
			<point x="877" y="852" type="line"/>
			<point x="862" y="852" type="line"/>
			<point x="741" y="852" type="line"/>
			<point x="624" y="487" type="line" smooth="yes"/>
			<point x="553" y="267"/>
			<point x="345" y="103"/>
			<point x="257" y="103" type="curve" smooth="yes"/>
			<point x="208" y="103"/>
			<point x="172" y="130"/>
			<point x="172" y="188" type="curve" smooth="yes"/>
			<point x="172" y="352"/>
			<point x="357" y="783"/>
			<point x="597" y="783" type="curve" smooth="yes"/>
			<point x="654" y="783"/>
			<point x="691" y="752"/>
			<point x="702" y="720" type="curve"/>
			<point x="742" y="774" type="line"/>
			<point x="700" y="828"/>
			<point x="655" y="855"/>
			<point x="578" y="855" type="curve" smooth="yes"/>
			<point x="281" y="855"/>
			<point x="24" y="431"/>
			<point x="24" y="180" type="curve" smooth="yes"/>
			<point x="24" y="39"/>
			<point x="93" y="-17"/>
			<point x="202" y="-17" type="curve" smooth="yes"/>
			<point x="305" y="-17"/>
			<point x="418" y="70"/>
			<point x="618" y="367" type="curve"/>
			<point x="592" y="367" type="line"/>
		</contour>
	</outline>
	<anchor name="top" x="588" y="852"/>
	<anchor name="right" x="582" y="0"/>
	<anchor name="bottom" x="328" y="0"/>
</glyph>
<glyph name="b" format="2">
  <advance width="887"/>
  <unicode hex="0062"/>
  <anchor x="712.0" y="1340.0" name="UCtop"/>
  <anchor x="294.0" y="0" name="bottom"/>
  <outline>
    <contour>
      <point x="226" y="317" type="curve" smooth="yes"/>
      <point x="240" y="366" type="line" smooth="yes"/>
      <point x="293" y="553"/>
      <point x="466.0" y="743.0"/>
      <point x="587" y="743" type="curve" smooth="yes"/>
      <point x="660" y="743"/>
      <point x="696" y="696"/>
      <point x="696" y="605" type="curve" smooth="yes"/>
      <point x="696" y="363"/>
      <point x="486" y="46"/>
      <point x="306" y="46" type="curve" smooth="yes"/>
      <point x="237" y="46"/>
      <point x="201" y="86"/>
      <point x="201" y="169" type="curve" smooth="yes"/>
      <point x="201" y="208"/>
      <point x="209" y="258"/>
    </contour>
    <contour>
      <point x="378" y="1267" type="curve"/>
      <point x="101" y="345" type="line" smooth="yes"/>
      <point x="87" y="299"/>
      <point x="80" y="256"/>
      <point x="80" y="216" type="curve" smooth="yes"/>
      <point x="80" y="74"/>
      <point x="167" y="-20"/>
      <point x="310" y="-20" type="curve" smooth="yes"/>
      <point x="569" y="-20"/>
      <point x="848" y="313"/>
      <point x="848" y="651" type="curve" smooth="yes"/>
      <point x="848.0" y="780.0"/>
      <point x="785.0" y="872.0"/>
      <point x="658" y="872" type="curve" smooth="yes"/>
      <point x="548" y="872"/>
      <point x="416" y="772"/>
      <point x="273" y="543" type="curve"/>
      <point x="282" y="507" type="line"/>
      <point x="549" y="1419" type="line"/>
      <point x="526" y="1419" type="line"/>
      <point x="259" y="1369" type="line"/>
      <point x="252" y="1344" type="line"/>
      <point x="310" y="1323"/>
      <point x="340" y="1301"/>
    </contour>
  </outline>
</glyph>
<glyph name="c" format="2">
	<unicode hex="0063"/>
	<advance width="702"/>
	<outline>
		<contour>
			<point x="458" y="794" type="curve" smooth="yes"/>
			<point x="499" y="794"/>
			<point x="533" y="763"/>
			<point x="562" y="731" type="curve" smooth="yes"/>
			<point x="591" y="699"/>
			<point x="615" y="666"/>
			<point x="635" y="667" type="curve" smooth="yes"/>
			<point x="682" y="668"/>
			<point x="716" y="693"/>
			<point x="716" y="745" type="curve" smooth="yes"/>
			<point x="716" y="811"/>
			<point x="658" y="872"/>
			<point x="539" y="872" type="curve" smooth="yes"/>
			<point x="279" y="872"/>
			<point x="57" y="590"/>
			<point x="57" y="240" type="curve" smooth="yes"/>
			<point x="57" y="64"/>
			<point x="139" y="-20"/>
			<point x="285" y="-20" type="curve" smooth="yes"/>
			<point x="419" y="-20"/>
			<point x="512" y="48"/>
			<point x="617" y="276" type="curve"/>
			<point x="563" y="276" type="line"/>
			<point x="488" y="137"/>
			<point x="412" y="93"/>
			<point x="330" y="93" type="curve" smooth="yes"/>
			<point x="245" y="93"/>
			<point x="202" y="144"/>
			<point x="202" y="282" type="curve" smooth="yes"/>
			<point x="202" y="512"/>
			<point x="311" y="794"/>
		</contour>
	</outline>
	<anchor name="top" x="454" y="852"/>
	<anchor name="right" x="346" y="0"/>
	<anchor name="bottom" x="306" y="0"/>
</glyph>
<glyph name="e" format="2">
	<unicode hex="0065"/>
	<advance width="742"/>
	<outline>
		<contour>
			<point x="497" y="805" type="curve" smooth="yes"/>
			<point x="558" y="805"/>
			<point x="591" y="767"/>
			<point x="591" y="712" type="curve" smooth="yes"/>
			<point x="591" y="622"/>
			<point x="513" y="537"/>
			<point x="192" y="446" type="curve"/>
			<point x="189" y="374" type="line"/>
			<point x="346" y="425"/>
			<point x="501" y="482"/>
			<point x="656" y="547" type="curve"/>
			<point x="695" y="579"/>
			<point x="722" y="642"/>
			<point x="722" y="699" type="curve" smooth="yes"/>
			<point x="722" y="788"/>
			<point x="663" y="872"/>
			<point x="523" y="872" type="curve" smooth="yes"/>
			<point x="279" y="872"/>
			<point x="57" y="590"/>
			<point x="57" y="240" type="curve" smooth="yes"/>
			<point x="57" y="69"/>
			<point x="154" y="-20"/>
			<point x="304" y="-20" type="curve" smooth="yes"/>
			<point x="453" y="-20"/>
			<point x="539" y="48"/>
			<point x="638" y="276" type="curve"/>
			<point x="582" y="276" type="line"/>
			<point x="511" y="132"/>
			<point x="440" y="93"/>
			<point x="350" y="93" type="curve" smooth="yes"/>
			<point x="262" y="93"/>
			<point x="202" y="144"/>
			<point x="202" y="282" type="curve" smooth="yes"/>
			<point x="202" y="476"/>
			<point x="301" y="805"/>
		</contour>
	</outline>
	<anchor name="top" x="480" y="852"/>
	<anchor name="right" x="392" y="0"/>
	<anchor name="bottom" x="300" y="0"/>
</glyph>
<glyph name="f" format="2">
	<unicode hex="0066"/>
	<advance width="578"/>
	<outline>
		<contour>
			<point x="107" y="772" type="line"/>
			<point x="666" y="772" type="line"/>
			<point x="682" y="852" type="line"/>
			<point x="122" y="852" type="line"/>
		</contour>
		<contour>
			<point x="324" y="193" type="curve" smooth="yes"/>
			<point x="486" y="1017" type="line" smooth="yes"/>
			<point x="529" y="1235"/>
			<point x="618" y="1339"/>
			<point x="765" y="1339" type="curve" smooth="yes"/>
			<point x="818" y="1339"/>
			<point x="854" y="1320"/>
			<point x="884" y="1286" type="curve" smooth="yes"/>
			<point x="914" y="1252"/>
			<point x="939" y="1204"/>
			<point x="974" y="1204" type="curve" smooth="yes"/>
			<point x="1031" y="1204"/>
			<point x="1065" y="1242"/>
			<point x="1065" y="1287" type="curve" smooth="yes"/>
			<point x="1065" y="1362"/>
			<point x="987" y="1419"/>
			<point x="841" y="1419" type="curve" smooth="yes"/>
			<point x="576" y="1419"/>
			<point x="393" y="1230"/>
			<point x="327" y="892" type="curve" smooth="yes"/>
			<point x="165" y="66" type="line" smooth="yes"/>
			<point x="83" y="-350"/>
			<point x="2" y="-437"/>
			<point x="-110" y="-437" type="curve" smooth="yes"/>
			<point x="-144" y="-437"/>
			<point x="-179" y="-422"/>
			<point x="-208" y="-387" type="curve" smooth="yes"/>
			<point x="-237" y="-352"/>
			<point x="-260" y="-326"/>
			<point x="-286" y="-326" type="curve" smooth="yes"/>
			<point x="-331" y="-326"/>
			<point x="-365" y="-370"/>
			<point x="-365" y="-413" type="curve" smooth="yes"/>
			<point x="-365" y="-481"/>
			<point x="-307" y="-530"/>
			<point x="-191" y="-530" type="curve" smooth="yes"/>
			<point x="36" y="-530"/>
			<point x="217" y="-349"/>
		</contour>
	</outline>
	<anchor name="UCtop" x="785" y="1340"/>
	<anchor name="bottom" x="25" y="-510"/>
</glyph>
<glyph name="g" format="2">
	<unicode hex="0067"/>
	<advance width="793"/>
	<outline>
		<contour>
			<point x="818" y="725" type="curve" smooth="yes"/>
			<point x="863" y="725"/>
			<point x="906" y="763"/>
			<point x="906" y="824" type="curve" smooth="yes"/>
			<point x="906" y="856"/>
			<point x="888" y="872"/>
			<point x="854" y="872" type="curve" smooth="yes"/>
			<point x="772" y="872"/>
			<point x="695" y="835"/>
			<point x="542" y="860" type="curve"/>
			<point x="565" y="813" type="line"/>
			<point x="738" y="813"/>
			<point x="749" y="725"/>
		</contour>
		<contour>
			<point x="330" y="302" type="curve"/>
			<point x="271" y="302"/>
			<point x="237" y="341"/>
			<point x="237" y="434" type="curve" smooth="yes"/>
			<point x="237" y="653"/>
			<point x="358" y="810"/>
			<point x="474" y="810" type="curve"/>
			<point x="533" y="810"/>
			<point x="567" y="771"/>
			<point x="567" y="678" type="curve" smooth="yes"/>
			<point x="567" y="459"/>
			<point x="446" y="302"/>
		</contour>
		<contour>
			<point x="486" y="872" type="curve"/>
			<point x="279" y="872"/>
			<point x="102" y="685"/>
			<point x="102" y="471" type="curve" smooth="yes"/>
			<point x="102" y="332"/>
			<point x="181" y="240"/>
			<point x="318" y="240" type="curve"/>
			<point x="525" y="240"/>
			<point x="702" y="427"/>
			<point x="702" y="641" type="curve" smooth="yes"/>
			<point x="702" y="780"/>
			<point x="623" y="872"/>
		</contour>
		<contour>
			<point x="302" y="-530" type="curve" smooth="yes"/>
			<point x="542" y="-530"/>
			<point x="695" y="-415"/>
			<point x="695" y="-257" type="curve" smooth="yes"/>
			<point x="695" y="-136"/>
			<point x="626" y="-57"/>
			<point x="386" y="26" type="curve" smooth="yes"/>
			<point x="225" y="81"/>
			<point x="195" y="117"/>
			<point x="195" y="161" type="curve" smooth="yes"/>
			<point x="195" y="203"/>
			<point x="239" y="244"/>
			<point x="323" y="257" type="curve"/>
			<point x="279" y="278" type="line"/>
			<point x="154" y="241"/>
			<point x="80" y="175"/>
			<point x="80" y="93" type="curve" smooth="yes"/>
			<point x="80" y="29"/>
			<point x="111" y="-42"/>
			<point x="251" y="-82" type="curve" smooth="yes"/>
			<point x="465" y="-143"/>
			<point x="573" y="-189"/>
			<point x="573" y="-299" type="curve" smooth="yes"/>
			<point x="573" y="-385"/>
			<point x="488" y="-467"/>
			<point x="303" y="-467" type="curve" smooth="yes"/>
			<point x="121" y="-467"/>
			<point x="23" y="-395"/>
			<point x="23" y="-281" type="curve" smooth="yes"/>
			<point x="23" y="-170"/>
			<point x="153" y="-94"/>
			<point x="351" y="-87" type="curve"/>
			<point x="351" y="-63" type="line"/>
			<point x="266" y="-63" type="line"/>
			<point x="20" y="-94"/>
			<point x="-106" y="-171"/>
			<point x="-106" y="-298" type="curve" smooth="yes"/>
			<point x="-106" y="-448"/>
			<point x="48" y="-530"/>
		</contour>
	</outline>
	<anchor name="top" x="470" y="852"/>
	<anchor name="bottom" x="268" y="-530"/>
</glyph>
<glyph name="i" format="2">
	<unicode hex="0069"/>
	<advance width="535"/>
	<outline>
		<contour>
			<point x="65" y="35" type="line" smooth="yes"/>
			<point x="52" y="-1"/>
			<point x="76" y="-20"/>
			<point x="150" y="-20" type="curve" smooth="yes"/>
			<point x="239" y="-20"/>
			<point x="341" y="30"/>
			<point x="482" y="195" type="curve"/>
			<point x="454" y="227" type="line"/>
			<point x="366" y="146"/>
			<point x="264" y="101"/>
			<point x="199" y="109" type="curve"/>
			<point x="216" y="71" type="line"/>
			<point x="476" y="817" type="line" smooth="yes"/>
			<point x="488" y="851"/>
			<point x="461" y="872"/>
			<point x="410" y="872" type="curve" smooth="yes"/>
			<point x="319" y="872"/>
			<point x="219" y="823"/>
			<point x="81" y="627" type="curve"/>
			<point x="111" y="598" type="line"/>
			<point x="191" y="687"/>
			<point x="289" y="741"/>
			<point x="354" y="739" type="curve"/>
			<point x="325" y="761" type="line"/>
		</contour>
		<contour>
			<point x="399" y="1300" type="curve" smooth="yes"/>
			<point x="399" y="1236"/>
			<point x="445" y="1187"/>
			<point x="513" y="1187" type="curve" smooth="yes"/>
			<point x="581" y="1187"/>
			<point x="627" y="1236"/>
			<point x="627" y="1300" type="curve" smooth="yes"/>
			<point x="627" y="1364"/>
			<point x="581" y="1413"/>
			<point x="513" y="1413" type="curve" smooth="yes"/>
			<point x="445" y="1413"/>
			<point x="399" y="1364"/>
		</contour>
	</outline>
	<anchor name="top" x="547" y="1399"/>
	<anchor name="bottom" x="134" y="0"/>
	<anchor name="right" x="147" y="0"/>
</glyph>
<glyph name="j" format="2">
  <advance width="481"/>
  <unicode hex="006A"/>
  <anchor x="517.0" y="1399" name="top"/>
  <anchor x="-54.0" y="-510" name="bottom"/>
  <outline>
    <contour>
      <point x="379.0" y="1300.0" type="curve" smooth="yes"/>
      <point x="379.0" y="1236.0"/>
      <point x="425.0" y="1187.0"/>
      <point x="493.0" y="1187.0" type="curve" smooth="yes"/>
      <point x="561.0" y="1187.0"/>
      <point x="607.0" y="1236.0"/>
      <point x="607.0" y="1300.0" type="curve" smooth="yes"/>
      <point x="607.0" y="1364.0"/>
      <point x="561.0" y="1413.0"/>
      <point x="493.0" y="1413.0" type="curve" smooth="yes"/>
      <point x="425.0" y="1413.0"/>
      <point x="379.0" y="1364.0"/>
    </contour>
    <contour>
      <point x="217" y="15" type="curve" smooth="yes"/>
      <point x="456" y="817" type="line" smooth="yes"/>
      <point x="466" y="852"/>
      <point x="441" y="872"/>
      <point x="390" y="872" type="curve" smooth="yes"/>
      <point x="286" y="872"/>
      <point x="184" y="802"/>
      <point x="61" y="627" type="curve"/>
      <point x="91" y="598" type="line"/>
      <point x="171" y="687"/>
      <point x="269" y="741"/>
      <point x="334" y="739" type="curve"/>
      <point x="305" y="761" type="line"/>
      <point x="62" y="-48" type="line" smooth="yes"/>
      <point x="-28" y="-347"/>
      <point x="-117" y="-423"/>
      <point x="-212" y="-423" type="curve" smooth="yes"/>
      <point x="-246.0" y="-423.0"/>
      <point x="-278" y="-406"/>
      <point x="-309" y="-373" type="curve" smooth="yes"/>
      <point x="-340.0" y="-340.0"/>
      <point x="-354.0" y="-329.0"/>
      <point x="-366" y="-329" type="curve" smooth="yes"/>
      <point x="-408" y="-329"/>
      <point x="-446" y="-368"/>
      <point x="-446" y="-421" type="curve" smooth="yes"/>
      <point x="-446" y="-481"/>
      <point x="-400" y="-530"/>
      <point x="-313" y="-530" type="curve" smooth="yes"/>
      <point x="-121" y="-530"/>
      <point x="113" y="-334"/>
    </contour>
  </outline>
</glyph>
<glyph name="k" format="2">
	<unicode hex="006B"/>
	<advance width="900"/>
	<outline>
		<contour>
			<point x="573" y="1419" type="line"/>
			<point x="550" y="1419" type="line"/>
			<point x="281" y="1371" type="line"/>
			<point x="273" y="1346" type="line"/>
			<point x="330" y="1325"/>
			<point x="359" y="1303"/>
			<point x="395" y="1269" type="curve"/>
			<point x="13" y="0" type="line"/>
			<point x="146" y="0" type="line"/>
		</contour>
		<contour>
			<point x="284" y="476" type="line"/>
			<point x="452" y="29"/>
			<point x="486" y="-20"/>
			<point x="567" y="-20" type="curve" smooth="yes"/>
			<point x="646" y="-20"/>
			<point x="724" y="41"/>
			<point x="850" y="209" type="curve"/>
			<point x="818" y="238" type="line"/>
			<point x="747" y="151"/>
			<point x="668" y="92"/>
			<point x="626" y="92" type="curve" smooth="yes"/>
			<point x="580" y="92"/>
			<point x="552" y="127"/>
			<point x="391" y="543" type="curve"/>
			<point x="364" y="487" type="line"/>
			<point x="485" y="621"/>
			<point x="650" y="736"/>
			<point x="712" y="736" type="curve" smooth="yes"/>
			<point x="730" y="736"/>
			<point x="743" y="725"/>
			<point x="761" y="693" type="curve" smooth="yes"/>
			<point x="779" y="661"/>
			<point x="789" y="648"/>
			<point x="807" y="648" type="curve" smooth="yes"/>
			<point x="874" y="648"/>
			<point x="930" y="698"/>
			<point x="930" y="768" type="curve" smooth="yes"/>
			<point x="930" y="824"/>
			<point x="890" y="872"/>
			<point x="826" y="872" type="curve" smooth="yes"/>
			<point x="708" y="872"/>
			<point x="603" y="804"/>
			<point x="289" y="492" type="curve"/>
		</contour>
	</outline>
	<anchor name="UCtop" x="780" y="1470"/>
	<anchor name="bottom" x="358" y="0"/>
</glyph>
<glyph name="l" format="2">
	<unicode hex="006C"/>
	<advance width="490"/>
	<outline>
		<contour>
			<point x="404" y="1268" type="curve"/>
			<point x="33" y="35" type="line" smooth="yes"/>
			<point x="21" y="-4"/>
			<point x="55" y="-20"/>
			<point x="118" y="-20" type="curve" smooth="yes"/>
			<point x="207" y="-20"/>
			<point x="309" y="30"/>
			<point x="450" y="195" type="curve"/>
			<point x="422" y="227" type="line"/>
			<point x="334" y="146"/>
			<point x="232" y="101"/>
			<point x="167" y="109" type="curve"/>
			<point x="179" y="81" type="line"/>
			<point x="582" y="1419" type="line"/>
			<point x="559" y="1419" type="line"/>
			<point x="290" y="1370" type="line"/>
			<point x="282" y="1345" type="line"/>
			<point x="339" y="1324"/>
			<point x="368" y="1302"/>
		</contour>
	</outline>
	<anchor name="UCtop" x="495" y="1470"/>
	<anchor name="bottom" x="76" y="0"/>
	<anchor name="right" x="608" y="1399"/>
	<anchor name="mid" x="540" y="546"/>
</glyph>
<glyph name="m" format="2">
  <advance width="1445"/>
  <unicode hex="006D"/>
  <anchor x="868" y="852.0" name="top"/>
  <anchor x="608" y="0" name="bottom"/>
  <outline>
    <contour>
      <point x="1125.0" y="71.0" type="line"/>
      <point x="1319.0" y="584.0" type="line" smooth="yes"/>
      <point x="1347.0" y="658.0"/>
      <point x="1361.0" y="715.0"/>
      <point x="1361.0" y="759.0" type="curve" smooth="yes"/>
      <point x="1361.0" y="829.0"/>
      <point x="1323.0" y="873.0"/>
      <point x="1217.0" y="873.0" type="curve" smooth="yes"/>
      <point x="1103.0" y="873.0"/>
      <point x="982.0" y="788.0"/>
      <point x="834.0" y="537.0" type="curve"/>
      <point x="842.0" y="537.0" type="line"/>
      <point x="857.0" y="586.0" type="line" smooth="yes"/>
      <point x="881.0" y="663.0"/>
      <point x="897.0" y="720.0"/>
      <point x="897.0" y="764.0" type="curve" smooth="yes"/>
      <point x="897.0" y="829.0"/>
      <point x="857.0" y="872.0"/>
      <point x="751.0" y="872.0" type="curve" smooth="yes"/>
      <point x="634.0" y="872.0"/>
      <point x="523.0" y="792.0"/>
      <point x="348.0" y="490.0" type="curve"/>
      <point x="355.0" y="490.0" type="line"/>
      <point x="467.0" y="852.0" type="line"/>
      <point x="431.0" y="864.0"/>
      <point x="394.0" y="871.0"/>
      <point x="356.0" y="871.0" type="curve" smooth="yes"/>
      <point x="247.0" y="871.0"/>
      <point x="137.0" y="808.0"/>
      <point x="56.0" y="597.0" type="curve"/>
      <point x="92.0" y="582.0" type="line"/>
      <point x="163.0" y="711.0"/>
      <point x="228.0" y="746.0"/>
      <point x="300.0" y="746.0" type="curve" smooth="yes"/>
      <point x="305.0" y="746.0"/>
      <point x="310.0" y="746.0"/>
      <point x="315.0" y="746.0" type="curve"/>
      <point x="89.0" y="0.0" type="line"/>
      <point x="224.0" y="0.0" type="line"/>
      <point x="295.0" y="233.0" type="line" smooth="yes"/>
      <point x="382.0" y="519.0"/>
      <point x="559.0" y="750.0"/>
      <point x="686.0" y="750.0" type="curve" smooth="yes"/>
      <point x="736.0" y="750.0"/>
      <point x="755.0" y="729.0"/>
      <point x="755.0" y="695.0" type="curve" smooth="yes"/>
      <point x="755.0" y="675.0"/>
      <point x="748.0" y="650.0"/>
      <point x="739.0" y="622.0" type="curve" smooth="yes"/>
      <point x="535.0" y="0.0" type="line"/>
      <point x="672.0" y="0.0" type="line"/>
      <point x="756.0" y="267.0" type="line"/>
      <point x="851.0" y="537.0"/>
      <point x="1029.0" y="750.0"/>
      <point x="1148.0" y="750.0" type="curve" smooth="yes"/>
      <point x="1201.0" y="750.0"/>
      <point x="1220.0" y="729.0"/>
      <point x="1220.0" y="695.0" type="curve" smooth="yes"/>
      <point x="1220.0" y="674.0"/>
      <point x="1214.0" y="650.0"/>
      <point x="1203.0" y="622.0" type="curve" smooth="yes"/>
      <point x="991.0" y="73.0" type="line" smooth="yes"/>
      <point x="962.0" y="-2.0"/>
      <point x="975.0" y="-20.0"/>
      <point x="1062.0" y="-20.0" type="curve" smooth="yes"/>
      <point x="1151.0" y="-20.0"/>
      <point x="1255.0" y="31.0"/>
      <point x="1396.0" y="196.0" type="curve"/>
      <point x="1366.0" y="227.0" type="line"/>
      <point x="1285.0" y="152.0"/>
      <point x="1192.0" y="108.0"/>
      <point x="1127.0" y="108.0" type="curve"/>
    </contour>
  </outline>
</glyph>
<glyph name="n" format="2">
	<unicode hex="006E"/>
	<advance width="1012"/>
	<outline>
		<contour>
			<point x="92" y="582" type="line"/>
			<point x="163" y="711"/>
			<point x="228" y="746"/>
			<point x="300" y="746" type="curve" smooth="yes"/>
			<point x="305" y="746"/>
			<point x="310" y="746"/>
			<point x="315" y="746" type="curve"/>
			<point x="89" y="0" type="line"/>
			<point x="224" y="0" type="line"/>
			<point x="295" y="233" type="line"/>
			<point x="380" y="512"/>
			<point x="584" y="751"/>
			<point x="713" y="751" type="curve" smooth="yes"/>
			<point x="769" y="751"/>
			<point x="787" y="729"/>
			<point x="787" y="696" type="curve" smooth="yes"/>
			<point x="787" y="673"/>
			<point x="779" y="646"/>
			<point x="768" y="618" type="curve" smooth="yes"/>
			<point x="557" y="73" type="line" smooth="yes"/>
			<point x="528" y="-2"/>
			<point x="541" y="-20"/>
			<point x="628" y="-20" type="curve" smooth="yes"/>
			<point x="717" y="-20"/>
			<point x="821" y="31"/>
			<point x="962" y="196" type="curve"/>
			<point x="932" y="227" type="line"/>
			<point x="851" y="152"/>
			<point x="758" y="108"/>
			<point x="693" y="108" type="curve"/>
			<point x="691" y="71" type="line"/>
			<point x="889" y="586" type="line" smooth="yes"/>
			<point x="912" y="646"/>
			<point x="926" y="698"/>
			<point x="926" y="741" type="curve" smooth="yes"/>
			<point x="926" y="817"/>
			<point x="890" y="869"/>
			<point x="780" y="869" type="curve" smooth="yes"/>
			<point x="614" y="869"/>
			<point x="457" y="670"/>
			<point x="341" y="462" type="curve"/>
			<point x="347" y="462" type="line"/>
			<point x="467" y="852" type="line"/>
			<point x="431" y="864"/>
			<point x="394" y="871"/>
			<point x="356" y="871" type="curve" smooth="yes"/>
			<point x="247" y="871"/>
			<point x="137" y="808"/>
			<point x="56" y="597" type="curve"/>
		</contour>
	</outline>
	<anchor name="top" x="639" y="852"/>
	<anchor name="bottom" x="409" y="0"/>
</glyph>
<glyph name="o" format="2">
	<unicode hex="006F"/>
	<advance width="848"/>
	<outline>
		<contour>
			<point x="527" y="872" type="curve" smooth="yes"/>
			<point x="264" y="872"/>
			<point x="62" y="583"/>
			<point x="62" y="272" type="curve" smooth="yes"/>
			<point x="62" y="87"/>
			<point x="161" y="-20"/>
			<point x="320" y="-20" type="curve" smooth="yes"/>
			<point x="583" y="-20"/>
			<point x="785" y="269"/>
			<point x="785" y="580" type="curve" smooth="yes"/>
			<point x="785" y="765"/>
			<point x="686" y="872"/>
		</contour>
		<contour>
			<point x="322" y="47" type="curve" smooth="yes"/>
			<point x="239" y="47"/>
			<point x="203" y="106"/>
			<point x="203" y="232" type="curve" smooth="yes"/>
			<point x="203" y="493"/>
			<point x="355" y="805"/>
			<point x="525" y="805" type="curve" smooth="yes"/>
			<point x="608" y="805"/>
			<point x="644" y="746"/>
			<point x="644" y="620" type="curve" smooth="yes"/>
			<point x="644" y="359"/>
			<point x="492" y="47"/>
		</contour>
	</outline>
	<anchor name="top" x="533" y="852"/>
	<anchor name="bottom" x="293" y="0"/>
	<anchor name="horn" x="575" y="852"/>
	<anchor name="right" x="275" y="0"/>
</glyph>
<glyph name="p" format="2">
  <advance width="961"/>
  <unicode hex="0070"/>
  <anchor x="596.0" y="852.0" name="top"/>
  <anchor x="38.0" y="-510" name="bottom"/>
  <outline>
    <contour>
      <point x="309.0" y="286.0" type="curve" smooth="yes"/>
      <point x="329.0" y="365.0" type="line" smooth="yes"/>
      <point x="374.0" y="542.0"/>
      <point x="525.0" y="744.0"/>
      <point x="653.0" y="744.0" type="curve" smooth="yes"/>
      <point x="731.0" y="744.0"/>
      <point x="764.0" y="696.0"/>
      <point x="764.0" y="596.0" type="curve" smooth="yes"/>
      <point x="764.0" y="327.0"/>
      <point x="566.0" y="45.0"/>
      <point x="416.0" y="45.0" type="curve" smooth="yes"/>
      <point x="324.0" y="45.0"/>
      <point x="291.0" y="103.0"/>
      <point x="291.0" y="172.0" type="curve" smooth="yes"/>
      <point x="291.0" y="190.0"/>
      <point x="293.0" y="223.0"/>
    </contour>
    <contour>
      <point x="177.0" y="73.0" type="line"/>
      <point x="219.0" y="7.0"/>
      <point x="321.0" y="-20.0"/>
      <point x="402.0" y="-20.0" type="curve" smooth="yes"/>
      <point x="690.0" y="-20.0"/>
      <point x="913.0" y="314.0"/>
      <point x="913.0" y="643.0" type="curve" smooth="yes"/>
      <point x="913.0" y="763.0"/>
      <point x="854.0" y="872.0"/>
      <point x="712.0" y="872.0" type="curve" smooth="yes"/>
      <point x="605.0" y="872.0"/>
      <point x="474.0" y="769.0"/>
      <point x="352.0" y="532.0" type="curve"/>
      <point x="359.0" y="502.0" type="line"/>
      <point x="453.0" y="854.0" type="line"/>
      <point x="418.0" y="865.0"/>
      <point x="381.0" y="873.0"/>
      <point x="345.0" y="873.0" type="curve" smooth="yes"/>
      <point x="240.0" y="873.0"/>
      <point x="135.0" y="809.0"/>
      <point x="54.0" y="597.0" type="curve"/>
      <point x="90.0" y="582.0" type="line"/>
      <point x="160.0" y="711.0"/>
      <point x="225.0" y="746.0"/>
      <point x="298.0" y="746.0" type="curve" smooth="yes"/>
      <point x="300.0" y="746.0"/>
      <point x="302.0" y="746.0"/>
      <point x="304.0" y="746.0" type="curve"/>
      <point x="-17.0" y="-424.0" type="line"/>
      <point x="-166.0" y="-473.0" type="line"/>
      <point x="-180.0" y="-510.0" type="line"/>
      <point x="272.0" y="-510.0" type="line"/>
      <point x="286.0" y="-473.0" type="line"/>
      <point x="116.0" y="-424.0" type="line"/>
      <point x="253.0" y="73.0" type="line"/>
    </contour>
  </outline>
</glyph>
<glyph name="q" format="2">
	<unicode hex="0071"/>
	<advance width="869"/>
	<outline>
		<contour>
			<point x="334" y="-423" type="line"/>
			<point x="140" y="-473" type="line"/>
			<point x="129" y="-510" type="line"/>
			<point x="584" y="-510" type="line"/>
			<point x="595" y="-473" type="line"/>
			<point x="467" y="-424" type="line"/>
			<point x="877" y="852" type="line"/>
			<point x="741" y="852" type="line"/>
			<point x="715" y="770" type="line"/>
			<point x="624" y="487" type="line" smooth="yes"/>
			<point x="553" y="267"/>
			<point x="345" y="103"/>
			<point x="257" y="103" type="curve" smooth="yes"/>
			<point x="208" y="103"/>
			<point x="172" y="130"/>
			<point x="172" y="188" type="curve" smooth="yes"/>
			<point x="172" y="352"/>
			<point x="357" y="783"/>
			<point x="597" y="783" type="curve" smooth="yes"/>
			<point x="654" y="783"/>
			<point x="691" y="752"/>
			<point x="702" y="720" type="curve"/>
			<point x="742" y="774" type="line"/>
			<point x="700" y="828"/>
			<point x="655" y="855"/>
			<point x="578" y="855" type="curve" smooth="yes"/>
			<point x="281" y="855"/>
			<point x="24" y="431"/>
			<point x="24" y="180" type="curve" smooth="yes"/>
			<point x="24" y="39"/>
			<point x="93" y="-17"/>
			<point x="202" y="-17" type="curve" smooth="yes"/>
			<point x="305" y="-17"/>
			<point x="418" y="70"/>
			<point x="618" y="367" type="curve"/>
			<point x="592" y="367" type="line"/>
		</contour>
	</outline>
	<anchor name="top" x="581" y="852"/>
	<anchor name="bottom" x="377" y="-510"/>
</glyph>
<glyph name="r" format="2">
	<unicode hex="0072"/>
	<advance width="743"/>
	<outline>
		<contour>
			<point x="315" y="746" type="curve"/>
			<point x="89" y="0" type="line"/>
			<point x="224" y="0" type="line"/>
			<point x="306" y="269" type="line" smooth="yes"/>
			<point x="386" y="532"/>
			<point x="533" y="738"/>
			<point x="616" y="738" type="curve" smooth="yes"/>
			<point x="637" y="738"/>
			<point x="652" y="724"/>
			<point x="669" y="698" type="curve" smooth="yes"/>
			<point x="686" y="672"/>
			<point x="697" y="664"/>
			<point x="708" y="664" type="curve" smooth="yes"/>
			<point x="770" y="664"/>
			<point x="823" y="709"/>
			<point x="823" y="774" type="curve" smooth="yes"/>
			<point x="823" y="831"/>
			<point x="789" y="872"/>
			<point x="713" y="872" type="curve" smooth="yes"/>
			<point x="593" y="872"/>
			<point x="482" y="760"/>
			<point x="359" y="517" type="curve"/>
			<point x="364" y="517" type="line"/>
			<point x="467" y="852" type="line"/>
			<point x="431" y="864"/>
			<point x="394" y="871"/>
			<point x="356" y="871" type="curve" smooth="yes"/>
			<point x="247" y="871"/>
			<point x="137" y="808"/>
			<point x="56" y="597" type="curve"/>
			<point x="92" y="582" type="line"/>
			<point x="163" y="711"/>
			<point x="228" y="746"/>
			<point x="300" y="746" type="curve" smooth="yes"/>
			<point x="305" y="746"/>
			<point x="310" y="746"/>
		</contour>
	</outline>
	<anchor name="top" x="486" y="852"/>
	<anchor name="bottom" x="160" y="0"/>
</glyph>
<glyph name="t" format="2">
	<unicode hex="0074"/>
	<advance width="598"/>
	<outline>
		<contour>
			<point x="125" y="772" type="line"/>
			<point x="617" y="772" type="line"/>
			<point x="633" y="852" type="line"/>
			<point x="143" y="852" type="line"/>
		</contour>
		<contour>
			<point x="262" y="211" type="curve" smooth="yes"/>
			<point x="495" y="1026" type="line"/>
			<point x="360" y="1026" type="line"/>
			<point x="140" y="236" type="line" smooth="yes"/>
			<point x="123" y="176"/>
			<point x="116" y="129"/>
			<point x="116" y="93" type="curve" smooth="yes"/>
			<point x="116" y="11"/>
			<point x="154" y="-18"/>
			<point x="211" y="-18" type="curve" smooth="yes"/>
			<point x="309" y="-18"/>
			<point x="425" y="106"/>
			<point x="541" y="284" type="curve"/>
			<point x="501" y="310" type="line"/>
			<point x="411" y="190"/>
			<point x="312" y="111"/>
			<point x="271" y="111" type="curve" smooth="yes"/>
			<point x="257" y="111"/>
			<point x="249" y="121"/>
			<point x="249" y="143" type="curve" smooth="yes"/>
			<point x="249" y="159"/>
			<point x="253" y="181"/>
		</contour>
	</outline>
	<anchor name="bottom" x="224" y="0"/>
	<anchor name="right" x="567" y="1318"/>
</glyph>
<glyph name="v" format="2">
  <advance width="885"/>
  <unicode hex="0076"/>
  <anchor x="558.0" y="852.0" name="top"/>
  <anchor x="326.0" y="0" name="bottom"/>
  <outline>
    <contour>
      <point x="851" y="731" type="curve" smooth="yes"/>
      <point x="851" y="822"/>
      <point x="812" y="872"/>
      <point x="740" y="872" type="curve" smooth="yes"/>
      <point x="687" y="872"/>
      <point x="631" y="839"/>
      <point x="631" y="770" type="curve" smooth="yes"/>
      <point x="631" y="741"/>
      <point x="736" y="671"/>
      <point x="736" y="581" type="curve" smooth="yes"/>
      <point x="736" y="432"/>
      <point x="538" y="86"/>
      <point x="348" y="86" type="curve" smooth="yes"/>
      <point x="295" y="86"/>
      <point x="263" y="111"/>
      <point x="263" y="164" type="curve" smooth="yes"/>
      <point x="263" y="183"/>
      <point x="268" y="206"/>
      <point x="277" y="233" type="curve" smooth="yes"/>
      <point x="488" y="852" type="line"/>
      <point x="451" y="864"/>
      <point x="412" y="871"/>
      <point x="372" y="871" type="curve" smooth="yes"/>
      <point x="259" y="871"/>
      <point x="145" y="808"/>
      <point x="61" y="597" type="curve"/>
      <point x="97" y="582" type="line"/>
      <point x="168" y="711"/>
      <point x="233" y="746"/>
      <point x="305" y="746" type="curve" smooth="yes"/>
      <point x="310" y="746"/>
      <point x="315" y="746"/>
      <point x="320" y="746" type="curve"/>
      <point x="137" y="214" type="line" smooth="yes"/>
      <point x="127" y="185"/>
      <point x="122" y="157"/>
      <point x="122" y="132" type="curve" smooth="yes"/>
      <point x="122" y="39"/>
      <point x="189" y="-20"/>
      <point x="295" y="-20" type="curve" smooth="yes"/>
      <point x="590" y="-20"/>
      <point x="851" y="453"/>
    </contour>
  </outline>
</glyph>
<glyph name="x" format="2">
	<unicode hex="0078"/>
	<advance width="913"/>
	<outline>
		<contour>
			<point x="496" y="410" type="line"/>
			<point x="611" y="574" type="line" smooth="yes"/>
			<point x="693" y="692"/>
			<point x="741" y="723"/>
			<point x="781" y="723" type="curve" smooth="yes"/>
			<point x="797" y="723"/>
			<point x="809" y="715"/>
			<point x="826" y="690" type="curve" smooth="yes"/>
			<point x="843" y="665"/>
			<point x="852" y="658"/>
			<point x="868" y="658" type="curve" smooth="yes"/>
			<point x="921" y="658"/>
			<point x="972" y="704"/>
			<point x="972" y="769" type="curve" smooth="yes"/>
			<point x="972" y="825"/>
			<point x="934" y="872"/>
			<point x="863" y="872" type="curve" smooth="yes"/>
			<point x="781" y="872"/>
			<point x="719" y="832"/>
			<point x="637" y="714" type="curve" smooth="yes"/>
			<point x="476" y="483" type="line"/>
			<point x="425" y="452" type="line"/>
			<point x="300" y="278" type="line" smooth="yes"/>
			<point x="215" y="159"/>
			<point x="167" y="129"/>
			<point x="130" y="129" type="curve" smooth="yes"/>
			<point x="114" y="129"/>
			<point x="102" y="137"/>
			<point x="87" y="159" type="curve" smooth="yes"/>
			<point x="72" y="181"/>
			<point x="61" y="194"/>
			<point x="43" y="194" type="curve" smooth="yes"/>
			<point x="-10" y="194"/>
			<point x="-61" y="148"/>
			<point x="-61" y="83" type="curve" smooth="yes"/>
			<point x="-61" y="27"/>
			<point x="-24" y="-20"/>
			<point x="48" y="-20" type="curve" smooth="yes"/>
			<point x="128" y="-20"/>
			<point x="188" y="17"/>
			<point x="274" y="138" type="curve" smooth="yes"/>
			<point x="445" y="379" type="line"/>
		</contour>
		<contour>
			<point x="858" y="331" type="curve"/>
			<point x="813" y="331" type="line"/>
			<point x="707" y="136"/>
			<point x="666" y="104"/>
			<point x="617" y="104" type="curve" smooth="yes"/>
			<point x="600" y="104"/>
			<point x="596" y="108"/>
			<point x="586" y="156" type="curve" smooth="yes"/>
			<point x="450" y="798" type="line" smooth="yes"/>
			<point x="438" y="855"/>
			<point x="417" y="872"/>
			<point x="375" y="872" type="curve" smooth="yes"/>
			<point x="269" y="872"/>
			<point x="182" y="798"/>
			<point x="117" y="536" type="curve"/>
			<point x="162" y="536" type="line"/>
			<point x="215" y="696"/>
			<point x="272" y="747"/>
			<point x="321" y="747" type="curve" smooth="yes"/>
			<point x="334" y="747"/>
			<point x="336" y="742"/>
			<point x="343" y="711" type="curve" smooth="yes"/>
			<point x="485" y="53" type="line" smooth="yes"/>
			<point x="498" y="-5"/>
			<point x="522" y="-20"/>
			<point x="566" y="-20" type="curve" smooth="yes"/>
			<point x="672" y="-20"/>
			<point x="736" y="39"/>
		</contour>
	</outline>
	<anchor name="top" x="585" y="852"/>
	<anchor name="bottom" x="345" y="0"/>
</glyph>
<glyph name="y" format="2">
	<unicode hex="0079"/>
	<advance width="897"/>
	<outline>
		<contour>
			<point x="107" y="513" type="line"/>
			<point x="143" y="685"/>
			<point x="188" y="733"/>
			<point x="234" y="733" type="curve" smooth="yes"/>
			<point x="255" y="733"/>
			<point x="261" y="719"/>
			<point x="283" y="582" type="curve" smooth="yes"/>
			<point x="305" y="445"/>
			<point x="329" y="255"/>
			<point x="378" y="-169" type="curve"/>
			<point x="505" y="-74" type="line"/>
			<point x="449" y="403"/>
			<point x="420" y="639"/>
			<point x="397" y="743" type="curve" smooth="yes"/>
			<point x="374" y="847"/>
			<point x="348" y="872"/>
			<point x="303" y="872" type="curve" smooth="yes"/>
			<point x="180" y="872"/>
			<point x="101" y="791"/>
			<point x="66" y="513" type="curve"/>
		</contour>
		<contour>
			<point x="424" y="-69" type="line"/>
			<point x="302" y="-276"/>
			<point x="155" y="-413"/>
			<point x="82" y="-413" type="curve" smooth="yes"/>
			<point x="52" y="-413"/>
			<point x="22" y="-402"/>
			<point x="-16" y="-364" type="curve" smooth="yes"/>
			<point x="-54" y="-326"/>
			<point x="-63" y="-319"/>
			<point x="-75" y="-319" type="curve" smooth="yes"/>
			<point x="-121" y="-319"/>
			<point x="-156" y="-358"/>
			<point x="-156" y="-412" type="curve" smooth="yes"/>
			<point x="-156" y="-483"/>
			<point x="-116" y="-530"/>
			<point x="-18" y="-530" type="curve" smooth="yes"/>
			<point x="151" y="-530"/>
			<point x="306" y="-410"/>
			<point x="556" y="2" type="curve" smooth="yes"/>
			<point x="806" y="414"/>
			<point x="887" y="651"/>
			<point x="887" y="825" type="curve" smooth="yes"/>
			<point x="887" y="858"/>
			<point x="869" y="872"/>
			<point x="834" y="872" type="curve" smooth="yes"/>
			<point x="802" y="872"/>
			<point x="769" y="868"/>
			<point x="727" y="854" type="curve"/>
			<point x="729" y="492"/>
			<point x="672" y="296"/>
			<point x="457" y="-33" type="curve"/>
		</contour>
	</outline>
	<anchor name="top" x="515" y="852"/>
	<anchor name="bottom" x="661" y="-156"/>
</glyph>
<glyph name="z" format="2">
	<unicode hex="007A"/>
	<advance width="785"/>
	<outline>
		<contour>
			<point x="-19" y="19" type="line"/>
			<point x="39" y="-20" type="line"/>
			<point x="827" y="846" type="line"/>
			<point x="775" y="892" type="line"/>
		</contour>
		<contour>
			<point x="137" y="577" type="line"/>
			<point x="236" y="734"/>
			<point x="264" y="745"/>
			<point x="398" y="709" type="curve" smooth="yes"/>
			<point x="630" y="646" type="line"/>
			<point x="723" y="767" type="line"/>
			<point x="413" y="849" type="line" smooth="yes"/>
			<point x="276" y="885"/>
			<point x="204" y="857"/>
			<point x="94" y="595" type="curve"/>
		</contour>
		<contour>
			<point x="407" y="-3" type="line" smooth="yes"/>
			<point x="506" y="-47"/>
			<point x="561" y="-30"/>
			<point x="728" y="213" type="curve"/>
			<point x="691" y="241" type="line"/>
			<point x="569" y="93"/>
			<point x="540" y="83"/>
			<point x="433" y="138" type="curve" smooth="yes"/>
			<point x="242" y="236" type="line"/>
			<point x="136" y="116" type="line"/>
		</contour>
	</outline>
	<anchor name="top" x="474" y="852"/>
	<anchor name="bottom" x="325" y="0"/>
</glyph>
<glyph name="braceleft" format="2">
	<unicode hex="007B"/>
	<advance width="609"/>
	<outline>
		<contour>
			<point x="66" y="534" type="line"/>
			<point x="155" y="531" type="line" smooth="yes"/>
			<point x="225" y="529"/>
			<point x="262" y="503"/>
			<point x="262" y="448" type="curve" smooth="yes"/>
			<point x="262" y="347"/>
			<point x="117" y="71"/>
			<point x="117" y="-48" type="curve" smooth="yes"/>
			<point x="117" y="-154"/>
			<point x="183" y="-242"/>
			<point x="301" y="-264" type="curve" smooth="yes"/>
			<point x="343" y="-272" type="line"/>
			<point x="364" y="-226" type="line"/>
			<point x="336" y="-218" type="line" smooth="yes"/>
			<point x="268" y="-199"/>
			<point x="242" y="-149"/>
			<point x="242" y="-86" type="curve" smooth="yes"/>
			<point x="242" y="25"/>
			<point x="369" y="304"/>
			<point x="369" y="408" type="curve" smooth="yes"/>
			<point x="369" y="480"/>
			<point x="330" y="545"/>
			<point x="239" y="575" type="curve"/>
			<point x="233" y="555" type="line"/>
			<point x="367" y="592"/>
			<point x="450" y="696"/>
			<point x="474" y="784" type="curve" smooth="yes"/>
			<point x="510" y="922"/>
			<point x="513" y="1038"/>
			<point x="542" y="1146" type="curve" smooth="yes"/>
			<point x="569" y="1248"/>
			<point x="619" y="1330"/>
			<point x="752" y="1341" type="curve" smooth="yes"/>
			<point x="845" y="1349" type="line"/>
			<point x="857" y="1410" type="line"/>
			<point x="746" y="1402" type="line" smooth="yes"/>
			<point x="555" y="1388"/>
			<point x="433" y="1260"/>
			<point x="394" y="1114" type="curve" smooth="yes"/>
			<point x="363" y="996"/>
			<point x="379" y="897"/>
			<point x="336" y="733" type="curve" smooth="yes"/>
			<point x="313" y="649"/>
			<point x="264" y="610"/>
			<point x="174" y="607" type="curve" smooth="yes"/>
			<point x="87" y="604" type="line"/>
		</contour>
	</outline>
</glyph>
<glyph name="bar" format="2">
	<unicode hex="007C"/>
	<advance width="483"/>
	<outline>
		<contour>
			<point x="-92" y="-530" type="line"/>
			<point x="12" y="-530" type="line"/>
			<point x="600" y="1470" type="line"/>
			<point x="496" y="1470" type="line"/>
		</contour>
	</outline>
</glyph>
<glyph name="braceright" format="2">
	<unicode hex="007D"/>
	<advance width="608"/>
	<outline>
		<contour>
			<point x="629" y="604" type="line"/>
			<point x="540" y="607" type="line" smooth="yes"/>
			<point x="470" y="609"/>
			<point x="433" y="635"/>
			<point x="433" y="690" type="curve" smooth="yes"/>
			<point x="433" y="791"/>
			<point x="578" y="1067"/>
			<point x="578" y="1186" type="curve" smooth="yes"/>
			<point x="578" y="1292"/>
			<point x="512" y="1380"/>
			<point x="394" y="1402" type="curve" smooth="yes"/>
			<point x="352" y="1410" type="line"/>
			<point x="331" y="1364" type="line"/>
			<point x="359" y="1356" type="line" smooth="yes"/>
			<point x="427" y="1337"/>
			<point x="453" y="1287"/>
			<point x="453" y="1224" type="curve" smooth="yes"/>
			<point x="453" y="1113"/>
			<point x="326" y="834"/>
			<point x="326" y="730" type="curve" smooth="yes"/>
			<point x="326" y="658"/>
			<point x="365" y="593"/>
			<point x="456" y="563" type="curve"/>
			<point x="462" y="583" type="line"/>
			<point x="328" y="546"/>
			<point x="245" y="442"/>
			<point x="221" y="354" type="curve" smooth="yes"/>
			<point x="185" y="216"/>
			<point x="182" y="100"/>
			<point x="153" y="-8" type="curve" smooth="yes"/>
			<point x="126" y="-110"/>
			<point x="76" y="-192"/>
			<point x="-57" y="-203" type="curve" smooth="yes"/>
			<point x="-150" y="-211" type="line"/>
			<point x="-162" y="-272" type="line"/>
			<point x="-51" y="-264" type="line" smooth="yes"/>
			<point x="140" y="-250"/>
			<point x="262" y="-122"/>
			<point x="301" y="24" type="curve" smooth="yes"/>
			<point x="332" y="142"/>
			<point x="316" y="241"/>
			<point x="359" y="405" type="curve" smooth="yes"/>
			<point x="382" y="489"/>
			<point x="431" y="528"/>
			<point x="521" y="531" type="curve" smooth="yes"/>
			<point x="608" y="534" type="line"/>
		</contour>
	</outline>
</glyph>
<glyph name="asciitilde" format="2">
	<unicode hex="007E"/>
	<advance width="1000"/>
	<outline>
		<contour>
			<point x="893" y="537" type="curve"/>
			<point x="805" y="537" type="line"/>
			<point x="774" y="452"/>
			<point x="732" y="411"/>
			<point x="663" y="411" type="curve" smooth="yes"/>
			<point x="541" y="411"/>
			<point x="498" y="544"/>
			<point x="361" y="544" type="curve" smooth="yes"/>
			<point x="261" y="544"/>
			<point x="165" y="499"/>
			<point x="113" y="335" type="curve"/>
			<point x="201" y="335" type="line"/>
			<point x="232" y="420"/>
			<point x="274" y="461"/>
			<point x="343" y="461" type="curve" smooth="yes"/>
			<point x="465" y="461"/>
			<point x="508" y="328"/>
			<point x="645" y="328" type="curve" smooth="yes"/>
			<point x="745" y="328"/>
			<point x="841" y="373"/>
		</contour>
	</outline>
</glyph>
<glyph name="exclamdown" format="2">
	<unicode hex="00A1"/>
	<advance width="469"/>
	<outline>
		<contour>
			<point x="-119" y="-470" type="line" smooth="yes"/>
			<point x="-129" y="-500"/>
			<point x="-104" y="-505"/>
			<point x="-47" y="-505" type="curve" smooth="yes"/>
			<point x="8" y="-505"/>
			<point x="30" y="-501"/>
			<point x="38" y="-473" type="curve" smooth="yes"/>
			<point x="85" y="-306" type="line" smooth="yes"/>
			<point x="124" y="-171"/>
			<point x="176" y="100"/>
			<point x="270" y="452" type="curve"/>
			<point x="213" y="452" type="line"/>
			<point x="92" y="100"/>
			<point x="-21" y="-171"/>
			<point x="-65" y="-306" type="curve" smooth="yes"/>
		</contour>
		<contour>
			<point x="317" y="624" type="curve" smooth="yes"/>
			<point x="398" y="624"/>
			<point x="456" y="688"/>
			<point x="456" y="762" type="curve" smooth="yes"/>
			<point x="456" y="818"/>
			<point x="413" y="862"/>
			<point x="349" y="862" type="curve" smooth="yes"/>
			<point x="268" y="862"/>
			<point x="210" y="798"/>
			<point x="210" y="724" type="curve" smooth="yes"/>
			<point x="210" y="668"/>
			<point x="253" y="624"/>
		</contour>
	</outline>
</glyph>
<glyph name="currency" format="2">
	<unicode hex="00A4"/>
	<advance width="829"/>
	<outline>
		<contour>
			<point x="194" y="700" type="line"/>
			<point x="269" y="587" type="line"/>
			<point x="333" y="637" type="line"/>
			<point x="259" y="748" type="line"/>
		</contour>
		<contour>
			<point x="687" y="731" type="line"/>
			<point x="577" y="633" type="line"/>
			<point x="626" y="575" type="line"/>
			<point x="736" y="673" type="line"/>
		</contour>
		<contour>
			<point x="640" y="172" type="line"/>
			<point x="565" y="285" type="line"/>
			<point x="501" y="235" type="line"/>
			<point x="575" y="124" type="line"/>
		</contour>
		<contour>
			<point x="98" y="199" type="line"/>
			<point x="147" y="141" type="line"/>
			<point x="257" y="239" type="line"/>
			<point x="208" y="297" type="line"/>
		</contour>
		<contour>
			<point x="465" y="703" type="curve" smooth="yes"/>
			<point x="271" y="703"/>
			<point x="143" y="550"/>
			<point x="143" y="386" type="curve" smooth="yes"/>
			<point x="143" y="260"/>
			<point x="234" y="169"/>
			<point x="369" y="169" type="curve" smooth="yes"/>
			<point x="563" y="169"/>
			<point x="691" y="322"/>
			<point x="691" y="486" type="curve" smooth="yes"/>
			<point x="691" y="612"/>
			<point x="600" y="703"/>
		</contour>
		<contour>
			<point x="378" y="247" type="curve" smooth="yes"/>
			<point x="282" y="247"/>
			<point x="227" y="307"/>
			<point x="227" y="397" type="curve" smooth="yes"/>
			<point x="227" y="520"/>
			<point x="318" y="625"/>
			<point x="456" y="625" type="curve" smooth="yes"/>
			<point x="552" y="625"/>
			<point x="607" y="565"/>
			<point x="607" y="475" type="curve" smooth="yes"/>
			<point x="607" y="352"/>
			<point x="516" y="247"/>
		</contour>
	</outline>
</glyph>
<glyph name="brokenbar" format="2">
	<unicode hex="00A6"/>
	<advance width="483"/>
	<outline>
		<contour>
			<point x="363" y="660" type="line"/>
			<point x="601" y="1470" type="line"/>
			<point x="497" y="1470" type="line"/>
			<point x="259" y="660" type="line"/>
		</contour>
		<contour>
			<point x="-91" y="-530" type="line"/>
			<point x="13" y="-530" type="line"/>
			<point x="251" y="280" type="line"/>
			<point x="147" y="280" type="line"/>
		</contour>
	</outline>
</glyph>
<glyph name="section" format="2">
	<unicode hex="00A7"/>
	<advance width="965"/>
	<outline>
		<contour>
			<point x="548" y="809" type="curve"/>
			<point x="520" y="870" type="line"/>
			<point x="252" y="831"/>
			<point x="120" y="693"/>
			<point x="120" y="520" type="curve" smooth="yes"/>
			<point x="120" y="224"/>
			<point x="536" y="221"/>
			<point x="536" y="-9" type="curve" smooth="yes"/>
			<point x="536" y="-112"/>
			<point x="458" y="-204"/>
			<point x="333" y="-204" type="curve" smooth="yes"/>
			<point x="121" y="-204"/>
			<point x="150" y="-37"/>
			<point x="50" y="-37" type="curve" smooth="yes"/>
			<point x="6" y="-37"/>
			<point x="-31" y="-70"/>
			<point x="-31" y="-126" type="curve" smooth="yes"/>
			<point x="-31" y="-217"/>
			<point x="90" y="-275"/>
			<point x="272" y="-275" type="curve" smooth="yes"/>
			<point x="517" y="-275"/>
			<point x="662" y="-135"/>
			<point x="662" y="51" type="curve" smooth="yes"/>
			<point x="662" y="344"/>
			<point x="240" y="339"/>
			<point x="240" y="571" type="curve" smooth="yes"/>
			<point x="240" y="687"/>
			<point x="328" y="795"/>
		</contour>
		<contour>
			<point x="792" y="550" type="curve" smooth="yes"/>
			<point x="792" y="414"/>
			<point x="684" y="313"/>
			<point x="489" y="301" type="curve"/>
			<point x="517" y="239" type="line"/>
			<point x="774" y="263"/>
			<point x="919" y="396"/>
			<point x="919" y="582" type="curve" smooth="yes"/>
			<point x="919" y="865"/>
			<point x="495" y="871"/>
			<point x="495" y="1100" type="curve" smooth="yes"/>
			<point x="495" y="1200"/>
			<point x="572" y="1286"/>
			<point x="721" y="1286" type="curve" smooth="yes"/>
			<point x="897" y="1286"/>
			<point x="864" y="1117"/>
			<point x="973" y="1117" type="curve" smooth="yes"/>
			<point x="1020" y="1117"/>
			<point x="1062" y="1154"/>
			<point x="1062" y="1203" type="curve" smooth="yes"/>
			<point x="1062" y="1273"/>
			<point x="980" y="1360"/>
			<point x="769" y="1360" type="curve" smooth="yes"/>
			<point x="499" y="1360"/>
			<point x="375" y="1223"/>
			<point x="375" y="1054" type="curve" smooth="yes"/>
			<point x="375" y="766"/>
			<point x="792" y="770"/>
		</contour>
	</outline>
</glyph>
<glyph name="copyright" format="2">
	<unicode hex="00A9"/>
	<advance width="1653"/>
	<outline>
		<contour>
			<point x="892" y="348" type="curve" smooth="yes"/>
			<point x="724" y="348"/>
			<point x="649" y="442"/>
			<point x="649" y="599" type="curve" smooth="yes"/>
			<point x="649" y="797"/>
			<point x="756" y="1000"/>
			<point x="1002" y="1000" type="curve" smooth="yes"/>
			<point x="1070" y="1000"/>
			<point x="1143" y="984"/>
			<point x="1184" y="956" type="curve"/>
			<point x="1139" y="994" type="line"/>
			<point x="1192" y="797" type="line"/>
			<point x="1223" y="797" type="line"/>
			<point x="1271" y="1093" type="line"/>
			<point x="1261" y="1093" type="line"/>
			<point x="1159" y="1041" type="line"/>
			<point x="1207" y="1046" type="line"/>
			<point x="1160" y="1057"/>
			<point x="1076" y="1065"/>
			<point x="1017" y="1065" type="curve" smooth="yes"/>
			<point x="707" y="1065"/>
			<point x="512" y="850"/>
			<point x="512" y="605" type="curve" smooth="yes"/>
			<point x="512" y="410"/>
			<point x="646" y="287"/>
			<point x="879" y="287" type="curve" smooth="yes"/>
			<point x="955" y="287"/>
			<point x="1001" y="298"/>
			<point x="1076" y="322" type="curve"/>
			<point x="1177" y="544" type="line"/>
			<point x="1137" y="544" type="line"/>
			<point x="970" y="343" type="line"/>
			<point x="1042" y="384" type="line"/>
			<point x="972" y="352"/>
			<point x="949" y="348"/>
		</contour>
		<contour>
			<point x="828" y="66" type="curve" smooth="yes"/>
			<point x="509" y="66"/>
			<point x="293" y="270"/>
			<point x="293" y="576" type="curve" smooth="yes"/>
			<point x="293" y="934"/>
			<point x="573" y="1274"/>
			<point x="973" y="1274" type="curve" smooth="yes"/>
			<point x="1292" y="1274"/>
			<point x="1508" y="1070"/>
			<point x="1508" y="764" type="curve" smooth="yes"/>
			<point x="1508" y="406"/>
			<point x="1228" y="66"/>
		</contour>
		<contour>
			<point x="976" y="1360" type="curve" smooth="yes"/>
			<point x="514" y="1360"/>
			<point x="192" y="980"/>
			<point x="192" y="565" type="curve" smooth="yes"/>
			<point x="192" y="208"/>
			<point x="448" y="-20"/>
			<point x="824" y="-20" type="curve" smooth="yes"/>
			<point x="1287" y="-20"/>
			<point x="1609" y="360"/>
			<point x="1609" y="775" type="curve" smooth="yes"/>
			<point x="1609" y="1132"/>
			<point x="1353" y="1360"/>
		</contour>
	</outline>
</glyph>
<glyph name="ordfeminine" format="2">
	<unicode hex="00AA"/>
	<advance width="871"/>
	<outline>
		<contour>
			<point x="164" y="464" type="line"/>
			<point x="744" y="464" type="line"/>
			<point x="771" y="553" type="line"/>
			<point x="192" y="553" type="line"/>
		</contour>
		<contour>
			<point x="605" y="733" type="line" smooth="yes"/>
			<point x="592" y="693"/>
			<point x="615" y="670"/>
			<point x="665" y="670" type="curve" smooth="yes"/>
			<point x="732" y="670"/>
			<point x="798" y="689"/>
			<point x="917" y="809" type="curve"/>
			<point x="894" y="840" type="line"/>
			<point x="812" y="777"/>
			<point x="752" y="761"/>
			<point x="702" y="769" type="curve"/>
			<point x="725" y="739" type="line"/>
			<point x="916" y="1340" type="line"/>
			<point x="904" y="1340" type="line"/>
			<point x="788" y="1340" type="line"/>
			<point x="699" y="1059" type="line" smooth="yes"/>
			<point x="643" y="882"/>
			<point x="501" y="769"/>
			<point x="435" y="769" type="curve" smooth="yes"/>
			<point x="398" y="769"/>
			<point x="381" y="790"/>
			<point x="381" y="835" type="curve" smooth="yes"/>
			<point x="381" y="961"/>
			<point x="504" y="1274"/>
			<point x="677" y="1274" type="curve" smooth="yes"/>
			<point x="719" y="1274"/>
			<point x="740" y="1245"/>
			<point x="754" y="1205" type="curve"/>
			<point x="789" y="1262" type="line"/>
			<point x="769" y="1302"/>
			<point x="737" y="1343"/>
			<point x="667" y="1343" type="curve" smooth="yes"/>
			<point x="453" y="1343"/>
			<point x="250" y="1017"/>
			<point x="250" y="824" type="curve" smooth="yes"/>
			<point x="250" y="715"/>
			<point x="310" y="672"/>
			<point x="392" y="672" type="curve" smooth="yes"/>
			<point x="471" y="672"/>
			<point x="557" y="738"/>
			<point x="709" y="967" type="curve"/>
			<point x="679" y="967" type="line"/>
		</contour>
	</outline>
</glyph>
<glyph name="guillemotleft" format="2">
	<unicode hex="00AB"/>
	<advance width="952"/>
	<outline>
		<contour>
			<point x="235" y="505" type="line"/>
			<point x="180" y="327" type="line"/>
			<point x="607" y="792" type="line"/>
			<point x="571" y="837" type="line"/>
			<point x="71" y="449" type="line"/>
			<point x="60" y="413" type="line"/>
			<point x="323" y="25" type="line"/>
			<point x="372" y="46" type="line"/>
		</contour>
		<contour>
			<point x="615" y="505" type="line"/>
			<point x="560" y="327" type="line"/>
			<point x="987" y="792" type="line"/>
			<point x="951" y="837" type="line"/>
			<point x="451" y="449" type="line"/>
			<point x="440" y="413" type="line"/>
			<point x="703" y="25" type="line"/>
			<point x="752" y="46" type="line"/>
		</contour>
	</outline>
</glyph>
<glyph name="logicalnot" format="2">
  <advance width="1000"/>
  <unicode hex="00AC"/>
  <outline>
    <contour>
      <point x="203.0" y="648.0" type="line"/>
      <point x="177.0" y="564.0" type="line"/>
      <point x="804.0" y="564.0" type="line"/>
      <point x="700.0" y="224.0" type="line"/>
      <point x="787.0" y="224.0" type="line"/>
      <point x="917.0" y="648.0" type="line"/>
    </contour>
  </outline>
</glyph>
<glyph name="registered" format="2">
	<unicode hex="00AE"/>
	<advance width="1103"/>
	<outline>
		<contour>
			<point x="882" y="749" type="line"/>
			<point x="854" y="749"/>
			<point x="846" y="755"/>
			<point x="841" y="799" type="curve" smooth="yes"/>
			<point x="833" y="868" type="line" smooth="yes"/>
			<point x="827" y="924"/>
			<point x="801" y="941"/>
			<point x="748" y="943" type="curve"/>
			<point x="746" y="935" type="line"/>
			<point x="864" y="945"/>
			<point x="916" y="988"/>
			<point x="916" y="1069" type="curve" smooth="yes"/>
			<point x="916" y="1123"/>
			<point x="880" y="1166"/>
			<point x="780" y="1166" type="curve" smooth="yes"/>
			<point x="637" y="1166" type="line"/>
			<point x="627" y="1119" type="line"/>
			<point x="750" y="1119" type="line" smooth="yes"/>
			<point x="803" y="1119"/>
			<point x="822" y="1099"/>
			<point x="822" y="1065" type="curve" smooth="yes"/>
			<point x="822" y="1002"/>
			<point x="783" y="964"/>
			<point x="722" y="964" type="curve" smooth="yes"/>
			<point x="589" y="964" type="line"/>
			<point x="568" y="915" type="line"/>
			<point x="698" y="915" type="line" smooth="yes"/>
			<point x="732" y="915"/>
			<point x="741" y="905"/>
			<point x="746" y="854" type="curve" smooth="yes"/>
			<point x="753" y="778" type="line" smooth="yes"/>
			<point x="759.0344827586" y="717.6551724138"/>
			<point x="777.6666666667" y="711.1666666667"/>
			<point x="871" y="717" type="curve"/>
		</contour>
		<contour>
			<point x="716" y="1166" type="line"/>
			<point x="574" y="1166" type="line"/>
			<point x="566" y="1140" type="line"/>
			<point x="615" y="1122" type="line"/>
			<point x="505" y="763" type="line"/>
			<point x="446" y="745" type="line"/>
			<point x="437" y="717" type="line"/>
			<point x="631" y="717" type="line"/>
			<point x="640" y="745" type="line"/>
			<point x="593" y="763" type="line"/>
		</contour>
		<contour>
			<point x="659" y="573" type="curve" smooth="yes"/>
			<point x="446" y="573"/>
			<point x="342" y="698"/>
			<point x="342" y="884" type="curve" smooth="yes"/>
			<point x="342" y="1095"/>
			<point x="493" y="1293"/>
			<point x="744" y="1293" type="curve" smooth="yes"/>
			<point x="957" y="1293"/>
			<point x="1061" y="1168"/>
			<point x="1061" y="982" type="curve" smooth="yes"/>
			<point x="1061" y="771"/>
			<point x="910" y="573"/>
		</contour>
		<contour>
			<point x="751" y="1360" type="curve" smooth="yes"/>
			<point x="445" y="1360"/>
			<point x="266" y="1118"/>
			<point x="266" y="876" type="curve" smooth="yes"/>
			<point x="266" y="660"/>
			<point x="397" y="506"/>
			<point x="652" y="506" type="curve" smooth="yes"/>
			<point x="958" y="506"/>
			<point x="1137" y="748"/>
			<point x="1137" y="990" type="curve" smooth="yes"/>
			<point x="1137" y="1206"/>
			<point x="1006" y="1360"/>
		</contour>
	</outline>
</glyph>
<glyph name="degree" format="2">
  <advance width="771"/>
  <unicode hex="00B0"/>
  <outline>
    <contour>
      <point x="607.0" y="1350.0" type="curve" smooth="yes"/>
      <point x="403.0" y="1350.0"/>
      <point x="261.0" y="1194.0"/>
      <point x="261.0" y="1000.0" type="curve" smooth="yes"/>
      <point x="261.0" y="856.0"/>
      <point x="369.0" y="750.0"/>
      <point x="531.0" y="750.0" type="curve" smooth="yes"/>
      <point x="735.0" y="750.0"/>
      <point x="877.0" y="906.0"/>
      <point x="877.0" y="1100.0" type="curve" smooth="yes"/>
      <point x="877.0" y="1244.0"/>
      <point x="769.0" y="1350.0"/>
    </contour>
    <contour>
      <point x="541.0" y="824.0" type="curve" smooth="yes"/>
      <point x="416.0" y="824.0"/>
      <point x="344.0" y="898.0"/>
      <point x="344.0" y="1013.0" type="curve" smooth="yes"/>
      <point x="344.0" y="1146.0"/>
      <point x="431.0" y="1276.0"/>
      <point x="597.0" y="1276.0" type="curve" smooth="yes"/>
      <point x="722.0" y="1276.0"/>
      <point x="794.0" y="1202.0"/>
      <point x="794.0" y="1087.0" type="curve" smooth="yes"/>
      <point x="794.0" y="954.0"/>
      <point x="707.0" y="824.0"/>
    </contour>
  </outline>
</glyph>
<glyph name="plusminus" format="2">
	<unicode hex="00B1"/>
	<advance width="1000"/>
	<outline>
		<contour>
			<point x="585" y="852" type="line"/>
			<point x="367" y="138" type="line"/>
			<point x="455" y="138" type="line"/>
			<point x="673" y="852" type="line"/>
		</contour>
		<contour>
			<point x="176" y="537" type="line"/>
			<point x="150" y="453" type="line"/>
			<point x="864" y="453" type="line"/>
			<point x="890" y="537" type="line"/>
		</contour>
		<contour>
			<point x="38" y="84" type="line"/>
			<point x="12" y="0" type="line"/>
			<point x="726" y="0" type="line"/>
			<point x="752" y="84" type="line"/>
		</contour>
	</outline>
</glyph>
<glyph name="uni00B2" format="2">
	<unicode hex="00B2"/>
	<advance width="669"/>
	<outline>
		<contour>
			<point x="548" y="674" type="line"/>
			<point x="645" y="721" type="line"/>
			<point x="301" y="721" type="line"/>
			<point x="293" y="672" type="line"/>
			<point x="475" y="822" type="line" smooth="yes"/>
			<point x="713" y="1018"/>
			<point x="750" y="1088"/>
			<point x="750" y="1185" type="curve" smooth="yes"/>
			<point x="750" y="1287"/>
			<point x="667" y="1354"/>
			<point x="556" y="1354" type="curve" smooth="yes"/>
			<point x="417" y="1354"/>
			<point x="315" y="1269"/>
			<point x="261" y="1100" type="curve"/>
			<point x="298" y="1091" type="line"/>
			<point x="338" y="1196"/>
			<point x="403" y="1234"/>
			<point x="489" y="1234" type="curve" smooth="yes"/>
			<point x="561" y="1234"/>
			<point x="604" y="1190"/>
			<point x="604" y="1121" type="curve" smooth="yes"/>
			<point x="604" y="1049"/>
			<point x="568" y="977"/>
			<point x="417" y="842" type="curve" smooth="yes"/>
			<point x="158" y="609" type="line"/>
			<point x="153" y="592" type="line"/>
			<point x="544" y="592" type="line"/>
			<point x="603" y="570" type="line"/>
			<point x="617" y="570" type="line"/>
			<point x="741" y="842" type="line"/>
			<point x="716" y="842" type="line"/>
		</contour>
	</outline>
</glyph>
<glyph name="uni00B3" format="2">
	<unicode hex="00B3"/>
	<advance width="609"/>
	<outline>
		<contour>
			<point x="356" y="944" type="line"/>
			<point x="397" y="954" type="line" smooth="yes"/>
			<point x="499.5" y="979.625"/>
			<point x="553" y="939"/>
			<point x="553" y="861" type="curve" smooth="yes"/>
			<point x="553" y="738"/>
			<point x="456" y="637"/>
			<point x="359" y="637" type="curve" smooth="yes"/>
			<point x="270" y="637"/>
			<point x="260" y="715"/>
			<point x="198" y="715" type="curve" smooth="yes"/>
			<point x="157" y="715"/>
			<point x="140" y="686"/>
			<point x="140" y="660" type="curve" smooth="yes"/>
			<point x="140" y="620"/>
			<point x="176" y="578"/>
			<point x="297" y="578" type="curve" smooth="yes"/>
			<point x="521" y="578"/>
			<point x="676" y="708"/>
			<point x="676" y="872" type="curve" smooth="yes"/>
			<point x="676" y="964"/>
			<point x="621" y="1018"/>
			<point x="517" y="1018" type="curve"/>
			<point x="504" y="1012" type="line"/>
			<point x="641" y="1053"/>
			<point x="705" y="1133"/>
			<point x="705" y="1215" type="curve" smooth="yes"/>
			<point x="705" y="1301"/>
			<point x="640" y="1354"/>
			<point x="542" y="1354" type="curve" smooth="yes"/>
			<point x="412" y="1354"/>
			<point x="335" y="1270"/>
			<point x="293" y="1138" type="curve"/>
			<point x="327" y="1128" type="line"/>
			<point x="360" y="1218"/>
			<point x="413" y="1256"/>
			<point x="488" y="1256" type="curve" smooth="yes"/>
			<point x="551" y="1256"/>
			<point x="586" y="1221"/>
			<point x="586" y="1167" type="curve" smooth="yes"/>
			<point x="586" y="1097"/>
			<point x="543" y="1038"/>
			<point x="357" y="987" type="curve"/>
		</contour>
	</outline>
</glyph>
<glyph name="uni00B5" format="2">
	<unicode hex="00B5"/>
	<advance width="1050"/>
	<outline>
		<contour>
			<point x="712" y="619" type="line"/>
			<point x="621" y="321"/>
			<point x="425" y="102"/>
			<point x="313" y="102" type="curve" smooth="yes"/>
			<point x="270" y="102"/>
			<point x="253" y="119"/>
			<point x="253" y="150" type="curve" smooth="yes"/>
			<point x="253" y="169"/>
			<point x="259" y="192"/>
			<point x="269" y="220" type="curve" smooth="yes"/>
			<point x="504" y="852" type="line"/>
			<point x="371" y="852" type="line"/>
			<point x="-141" y="-520" type="line"/>
			<point x="-131" y="-520" type="line"/>
			<point x="18" y="-504" type="line"/>
			<point x="166" y="212" type="line"/>
			<point x="145" y="181" type="line"/>
			<point x="108" y="46"/>
			<point x="160" y="-20"/>
			<point x="245" y="-20" type="curve" smooth="yes"/>
			<point x="359" y="-20"/>
			<point x="469" y="44"/>
			<point x="667" y="389" type="curve"/>
			<point x="660" y="389" type="line"/>
			<point x="551" y="35" type="line" smooth="yes"/>
			<point x="540" y="-2"/>
			<point x="562" y="-20"/>
			<point x="636" y="-20" type="curve" smooth="yes"/>
			<point x="725" y="-20"/>
			<point x="827" y="30"/>
			<point x="968" y="195" type="curve"/>
			<point x="940" y="227" type="line"/>
			<point x="852" y="146"/>
			<point x="750" y="101"/>
			<point x="685" y="109" type="curve"/>
			<point x="684" y="80" type="line"/>
			<point x="918" y="852" type="line"/>
			<point x="783" y="852" type="line"/>
		</contour>
	</outline>
</glyph>
<glyph name="paragraph" format="2">
	<unicode hex="00B6"/>
	<advance width="1135"/>
	<outline>
		<contour>
			<point x="451" y="-255" type="line"/>
			<point x="910" y="1246" type="line"/>
			<point x="1072" y="1246" type="line"/>
			<point x="1101" y="1340" type="line"/>
			<point x="847" y="1340" type="line"/>
			<point x="359" y="-255" type="line"/>
		</contour>
		<contour>
			<point x="682" y="-255" type="line"/>
			<point x="1143" y="1255" type="line"/>
			<point x="1308" y="1304" type="line"/>
			<point x="1319" y="1340" type="line"/>
			<point x="1078" y="1340" type="line"/>
			<point x="590" y="-255" type="line"/>
		</contour>
		<contour>
			<point x="916" y="1340" type="line"/>
			<point x="665" y="1340" type="line" smooth="yes"/>
			<point x="354" y="1340"/>
			<point x="229" y="1128"/>
			<point x="229" y="933" type="curve" smooth="yes"/>
			<point x="229" y="758"/>
			<point x="325" y="677"/>
			<point x="516" y="677" type="curve" smooth="yes"/>
			<point x="713" y="677" type="line"/>
		</contour>
	</outline>
</glyph>
<glyph name="uni00B9" format="2">
  <advance width="482"/>
  <unicode hex="00B9"/>
  <outline>
    <contour>
      <point x="280.0" y="653.0" type="line"/>
      <point x="164.0" y="623.0" type="line"/>
      <point x="155.0" y="592.0" type="line"/>
      <point x="483.0" y="592.0" type="line"/>
      <point x="493.0" y="623.0" type="line"/>
      <point x="402.0" y="653.0" type="line"/>
      <point x="614.0" y="1345.0" type="line"/>
      <point x="561.0" y="1345.0" type="line"/>
      <point x="274.0" y="1206.0" type="line"/>
      <point x="273.0" y="1168.0" type="line"/>
      <point x="482.0" y="1222.0" type="line"/>
      <point x="473.0" y="1284.0" type="line"/>
    </contour>
  </outline>
</glyph>
<glyph name="ordmasculine" format="2">
	<unicode hex="00BA"/>
	<advance width="830"/>
	<outline>
		<contour>
			<point x="149" y="464" type="line"/>
			<point x="729" y="464" type="line"/>
			<point x="756" y="553" type="line"/>
			<point x="177" y="553" type="line"/>
		</contour>
		<contour>
			<point x="673" y="1360" type="curve" smooth="yes"/>
			<point x="457" y="1360"/>
			<point x="292" y="1141"/>
			<point x="292" y="901" type="curve" smooth="yes"/>
			<point x="292" y="760"/>
			<point x="366" y="679"/>
			<point x="504" y="679" type="curve" smooth="yes"/>
			<point x="720" y="679"/>
			<point x="885" y="898"/>
			<point x="885" y="1138" type="curve" smooth="yes"/>
			<point x="885" y="1279"/>
			<point x="811" y="1360"/>
		</contour>
		<contour>
			<point x="507" y="742" type="curve" smooth="yes"/>
			<point x="446" y="742"/>
			<point x="423" y="781"/>
			<point x="423" y="870" type="curve" smooth="yes"/>
			<point x="423" y="1067"/>
			<point x="533" y="1297"/>
			<point x="670" y="1297" type="curve" smooth="yes"/>
			<point x="731" y="1297"/>
			<point x="754" y="1258"/>
			<point x="754" y="1169" type="curve" smooth="yes"/>
			<point x="754" y="972"/>
			<point x="644" y="742"/>
		</contour>
	</outline>
</glyph>
<glyph name="guillemotright" format="2">
	<unicode hex="00BB"/>
	<advance width="988"/>
	<outline>
		<contour>
			<point x="351" y="357" type="line"/>
			<point x="406" y="535" type="line"/>
			<point x="-21" y="70" type="line"/>
			<point x="15" y="25" type="line"/>
			<point x="515" y="413" type="line"/>
			<point x="526" y="449" type="line"/>
			<point x="263" y="837" type="line"/>
			<point x="214" y="816" type="line"/>
		</contour>
		<contour>
			<point x="731" y="357" type="line"/>
			<point x="786" y="535" type="line"/>
			<point x="359" y="70" type="line"/>
			<point x="395" y="25" type="line"/>
			<point x="895" y="413" type="line"/>
			<point x="906" y="449" type="line"/>
			<point x="643" y="837" type="line"/>
			<point x="594" y="816" type="line"/>
		</contour>
	</outline>
</glyph>
<glyph name="questiondown" format="2">
  <advance width="836"/>
  <unicode hex="00BF"/>
  <outline>
    <contour>
      <point x="565.0" y="628.0" type="curve" smooth="yes"/>
      <point x="646.0" y="628.0"/>
      <point x="704.0" y="692.0"/>
      <point x="704.0" y="766.0" type="curve" smooth="yes"/>
      <point x="704.0" y="822.0"/>
      <point x="661.0" y="866.0"/>
      <point x="597.0" y="866.0" type="curve" smooth="yes"/>
      <point x="516.0" y="866.0"/>
      <point x="458.0" y="802.0"/>
      <point x="458.0" y="728.0" type="curve" smooth="yes"/>
      <point x="458.0" y="672.0"/>
      <point x="501.0" y="628.0"/>
    </contour>
    <contour>
      <point x="331.0" y="-508.0" type="curve" smooth="yes"/>
      <point x="500.0" y="-508.0"/>
      <point x="548.0" y="-460.0"/>
      <point x="548.0" y="-398.0" type="curve" smooth="yes"/>
      <point x="548.0" y="-358.0"/>
      <point x="521.0" y="-330.0"/>
      <point x="476.0" y="-330.0" type="curve" smooth="yes"/>
      <point x="403.0" y="-330.0"/>
      <point x="377.0" y="-404.0"/>
      <point x="232.0" y="-404.0" type="curve" smooth="yes"/>
      <point x="120.0" y="-404.0"/>
      <point x="45.0" y="-294.0"/>
      <point x="45.0" y="-165.0" type="curve" smooth="yes"/>
      <point x="45.0" y="30.0"/>
      <point x="169.0" y="114.0"/>
      <point x="482.0" y="98.0" type="curve"/>
      <point x="523.0" y="456.0" type="line"/>
      <point x="482.0" y="456.0" type="line"/>
      <point x="377.0" y="113.0" type="line"/>
      <point x="471.0" y="226.0" type="line"/>
      <point x="89.0" y="241.0"/>
      <point x="-35.0" y="96.0"/>
      <point x="-35.0" y="-131.0" type="curve" smooth="yes"/>
      <point x="-35.0" y="-343.0"/>
      <point x="129.0" y="-508.0"/>
    </contour>
  </outline>
</glyph>
<glyph name="AE" format="2">
	<unicode hex="00C6"/>
	<advance width="1870"/>
	<outline>
		<contour>
			<point x="149" y="83" type="line"/>
			<point x="1171" y="1264" type="line"/>
			<point x="1160" y="1270" type="line"/>
			<point x="801" y="86" type="line"/>
			<point x="639" y="38" type="line"/>
			<point x="627" y="0" type="line"/>
			<point x="927" y="0" type="line"/>
			<point x="1333" y="1340" type="line"/>
			<point x="939" y="1340" type="line"/>
			<point x="927" y="1301" type="line"/>
			<point x="1048" y="1254" type="line"/>
			<point x="33" y="83" type="line"/>
			<point x="-131" y="38" type="line"/>
			<point x="-142" y="0" type="line"/>
			<point x="275" y="0" type="line"/>
			<point x="286" y="38" type="line"/>
		</contour>
		<contour>
			<point x="1581" y="-59" type="line"/>
			<point x="1596" y="-59" type="line"/>
			<point x="1795" y="360" type="line"/>
			<point x="1760" y="381" type="line"/>
			<point x="1464" y="68" type="line"/>
			<point x="1543" y="88" type="line"/>
			<point x="859" y="88" type="line"/>
			<point x="830" y="0" type="line"/>
			<point x="1485" y="0" type="line"/>
		</contour>
		<contour>
			<point x="476" y="504" type="line"/>
			<point x="1009" y="504" type="line"/>
			<point x="1036" y="590" type="line"/>
			<point x="504" y="590" type="line"/>
		</contour>
		<contour>
			<point x="1437" y="441" type="line"/>
			<point x="1508" y="441" type="line"/>
			<point x="1588" y="703" type="line"/>
			<point x="1668" y="965" type="line"/>
			<point x="1597" y="965" type="line"/>
			<point x="1509" y="746" type="line"/>
			<point x="1058" y="746" type="line"/>
			<point x="1032" y="660" type="line"/>
			<point x="1483" y="660" type="line"/>
		</contour>
		<contour>
			<point x="1859" y="957" type="line"/>
			<point x="1907" y="957" type="line"/>
			<point x="1976" y="1389" type="line"/>
			<point x="1961" y="1389" type="line"/>
			<point x="1840" y="1340" type="line"/>
			<point x="1240" y="1340" type="line"/>
			<point x="1211" y="1252" type="line"/>
			<point x="1845" y="1252" type="line"/>
			<point x="1804" y="1271" type="line"/>
		</contour>
	</outline>
	<anchor name="UCtop" x="1242" y="1340"/>
	<anchor name="bottom" x="843" y="0"/>
</glyph>
<glyph name="Ccedilla" format="2">
	<unicode hex="00C7"/>
	<advance width="1332"/>
	<outline>
		<contour>
			<point x="1042" y="116" type="line"/>
			<point x="941" y="76"/>
			<point x="848" y="64"/>
			<point x="747" y="64" type="curve" smooth="yes"/>
			<point x="476" y="64"/>
			<point x="320" y="222"/>
			<point x="320" y="531" type="curve" smooth="yes"/>
			<point x="320" y="940"/>
			<point x="595" y="1275"/>
			<point x="1002" y="1275" type="curve" smooth="yes"/>
			<point x="1128" y="1275"/>
			<point x="1206" y="1253"/>
			<point x="1306" y="1186" type="curve"/>
			<point x="1257" y="1230" type="line"/>
			<point x="1315" y="936" type="line"/>
			<point x="1357" y="936" type="line"/>
			<point x="1443" y="1398" type="line"/>
			<point x="1426" y="1398" type="line"/>
			<point x="1281" y="1315" type="line"/>
			<point x="1340" y="1313" type="line"/>
			<point x="1241" y="1350"/>
			<point x="1141" y="1360"/>
			<point x="1037" y="1360" type="curve" smooth="yes"/>
			<point x="541" y="1360"/>
			<point x="156" y="1000"/>
			<point x="156" y="502" type="curve" smooth="yes"/>
			<point x="156" y="180"/>
			<point x="363" y="-20"/>
			<point x="743" y="-20" type="curve" smooth="yes"/>
			<point x="877" y="-20"/>
			<point x="1043" y="10"/>
			<point x="1147" y="54" type="curve"/>
			<point x="1247" y="354" type="line"/>
			<point x="1200" y="354" type="line"/>
			<point x="995" y="80" type="line"/>
		</contour>
		<contour>
			<point x="542" y="-459" type="curve" smooth="yes"/>
			<point x="477" y="-459"/>
			<point x="476" y="-396"/>
			<point x="424" y="-396" type="curve" smooth="yes"/>
			<point x="384" y="-396"/>
			<point x="361" y="-424"/>
			<point x="361" y="-456" type="curve" smooth="yes"/>
			<point x="361" y="-492"/>
			<point x="395" y="-530"/>
			<point x="475" y="-530" type="curve"/>
			<point x="634" y="-530"/>
			<point x="767" y="-420"/>
			<point x="767" y="-281" type="curve" smooth="yes"/>
			<point x="767" y="-213"/>
			<point x="728" y="-151"/>
			<point x="592" y="-126" type="curve"/>
			<point x="558" y="-216" type="line"/>
			<point x="768" y="50" type="line"/>
			<point x="695" y="50" type="line"/>
			<point x="490" y="-211" type="line"/>
			<point x="484" y="-229" type="line"/>
			<point x="619" y="-247"/>
			<point x="667" y="-283"/>
			<point x="667" y="-340" type="curve" smooth="yes"/>
			<point x="667" y="-410"/>
			<point x="617" y="-459"/>
		</contour>
	</outline>
</glyph>
<glyph name="multiply" format="2">
	<unicode hex="00D7"/>
	<advance width="1000"/>
	<outline>
		<contour>
			<point x="111" y="186" type="line"/>
			<point x="154" y="124" type="line"/>
			<point x="893" y="686" type="line"/>
			<point x="850" y="748" type="line"/>
		</contour>
		<contour>
			<point x="279" y="700" type="line"/>
			<point x="660" y="124" type="line"/>
			<point x="725" y="172" type="line"/>
			<point x="344" y="748" type="line"/>
		</contour>
	</outline>
</glyph>
<glyph name="Oslash" format="2">
	<unicode hex="00D8"/>
	<advance width="1504"/>
	<outline>
		<contour>
			<point x="1679" y="1340" type="line"/>
			<point x="1534" y="1340" type="line"/>
			<point x="1338" y="1172" type="line"/>
			<point x="1295" y="1135" type="line"/>
			<point x="321" y="293" type="line"/>
			<point x="277" y="260" type="line"/>
			<point x="-25" y="0" type="line"/>
			<point x="120" y="0" type="line"/>
			<point x="318" y="170" type="line"/>
			<point x="353" y="204" type="line"/>
			<point x="1323" y="1042" type="line"/>
			<point x="1385" y="1087" type="line"/>
		</contour>
		<contour>
			<point x="337" y="495" type="curve" smooth="yes"/>
			<point x="337" y="929"/>
			<point x="618" y="1275"/>
			<point x="944" y="1275" type="curve" smooth="yes"/>
			<point x="1184" y="1275"/>
			<point x="1315" y="1126"/>
			<point x="1315" y="845" type="curve" smooth="yes"/>
			<point x="1315" y="411"/>
			<point x="1034" y="65"/>
			<point x="708" y="65" type="curve" smooth="yes"/>
			<point x="468" y="65"/>
			<point x="337" y="214"/>
		</contour>
		<contour>
			<point x="1477" y="818" type="curve" smooth="yes"/>
			<point x="1477" y="1159"/>
			<point x="1273" y="1360"/>
			<point x="949" y="1360" type="curve" smooth="yes"/>
			<point x="510" y="1360"/>
			<point x="175" y="969"/>
			<point x="175" y="522" type="curve" smooth="yes"/>
			<point x="175" y="181"/>
			<point x="379" y="-20"/>
			<point x="703" y="-20" type="curve" smooth="yes"/>
			<point x="1142" y="-20"/>
			<point x="1477" y="371"/>
		</contour>
	</outline>
	<anchor name="UCtop" x="975" y="1340"/>
	<anchor name="bottom" x="646" y="0"/>
</glyph>
<glyph name="Thorn" format="2">
	<unicode hex="00DE"/>
	<advance width="1167"/>
	<outline>
		<contour>
			<point x="628" y="405" type="curve" smooth="yes"/>
			<point x="246" y="405" type="line"/>
			<point x="230" y="317" type="line"/>
			<point x="596" y="317" type="line" smooth="yes"/>
			<point x="957" y="317"/>
			<point x="1177" y="505"/>
			<point x="1177" y="777" type="curve" smooth="yes"/>
			<point x="1177" y="942"/>
			<point x="1058" y="1070"/>
			<point x="766" y="1070" type="curve" smooth="yes"/>
			<point x="462" y="1070" type="line"/>
			<point x="420" y="982" type="line"/>
			<point x="734" y="982" type="line" smooth="yes"/>
			<point x="932" y="982"/>
			<point x="1016" y="901"/>
			<point x="1016" y="753" type="curve" smooth="yes"/>
			<point x="1016" y="529"/>
			<point x="860" y="405"/>
		</contour>
		<contour>
			<point x="495" y="1257" type="line"/>
			<point x="140" y="86" type="line"/>
			<point x="-22" y="38" type="line"/>
			<point x="-34" y="0" type="line"/>
			<point x="418" y="0" type="line"/>
			<point x="430" y="38" type="line"/>
			<point x="291" y="83" type="line"/>
			<point x="646" y="1254" type="line"/>
			<point x="808" y="1302" type="line"/>
			<point x="820" y="1340" type="line"/>
			<point x="368" y="1340" type="line"/>
			<point x="356" y="1302" type="line"/>
		</contour>
	</outline>
</glyph>
<glyph name="ae" format="2">
	<unicode hex="00E6"/>
	<advance width="1273"/>
	<outline>
		<contour>
			<point x="838" y="730" type="line"/>
			<point x="877" y="852" type="line"/>
			<point x="862" y="852" type="line"/>
			<point x="741" y="852" type="line"/>
			<point x="624" y="487" type="line" smooth="yes"/>
			<point x="553" y="267"/>
			<point x="345" y="103"/>
			<point x="257" y="103" type="curve" smooth="yes"/>
			<point x="208" y="103"/>
			<point x="172" y="130"/>
			<point x="172" y="188" type="curve" smooth="yes"/>
			<point x="172" y="352"/>
			<point x="357" y="783"/>
			<point x="597" y="783" type="curve" smooth="yes"/>
			<point x="654" y="783"/>
			<point x="691" y="752"/>
			<point x="702" y="720" type="curve"/>
			<point x="742" y="774" type="line"/>
			<point x="700" y="828"/>
			<point x="655" y="855"/>
			<point x="578" y="855" type="curve" smooth="yes"/>
			<point x="281" y="855"/>
			<point x="24" y="431"/>
			<point x="24" y="180" type="curve" smooth="yes"/>
			<point x="24" y="39"/>
			<point x="93" y="-17"/>
			<point x="202" y="-17" type="curve" smooth="yes"/>
			<point x="305" y="-17"/>
			<point x="418" y="70"/>
			<point x="618" y="367" type="curve"/>
			<point x="603" y="396" type="line"/>
			<point x="549" y="109"/>
			<point x="646" y="-20"/>
			<point x="835" y="-20" type="curve" smooth="yes"/>
			<point x="984" y="-20"/>
			<point x="1070" y="48"/>
			<point x="1169" y="276" type="curve"/>
			<point x="1113" y="276" type="line"/>
			<point x="1042" y="132"/>
			<point x="971" y="93"/>
			<point x="881" y="93" type="curve" smooth="yes"/>
			<point x="793" y="93"/>
			<point x="733" y="144"/>
			<point x="733" y="282" type="curve" smooth="yes"/>
			<point x="733" y="476"/>
			<point x="832" y="805"/>
			<point x="1028" y="805" type="curve" smooth="yes"/>
			<point x="1089" y="805"/>
			<point x="1122" y="767"/>
			<point x="1122" y="712" type="curve" smooth="yes"/>
			<point x="1122" y="622"/>
			<point x="1044" y="537"/>
			<point x="723" y="446" type="curve"/>
			<point x="720" y="374" type="line"/>
			<point x="877" y="425"/>
			<point x="1032" y="482"/>
			<point x="1187" y="547" type="curve"/>
			<point x="1226" y="579"/>
			<point x="1253" y="642"/>
			<point x="1253" y="699" type="curve" smooth="yes"/>
			<point x="1253" y="789"/>
			<point x="1197" y="872"/>
			<point x="1070" y="872" type="curve" smooth="yes"/>
			<point x="936" y="872"/>
			<point x="847" y="793"/>
			<point x="783" y="704" type="curve"/>
		</contour>
	</outline>
	<anchor name="top" x="813" y="852"/>
	<anchor name="bottom" x="553" y="0"/>
</glyph>
<glyph name="ccedilla" format="2">
	<unicode hex="00E7"/>
	<advance width="702"/>
	<outline>
		<contour>
			<point x="112" y="-530" type="curve"/>
			<point x="271" y="-530"/>
			<point x="404" y="-420"/>
			<point x="404" y="-281" type="curve" smooth="yes"/>
			<point x="404" y="-213"/>
			<point x="365" y="-151"/>
			<point x="229" y="-126" type="curve"/>
			<point x="195" y="-216" type="line"/>
			<point x="405" y="50" type="line"/>
			<point x="332" y="50" type="line"/>
			<point x="127" y="-211" type="line"/>
			<point x="121" y="-229" type="line"/>
			<point x="256" y="-247"/>
			<point x="304" y="-283"/>
			<point x="304" y="-340" type="curve" smooth="yes"/>
			<point x="304" y="-410"/>
			<point x="254" y="-459"/>
			<point x="179" y="-459" type="curve" smooth="yes"/>
			<point x="114" y="-459"/>
			<point x="113" y="-396"/>
			<point x="61" y="-396" type="curve" smooth="yes"/>
			<point x="21" y="-396"/>
			<point x="-2" y="-424"/>
			<point x="-2" y="-456" type="curve" smooth="yes"/>
			<point x="-2" y="-492"/>
			<point x="32" y="-530"/>
		</contour>
		<contour>
			<point x="458" y="794" type="curve" smooth="yes"/>
			<point x="499" y="794"/>
			<point x="533" y="763"/>
			<point x="562" y="731" type="curve" smooth="yes"/>
			<point x="591" y="699"/>
			<point x="615" y="666"/>
			<point x="635" y="667" type="curve" smooth="yes"/>
			<point x="682" y="668"/>
			<point x="716" y="693"/>
			<point x="716" y="745" type="curve" smooth="yes"/>
			<point x="716" y="811"/>
			<point x="658" y="872"/>
			<point x="539" y="872" type="curve" smooth="yes"/>
			<point x="279" y="872"/>
			<point x="57" y="590"/>
			<point x="57" y="240" type="curve" smooth="yes"/>
			<point x="57" y="64"/>
			<point x="139" y="-20"/>
			<point x="285" y="-20" type="curve" smooth="yes"/>
			<point x="419" y="-20"/>
			<point x="512" y="48"/>
			<point x="617" y="276" type="curve"/>
			<point x="563" y="276" type="line"/>
			<point x="488" y="137"/>
			<point x="412" y="93"/>
			<point x="330" y="93" type="curve" smooth="yes"/>
			<point x="245" y="93"/>
			<point x="202" y="144"/>
			<point x="202" y="282" type="curve" smooth="yes"/>
			<point x="202" y="512"/>
			<point x="311" y="794"/>
		</contour>
	</outline>
</glyph>
<glyph name="eth" format="2">
	<unicode hex="00F0"/>
	<advance width="871"/>
	<outline>
		<contour>
			<point x="714" y="572" type="line"/>
			<point x="735" y="776"/>
			<point x="670" y="872"/>
			<point x="514" y="872" type="curve" smooth="yes"/>
			<point x="264" y="872"/>
			<point x="62" y="583"/>
			<point x="62" y="272" type="curve" smooth="yes"/>
			<point x="62" y="87"/>
			<point x="161" y="-20"/>
			<point x="320" y="-20" type="curve" smooth="yes"/>
			<point x="591.9782199971" y="-20"/>
			<point x="827" y="347.6875694676"/>
			<point x="827" y="770" type="curve" smooth="yes"/>
			<point x="827" y="1037"/>
			<point x="708" y="1294"/>
			<point x="346" y="1419" type="curve"/>
			<point x="311" y="1373" type="line"/>
			<point x="626" y="1245"/>
			<point x="779" y="1044"/>
			<point x="675" y="611" type="curve"/>
		</contour>
		<contour>
			<point x="322" y="47" type="curve" smooth="yes"/>
			<point x="239" y="47"/>
			<point x="203" y="106"/>
			<point x="203" y="232" type="curve" smooth="yes"/>
			<point x="203" y="493"/>
			<point x="355" y="805"/>
			<point x="525" y="805" type="curve" smooth="yes"/>
			<point x="608" y="805"/>
			<point x="644" y="746"/>
			<point x="644" y="620" type="curve" smooth="yes"/>
			<point x="644" y="359"/>
			<point x="492" y="47"/>
		</contour>
		<contour>
			<point x="366" y="994" type="line"/>
			<point x="941" y="1293" type="line"/>
			<point x="908" y="1359" type="line"/>
			<point x="333" y="1060" type="line"/>
		</contour>
	</outline>
</glyph>
<glyph name="divide" format="2">
	<unicode hex="00F7"/>
	<advance width="1000"/>
	<outline>
		<contour>
			<point x="158" y="478" type="line"/>
			<point x="132" y="394" type="line"/>
			<point x="846" y="394" type="line"/>
			<point x="872" y="478" type="line"/>
		</contour>
		<contour>
			<point x="597" y="856" type="curve" smooth="yes"/>
			<point x="533" y="856"/>
			<point x="487" y="807"/>
			<point x="487" y="747" type="curve" smooth="yes"/>
			<point x="487" y="687"/>
			<point x="533" y="638"/>
			<point x="597" y="638" type="curve" smooth="yes"/>
			<point x="661" y="638"/>
			<point x="707" y="687"/>
			<point x="707" y="747" type="curve" smooth="yes"/>
			<point x="707" y="807"/>
			<point x="661" y="856"/>
		</contour>
		<contour>
			<point x="407" y="234" type="curve" smooth="yes"/>
			<point x="343" y="234"/>
			<point x="297" y="185"/>
			<point x="297" y="125" type="curve" smooth="yes"/>
			<point x="297" y="65"/>
			<point x="343" y="16"/>
			<point x="407" y="16" type="curve" smooth="yes"/>
			<point x="471" y="16"/>
			<point x="517" y="65"/>
			<point x="517" y="125" type="curve" smooth="yes"/>
			<point x="517" y="185"/>
			<point x="471" y="234"/>
		</contour>
	</outline>
</glyph>
<glyph name="oslash" format="2">
  <advance width="873"/>
  <unicode hex="00F8"/>
  <guideline x="101.0" y="464" angle="5.30833572444575" identifier="mD8XTzRra8"/>
  <guideline x="769.0" y="377" angle="5.30833572444575" identifier="VMiJIYugiO"/>
  <anchor x="546.0" y="852.0" name="top"/>
  <anchor x="306.0" y="0" name="bottom"/>
  <outline>
    <contour>
      <point x="540.0" y="872.0" type="curve" smooth="yes"/>
      <point x="277.0" y="872.0"/>
      <point x="75.0" y="583.0"/>
      <point x="75.0" y="272.0" type="curve" smooth="yes"/>
      <point x="75.0" y="87.0"/>
      <point x="174.0" y="-20.0"/>
      <point x="333.0" y="-20.0" type="curve" smooth="yes"/>
      <point x="596.0" y="-20.0"/>
      <point x="798.0" y="269.0"/>
      <point x="798.0" y="580.0" type="curve" smooth="yes"/>
      <point x="798.0" y="765.0"/>
      <point x="699.0" y="872.0"/>
    </contour>
    <contour>
      <point x="335.0" y="47.0" type="curve" smooth="yes"/>
      <point x="252.0" y="47.0"/>
      <point x="216.0" y="106.0"/>
      <point x="216.0" y="232.0" type="curve" smooth="yes"/>
      <point x="216.0" y="493.0"/>
      <point x="368.0" y="805.0"/>
      <point x="538.0" y="805.0" type="curve" smooth="yes"/>
      <point x="621.0" y="805.0"/>
      <point x="657.0" y="746.0"/>
      <point x="657.0" y="620.0" type="curve" smooth="yes"/>
      <point x="657.0" y="359.0"/>
      <point x="505.0" y="47.0"/>
    </contour>
    <contour>
      <point x="800.0" y="852.0" type="line"/>
      <point x="714.0" y="765.0" type="line"/>
      <point x="670.0" y="730.0" type="line"/>
      <point x="170.0" y="204.0" type="line"/>
      <point x="122.0" y="165.0" type="line"/>
      <point x="-41.0" y="0.0" type="line"/>
      <point x="73.0" y="0.0" type="line"/>
      <point x="161.0" y="89.0" type="line"/>
      <point x="204.0" y="122.0" type="line"/>
      <point x="697.0" y="642.0" type="line"/>
      <point x="747.0" y="682.0" type="line"/>
      <point x="914.0" y="852.0" type="line"/>
    </contour>
  </outline>
</glyph>
<glyph name="thorn" format="2">
	<unicode hex="00FE"/>
	<advance width="886"/>
	<outline>
		<contour>
			<point x="234" y="286" type="curve" smooth="yes"/>
			<point x="254" y="365" type="line" smooth="yes"/>
			<point x="299" y="542"/>
			<point x="450" y="744"/>
			<point x="578" y="744" type="curve" smooth="yes"/>
			<point x="656" y="744"/>
			<point x="689" y="696"/>
			<point x="689" y="596" type="curve" smooth="yes"/>
			<point x="689" y="327"/>
			<point x="491" y="45"/>
			<point x="341" y="45" type="curve" smooth="yes"/>
			<point x="249" y="45"/>
			<point x="216" y="103"/>
			<point x="216" y="172" type="curve" smooth="yes"/>
			<point x="216" y="190"/>
			<point x="218" y="223"/>
		</contour>
		<contour>
			<point x="284" y="502" type="line"/>
			<point x="552" y="1419" type="line"/>
			<point x="529" y="1419" type="line"/>
			<point x="260" y="1370" type="line"/>
			<point x="252" y="1345" type="line"/>
			<point x="309" y="1324"/>
			<point x="338" y="1302"/>
			<point x="374" y="1268" type="curve"/>
			<point x="-92" y="-424" type="line"/>
			<point x="-241" y="-473" type="line"/>
			<point x="-255" y="-510" type="line"/>
			<point x="197" y="-510" type="line"/>
			<point x="211" y="-473" type="line"/>
			<point x="41" y="-424" type="line"/>
			<point x="178" y="73" type="line"/>
			<point x="102" y="73" type="line"/>
			<point x="144" y="7"/>
			<point x="246" y="-20"/>
			<point x="327" y="-20" type="curve" smooth="yes"/>
			<point x="615" y="-20"/>
			<point x="838" y="314"/>
			<point x="838" y="643" type="curve" smooth="yes"/>
			<point x="838" y="763"/>
			<point x="779" y="872"/>
			<point x="637" y="872" type="curve" smooth="yes"/>
			<point x="530" y="872"/>
			<point x="399" y="769"/>
			<point x="277" y="532" type="curve"/>
		</contour>
	</outline>
</glyph>
<glyph name="Aogonek" format="2">
	<unicode hex="0104"/>
	<advance width="1311"/>
	<outline>
		<contour>
			<point x="367" y="505" type="line"/>
			<point x="995" y="505" type="line"/>
			<point x="1023" y="587" type="line"/>
			<point x="395" y="587" type="line"/>
		</contour>
		<contour>
			<point x="1089" y="85" type="line"/>
			<point x="958" y="1360" type="line"/>
			<point x="913" y="1360" type="line"/>
			<point x="42" y="83" type="line"/>
			<point x="-122" y="38" type="line"/>
			<point x="-133" y="0" type="line"/>
			<point x="275" y="0" type="line"/>
			<point x="286" y="38" type="line"/>
			<point x="149" y="83" type="line"/>
			<point x="894" y="1195" type="line"/>
			<point x="831" y="1195" type="line"/>
			<point x="937" y="83" type="line"/>
			<point x="755" y="38" type="line"/>
			<point x="744" y="0" type="line"/>
			<point x="1201" y="0" type="line"/>
			<point x="1212" y="38" type="line"/>
		</contour>
		<contour>
			<point x="802" y="-346" type="curve" smooth="yes"/>
			<point x="802" y="-295"/>
			<point x="832" y="-223"/>
			<point x="905" y="-136" type="curve" smooth="yes"/>
			<point x="1056" y="46" type="line"/>
			<point x="1005" y="46" type="line"/>
			<point x="816" y="-159" type="line" smooth="yes"/>
			<point x="715" y="-269"/>
			<point x="685" y="-345"/>
			<point x="685" y="-406" type="curve" smooth="yes"/>
			<point x="685" y="-484"/>
			<point x="739" y="-530"/>
			<point x="817" y="-530" type="curve" smooth="yes"/>
			<point x="902" y="-530"/>
			<point x="962" y="-484"/>
			<point x="1069" y="-370" type="curve"/>
			<point x="1051" y="-344" type="line"/>
			<point x="965" y="-415"/>
			<point x="930" y="-430"/>
			<point x="889" y="-430" type="curve" smooth="yes"/>
			<point x="836" y="-430"/>
			<point x="802" y="-400"/>
		</contour>
	</outline>
</glyph>
<glyph name="aogonek" format="2">
	<unicode hex="0105"/>
	<advance width="924"/>
	<outline>
		<contour>
			<point x="892" y="195" type="curve"/>
			<point x="864" y="227" type="line"/>
			<point x="776" y="146"/>
			<point x="675" y="98"/>
			<point x="609" y="109" type="curve"/>
			<point x="626" y="71" type="line"/>
			<point x="877" y="852" type="line"/>
			<point x="862" y="852" type="line"/>
			<point x="741" y="852" type="line"/>
			<point x="624" y="487" type="line" smooth="yes"/>
			<point x="553" y="267"/>
			<point x="345" y="103"/>
			<point x="257" y="103" type="curve" smooth="yes"/>
			<point x="208" y="103"/>
			<point x="172" y="130"/>
			<point x="172" y="188" type="curve" smooth="yes"/>
			<point x="172" y="352"/>
			<point x="357" y="783"/>
			<point x="597" y="783" type="curve" smooth="yes"/>
			<point x="654" y="783"/>
			<point x="691" y="752"/>
			<point x="702" y="720" type="curve"/>
			<point x="742" y="774" type="line"/>
			<point x="700" y="828"/>
			<point x="655" y="855"/>
			<point x="578" y="855" type="curve" smooth="yes"/>
			<point x="281" y="855"/>
			<point x="24" y="431"/>
			<point x="24" y="180" type="curve" smooth="yes"/>
			<point x="24" y="39"/>
			<point x="93" y="-17"/>
			<point x="202" y="-17" type="curve" smooth="yes"/>
			<point x="305" y="-17"/>
			<point x="418" y="70"/>
			<point x="618" y="367" type="curve"/>
			<point x="592" y="367" type="line"/>
			<point x="488" y="45" type="line" smooth="yes"/>
			<point x="475" y="6"/>
			<point x="503" y="-20"/>
			<point x="560" y="-20" type="curve" smooth="yes"/>
			<point x="593" y="-20"/>
			<point x="628" y="-12"/>
			<point x="665" y="5" type="curve"/>
			<point x="665" y="20" type="line"/>
			<point x="488" y="-126" type="line" smooth="yes"/>
			<point x="358" y="-234"/>
			<point x="316" y="-310"/>
			<point x="316" y="-393" type="curve" smooth="yes"/>
			<point x="316" y="-474"/>
			<point x="378" y="-530"/>
			<point x="460" y="-530" type="curve" smooth="yes"/>
			<point x="545" y="-530"/>
			<point x="605" y="-484"/>
			<point x="712" y="-370" type="curve"/>
			<point x="694" y="-344" type="line"/>
			<point x="608" y="-415"/>
			<point x="573" y="-430"/>
			<point x="532" y="-430" type="curve" smooth="yes"/>
			<point x="471" y="-430"/>
			<point x="434" y="-392"/>
			<point x="434" y="-333" type="curve" smooth="yes"/>
			<point x="434" y="-262"/>
			<point x="476" y="-199"/>
			<point x="578" y="-105" type="curve" smooth="yes"/>
			<point x="761" y="64" type="line" smooth="yes"/>
			<point x="823" y="122"/>
			<point x="864" y="165"/>
		</contour>
	</outline>
</glyph>
<glyph name="Dcroat" format="2">
	<unicode hex="0110"/>
	<advance width="1461"/>
	<outline>
		<contour>
			<point x="153" y="634" type="line"/>
			<point x="764" y="634" type="line"/>
			<point x="793" y="728" type="line"/>
			<point x="182" y="728" type="line"/>
		</contour>
		<contour>
			<point x="509" y="88" type="curve" smooth="yes"/>
			<point x="199" y="88" type="line"/>
			<point x="170" y="0" type="line"/>
			<point x="510" y="0" type="line" smooth="yes"/>
			<point x="1118" y="0"/>
			<point x="1448" y="364"/>
			<point x="1448" y="820" type="curve" smooth="yes"/>
			<point x="1448" y="1163"/>
			<point x="1256" y="1340"/>
			<point x="835" y="1340" type="curve" smooth="yes"/>
			<point x="580" y="1340" type="line"/>
			<point x="551" y="1252" type="line"/>
			<point x="783" y="1252" type="line" smooth="yes"/>
			<point x="1124" y="1252"/>
			<point x="1279" y="1102"/>
			<point x="1279" y="824" type="curve" smooth="yes"/>
			<point x="1279" y="372"/>
			<point x="990" y="88"/>
		</contour>
		<contour>
			<point x="496" y="1257" type="line"/>
			<point x="141" y="86" type="line"/>
			<point x="-21" y="38" type="line"/>
			<point x="-33" y="0" type="line"/>
			<point x="267" y="0" type="line"/>
			<point x="673" y="1340" type="line"/>
			<point x="369" y="1340" type="line"/>
			<point x="357" y="1302" type="line"/>
		</contour>
	</outline>
</glyph>
<glyph name="dcroat" format="2">
	<unicode hex="0111"/>
	<advance width="932"/>
	<outline>
		<contour>
			<point x="713" y="730" type="curve"/>
			<point x="753" y="785" type="line"/>
			<point x="711" y="839"/>
			<point x="666" y="867"/>
			<point x="589" y="867" type="curve" smooth="yes"/>
			<point x="287" y="867"/>
			<point x="25" y="437"/>
			<point x="25" y="183" type="curve" smooth="yes"/>
			<point x="25" y="40"/>
			<point x="94" y="-17"/>
			<point x="203" y="-17" type="curve" smooth="yes"/>
			<point x="308" y="-17"/>
			<point x="427" y="68"/>
			<point x="629" y="367" type="curve"/>
			<point x="603" y="367" type="line"/>
			<point x="499" y="45" type="line" smooth="yes"/>
			<point x="486" y="6"/>
			<point x="514" y="-20"/>
			<point x="571" y="-20" type="curve" smooth="yes"/>
			<point x="660" y="-20"/>
			<point x="759" y="35"/>
			<point x="903" y="195" type="curve"/>
			<point x="875" y="227" type="line"/>
			<point x="787" y="146"/>
			<point x="686" y="98"/>
			<point x="620" y="109" type="curve"/>
			<point x="637" y="71" type="line"/>
			<point x="1054" y="1419" type="line"/>
			<point x="1031" y="1419" type="line"/>
			<point x="762" y="1370" type="line"/>
			<point x="754" y="1345" type="line"/>
			<point x="811" y="1324"/>
			<point x="840" y="1302"/>
			<point x="876" y="1268" type="curve"/>
			<point x="635" y="487" type="line" smooth="yes"/>
			<point x="571" y="279"/>
			<point x="355" y="103"/>
			<point x="258" y="103" type="curve" smooth="yes"/>
			<point x="209" y="103"/>
			<point x="173" y="132"/>
			<point x="173" y="191" type="curve" smooth="yes"/>
			<point x="173" y="357"/>
			<point x="362" y="794"/>
			<point x="608" y="794" type="curve" smooth="yes"/>
			<point x="665" y="794"/>
			<point x="702" y="762"/>
		</contour>
		<contour>
			<point x="535" y="1029" type="line"/>
			<point x="1098" y="1029" type="line"/>
			<point x="1125" y="1115" type="line"/>
			<point x="561" y="1115" type="line"/>
		</contour>
	</outline>
</glyph>
<glyph name="Eogonek" format="2">
	<unicode hex="0118"/>
	<advance width="1209"/>
	<outline>
		<contour>
			<point x="495" y="1257" type="line"/>
			<point x="140" y="86" type="line"/>
			<point x="-22" y="38" type="line"/>
			<point x="-34" y="0" type="line"/>
			<point x="266" y="0" type="line"/>
			<point x="672" y="1340" type="line"/>
			<point x="368" y="1340" type="line"/>
			<point x="356" y="1302" type="line"/>
		</contour>
		<contour>
			<point x="776" y="441" type="line"/>
			<point x="847" y="441" type="line"/>
			<point x="927" y="703" type="line"/>
			<point x="1007" y="965" type="line"/>
			<point x="936" y="965" type="line"/>
			<point x="848" y="746" type="line"/>
			<point x="397" y="746" type="line"/>
			<point x="371" y="660" type="line"/>
			<point x="822" y="660" type="line"/>
		</contour>
		<contour>
			<point x="1246" y="957" type="line"/>
			<point x="1315" y="1389" type="line"/>
			<point x="1300" y="1389" type="line"/>
			<point x="1179" y="1340" type="line"/>
			<point x="579" y="1340" type="line"/>
			<point x="550" y="1252" type="line"/>
			<point x="1184" y="1252" type="line"/>
			<point x="1143" y="1271" type="line"/>
			<point x="1198" y="957" type="line"/>
		</contour>
		<contour>
			<point x="920" y="-59" type="line"/>
			<point x="935" y="-59" type="line"/>
			<point x="1134" y="360" type="line"/>
			<point x="1099" y="381" type="line"/>
			<point x="803" y="68" type="line"/>
			<point x="882" y="88" type="line"/>
			<point x="198" y="88" type="line"/>
			<point x="169" y="0" type="line"/>
			<point x="824" y="0" type="line"/>
		</contour>
		<contour>
			<point x="616" y="-346" type="curve" smooth="yes"/>
			<point x="616" y="-295"/>
			<point x="646" y="-223"/>
			<point x="719" y="-136" type="curve" smooth="yes"/>
			<point x="870" y="46" type="line"/>
			<point x="819" y="46" type="line"/>
			<point x="630" y="-159" type="line" smooth="yes"/>
			<point x="529" y="-269"/>
			<point x="499" y="-345"/>
			<point x="499" y="-406" type="curve" smooth="yes"/>
			<point x="499" y="-484"/>
			<point x="553" y="-530"/>
			<point x="631" y="-530" type="curve" smooth="yes"/>
			<point x="716" y="-530"/>
			<point x="776" y="-484"/>
			<point x="883" y="-370" type="curve"/>
			<point x="865" y="-344" type="line"/>
			<point x="779" y="-415"/>
			<point x="744" y="-430"/>
			<point x="703" y="-430" type="curve" smooth="yes"/>
			<point x="650" y="-430"/>
			<point x="616" y="-400"/>
		</contour>
	</outline>
</glyph>
<glyph name="eogonek" format="2">
	<unicode hex="0119"/>
	<advance width="743"/>
	<outline>
		<contour>
			<point x="533" y="87" type="line" smooth="yes"/>
			<point x="569" y="132"/>
			<point x="603" y="193"/>
			<point x="639" y="276" type="curve"/>
			<point x="583" y="276" type="line"/>
			<point x="512" y="132"/>
			<point x="441" y="93"/>
			<point x="351" y="93" type="curve" smooth="yes"/>
			<point x="263" y="93"/>
			<point x="203" y="144"/>
			<point x="203" y="282" type="curve" smooth="yes"/>
			<point x="203" y="476"/>
			<point x="302" y="805"/>
			<point x="498" y="805" type="curve" smooth="yes"/>
			<point x="559" y="805"/>
			<point x="592" y="767"/>
			<point x="592" y="712" type="curve" smooth="yes"/>
			<point x="592" y="622"/>
			<point x="514" y="537"/>
			<point x="193" y="446" type="curve"/>
			<point x="190" y="374" type="line"/>
			<point x="347" y="425"/>
			<point x="502" y="482"/>
			<point x="657" y="547" type="curve"/>
			<point x="696" y="579"/>
			<point x="723" y="642"/>
			<point x="723" y="699" type="curve" smooth="yes"/>
			<point x="723" y="788"/>
			<point x="664" y="872"/>
			<point x="524" y="872" type="curve" smooth="yes"/>
			<point x="280" y="872"/>
			<point x="58" y="590"/>
			<point x="58" y="240" type="curve" smooth="yes"/>
			<point x="58" y="69"/>
			<point x="155" y="-20"/>
			<point x="305" y="-20" type="curve" smooth="yes"/>
			<point x="354" y="-20"/>
			<point x="396" y="-13"/>
			<point x="434" y="5" type="curve"/>
			<point x="422" y="19" type="line"/>
			<point x="267" y="-157" type="line" smooth="yes"/>
			<point x="168" y="-269"/>
			<point x="139" y="-345"/>
			<point x="139" y="-406" type="curve" smooth="yes"/>
			<point x="139" y="-484"/>
			<point x="193" y="-530"/>
			<point x="271" y="-530" type="curve" smooth="yes"/>
			<point x="356" y="-530"/>
			<point x="416" y="-484"/>
			<point x="523" y="-370" type="curve"/>
			<point x="505" y="-344" type="line"/>
			<point x="419" y="-415"/>
			<point x="384" y="-430"/>
			<point x="343" y="-430" type="curve" smooth="yes"/>
			<point x="290" y="-430"/>
			<point x="256" y="-400"/>
			<point x="256" y="-346" type="curve" smooth="yes"/>
			<point x="256" y="-295"/>
			<point x="283" y="-225"/>
			<point x="356" y="-134" type="curve" smooth="yes"/>
		</contour>
	</outline>
</glyph>
<glyph name="Hbar" format="2">
	<unicode hex="0126"/>
	<advance width="1508"/>
	<outline>
		<contour>
			<point x="365" y="639" type="line"/>
			<point x="1270" y="639" type="line"/>
			<point x="1297" y="727" type="line"/>
			<point x="392" y="727" type="line"/>
		</contour>
		<contour>
			<point x="251" y="954" type="line"/>
			<point x="1570" y="954" type="line"/>
			<point x="1599" y="1048" type="line"/>
			<point x="280" y="1048" type="line"/>
		</contour>
		<contour>
			<point x="496" y="1257" type="line"/>
			<point x="141" y="86" type="line"/>
			<point x="-21" y="38" type="line"/>
			<point x="-33" y="0" type="line"/>
			<point x="419" y="0" type="line"/>
			<point x="431" y="38" type="line"/>
			<point x="292" y="83" type="line"/>
			<point x="647" y="1254" type="line"/>
			<point x="809" y="1302" type="line"/>
			<point x="821" y="1340" type="line"/>
			<point x="369" y="1340" type="line"/>
			<point x="357" y="1302" type="line"/>
		</contour>
		<contour>
			<point x="1364" y="1257" type="line"/>
			<point x="1009" y="86" type="line"/>
			<point x="847" y="38" type="line"/>
			<point x="835" y="0" type="line"/>
			<point x="1287" y="0" type="line"/>
			<point x="1299" y="38" type="line"/>
			<point x="1160" y="83" type="line"/>
			<point x="1515" y="1254" type="line"/>
			<point x="1677" y="1302" type="line"/>
			<point x="1689" y="1340" type="line"/>
			<point x="1237" y="1340" type="line"/>
			<point x="1225" y="1302" type="line"/>
		</contour>
	</outline>
</glyph>
<glyph name="hbar" format="2">
	<unicode hex="0127"/>
	<advance width="933"/>
	<outline>
		<contour>
			<point x="216" y="233" type="line"/>
			<point x="301" y="512"/>
			<point x="505" y="751"/>
			<point x="634" y="751" type="curve" smooth="yes"/>
			<point x="690" y="751"/>
			<point x="708" y="729"/>
			<point x="708" y="696" type="curve" smooth="yes"/>
			<point x="708" y="673"/>
			<point x="700" y="646"/>
			<point x="689" y="618" type="curve" smooth="yes"/>
			<point x="478" y="73" type="line" smooth="yes"/>
			<point x="449" y="-2"/>
			<point x="462" y="-20"/>
			<point x="549" y="-20" type="curve" smooth="yes"/>
			<point x="638" y="-20"/>
			<point x="742" y="31"/>
			<point x="883" y="196" type="curve"/>
			<point x="853" y="227" type="line"/>
			<point x="772" y="152"/>
			<point x="679" y="108"/>
			<point x="614" y="108" type="curve"/>
			<point x="612" y="71" type="line"/>
			<point x="810" y="586" type="line" smooth="yes"/>
			<point x="833" y="646"/>
			<point x="847" y="698"/>
			<point x="847" y="741" type="curve" smooth="yes"/>
			<point x="847" y="817"/>
			<point x="811" y="869"/>
			<point x="701" y="869" type="curve" smooth="yes"/>
			<point x="540" y="869"/>
			<point x="388" y="681"/>
			<point x="276" y="489" type="curve"/>
			<point x="289" y="487" type="line"/>
			<point x="573" y="1419" type="line"/>
			<point x="550" y="1419" type="line"/>
			<point x="281" y="1370" type="line"/>
			<point x="273" y="1345" type="line"/>
			<point x="330" y="1324"/>
			<point x="359" y="1302"/>
			<point x="395" y="1268" type="curve"/>
			<point x="13" y="0" type="line"/>
			<point x="146" y="0" type="line"/>
		</contour>
		<contour>
			<point x="144" y="1029" type="line"/>
			<point x="707" y="1029" type="line"/>
			<point x="734" y="1115" type="line"/>
			<point x="170" y="1115" type="line"/>
		</contour>
	</outline>
</glyph>
<glyph name="Iogonek" format="2">
	<unicode hex="012E"/>
	<advance width="639"/>
	<outline>
		<contour>
			<point x="495" y="1257" type="line"/>
			<point x="140" y="86" type="line"/>
			<point x="-22" y="38" type="line"/>
			<point x="-34" y="0" type="line"/>
			<point x="418" y="0" type="line"/>
			<point x="430" y="38" type="line"/>
			<point x="291" y="83" type="line"/>
			<point x="646" y="1254" type="line"/>
			<point x="808" y="1302" type="line"/>
			<point x="820" y="1340" type="line"/>
			<point x="368" y="1340" type="line"/>
			<point x="356" y="1302" type="line"/>
		</contour>
		<contour>
			<point x="57" y="-337" type="curve" smooth="yes"/>
			<point x="57" y="-286"/>
			<point x="80" y="-214"/>
			<point x="139" y="-126" type="curve" smooth="yes"/>
			<point x="253" y="46" type="line"/>
			<point x="202" y="46" type="line"/>
			<point x="53" y="-149" type="line" smooth="yes"/>
			<point x="-31" y="-259"/>
			<point x="-60" y="-337"/>
			<point x="-60" y="-398" type="curve" smooth="yes"/>
			<point x="-60" y="-479"/>
			<point x="-8" y="-530"/>
			<point x="72" y="-530" type="curve" smooth="yes"/>
			<point x="157" y="-530"/>
			<point x="217" y="-484"/>
			<point x="324" y="-370" type="curve"/>
			<point x="306" y="-344" type="line"/>
			<point x="220" y="-415"/>
			<point x="185" y="-430"/>
			<point x="144" y="-430" type="curve" smooth="yes"/>
			<point x="89" y="-430"/>
			<point x="57" y="-395"/>
		</contour>
	</outline>
</glyph>
<glyph name="iogonek" format="2">
	<unicode hex="012F"/>
	<advance width="537"/>
	<outline>
		<contour>
			<point x="399" y="1300" type="curve" smooth="yes"/>
			<point x="399" y="1236"/>
			<point x="445" y="1187"/>
			<point x="513" y="1187" type="curve" smooth="yes"/>
			<point x="581" y="1187"/>
			<point x="627" y="1236"/>
			<point x="627" y="1300" type="curve" smooth="yes"/>
			<point x="627" y="1364"/>
			<point x="581" y="1413"/>
			<point x="513" y="1413" type="curve" smooth="yes"/>
			<point x="445" y="1413"/>
			<point x="399" y="1364"/>
		</contour>
		<contour>
			<point x="331" y="39" type="line" smooth="yes"/>
			<point x="372" y="76"/>
			<point x="426" y="129"/>
			<point x="482" y="195" type="curve"/>
			<point x="454" y="227" type="line"/>
			<point x="366" y="146"/>
			<point x="264" y="101"/>
			<point x="199" y="109" type="curve"/>
			<point x="216" y="71" type="line"/>
			<point x="476" y="817" type="line" smooth="yes"/>
			<point x="488" y="851"/>
			<point x="461" y="872"/>
			<point x="410" y="872" type="curve" smooth="yes"/>
			<point x="319" y="872"/>
			<point x="219" y="823"/>
			<point x="81" y="627" type="curve"/>
			<point x="111" y="598" type="line"/>
			<point x="191" y="687"/>
			<point x="289" y="741"/>
			<point x="354" y="739" type="curve"/>
			<point x="325" y="761" type="line"/>
			<point x="65" y="35" type="line" smooth="yes"/>
			<point x="52" y="-1"/>
			<point x="76" y="-20"/>
			<point x="150" y="-20" type="curve" smooth="yes"/>
			<point x="181" y="-20"/>
			<point x="214" y="-14"/>
			<point x="250" y="2" type="curve"/>
			<point x="250" y="21" type="line"/>
			<point x="54" y="-145" type="line" smooth="yes"/>
			<point x="-66" y="-247"/>
			<point x="-107" y="-331"/>
			<point x="-107" y="-403" type="curve" smooth="yes"/>
			<point x="-107" y="-481"/>
			<point x="-53" y="-530"/>
			<point x="25" y="-530" type="curve" smooth="yes"/>
			<point x="110" y="-530"/>
			<point x="170" y="-484"/>
			<point x="277" y="-370" type="curve"/>
			<point x="259" y="-344" type="line"/>
			<point x="173" y="-415"/>
			<point x="138" y="-430"/>
			<point x="97" y="-430" type="curve" smooth="yes"/>
			<point x="44" y="-430"/>
			<point x="10" y="-400"/>
			<point x="10" y="-346" type="curve" smooth="yes"/>
			<point x="10" y="-281"/>
			<point x="56" y="-208"/>
			<point x="147" y="-126" type="curve" smooth="yes"/>
		</contour>
	</outline>
</glyph>
<glyph name="dotlessi" format="2">
	<unicode hex="0131"/>
	<advance width="535"/>
	<outline>
		<contour>
			<point x="65" y="35" type="line" smooth="yes"/>
			<point x="52" y="-1"/>
			<point x="76" y="-20"/>
			<point x="150" y="-20" type="curve" smooth="yes"/>
			<point x="239" y="-20"/>
			<point x="341" y="30"/>
			<point x="482" y="195" type="curve"/>
			<point x="454" y="227" type="line"/>
			<point x="366" y="146"/>
			<point x="264" y="101"/>
			<point x="199" y="109" type="curve"/>
			<point x="216" y="71" type="line"/>
			<point x="476" y="817" type="line" smooth="yes"/>
			<point x="488" y="851"/>
			<point x="461" y="872"/>
			<point x="410" y="872" type="curve" smooth="yes"/>
			<point x="319" y="872"/>
			<point x="219" y="823"/>
			<point x="81" y="627" type="curve"/>
			<point x="111" y="598" type="line"/>
			<point x="191" y="687"/>
			<point x="289" y="741"/>
			<point x="354" y="739" type="curve"/>
			<point x="325" y="761" type="line"/>
		</contour>
	</outline>
	<anchor name="top" x="383" y="852"/>
	<anchor name="right" x="163" y="0"/>
	<anchor name="bottom" x="163" y="0"/>
</glyph>
<glyph name="kgreenlandic" format="2">
	<unicode hex="0138"/>
	<advance width="974"/>
	<outline>
		<contour>
			<point x="483" y="852" type="line"/>
			<point x="446" y="864"/>
			<point x="407" y="871"/>
			<point x="367" y="871" type="curve" smooth="yes"/>
			<point x="254" y="871"/>
			<point x="140" y="808"/>
			<point x="56" y="597" type="curve"/>
			<point x="92" y="582" type="line"/>
			<point x="163" y="711"/>
			<point x="228" y="746"/>
			<point x="300" y="746" type="curve" smooth="yes"/>
			<point x="305" y="746"/>
			<point x="310" y="746"/>
			<point x="315" y="746" type="curve"/>
			<point x="86" y="0" type="line"/>
			<point x="218" y="0" type="line"/>
		</contour>
		<contour>
			<point x="881" y="648" type="curve" smooth="yes"/>
			<point x="948" y="648"/>
			<point x="1004" y="698"/>
			<point x="1004" y="768" type="curve" smooth="yes"/>
			<point x="1004" y="824"/>
			<point x="964" y="872"/>
			<point x="900" y="872" type="curve" smooth="yes"/>
			<point x="806" y="872"/>
			<point x="730" y="830"/>
			<point x="355" y="451" type="curve"/>
			<point x="350" y="435" type="line"/>
			<point x="521" y="17"/>
			<point x="558" y="-20"/>
			<point x="641" y="-20" type="curve" smooth="yes"/>
			<point x="720" y="-20"/>
			<point x="798" y="41"/>
			<point x="924" y="209" type="curve"/>
			<point x="892" y="238" type="line"/>
			<point x="823" y="153"/>
			<point x="741" y="92"/>
			<point x="690" y="92" type="curve" smooth="yes"/>
			<point x="648" y="92"/>
			<point x="614" y="128"/>
			<point x="457" y="502" type="curve"/>
			<point x="430" y="446" type="line"/>
			<point x="581" y="616"/>
			<point x="733" y="736"/>
			<point x="786" y="736" type="curve" smooth="yes"/>
			<point x="804" y="736"/>
			<point x="817" y="725"/>
			<point x="835" y="693" type="curve" smooth="yes"/>
			<point x="853" y="661"/>
			<point x="863" y="648"/>
		</contour>
	</outline>
</glyph>
<glyph name="Lslash" format="2">
	<unicode hex="0141"/>
	<advance width="1146"/>
	<outline>
		<contour>
			<point x="683" y="1254" type="line"/>
			<point x="845" y="1302" type="line"/>
			<point x="857" y="1340" type="line"/>
			<point x="405" y="1340" type="line"/>
			<point x="393" y="1302" type="line"/>
			<point x="532" y="1257" type="line"/>
			<point x="177" y="86" type="line"/>
			<point x="15" y="38" type="line"/>
			<point x="3" y="0" type="line"/>
			<point x="303" y="0" type="line"/>
		</contour>
		<contour>
			<point x="765" y="68" type="line"/>
			<point x="844" y="88" type="line"/>
			<point x="260" y="88" type="line"/>
			<point x="231" y="0" type="line"/>
			<point x="786" y="0" type="line"/>
			<point x="882" y="-59" type="line"/>
			<point x="897" y="-59" type="line"/>
			<point x="1096" y="360" type="line"/>
			<point x="1061" y="381" type="line"/>
		</contour>
		<contour>
			<point x="870" y="911" type="line"/>
			<point x="470" y="709" type="line"/>
			<point x="401" y="697" type="line"/>
			<point x="116" y="553" type="line"/>
			<point x="81" y="437" type="line"/>
			<point x="368" y="582" type="line"/>
			<point x="442" y="596" type="line"/>
			<point x="835" y="795" type="line"/>
		</contour>
	</outline>
</glyph>
<glyph name="lslash" format="2">
  <advance width="611"/>
  <unicode hex="0142"/>
  <outline>
    <contour>
      <point x="85.0" y="514.0" type="line"/>
      <point x="47.0" y="387.0" type="line"/>
      <point x="288.0" y="548.0" type="line"/>
      <point x="344.0" y="565.0" type="line"/>
      <point x="605.0" y="740.0" type="line"/>
      <point x="643.0" y="867.0" type="line"/>
      <point x="362.0" y="679.0" type="line"/>
      <point x="302.0" y="659.0" type="line"/>
    </contour>
    <contour>
      <point x="463.0" y="1268.0" type="curve"/>
      <point x="92.0" y="35.0" type="line" smooth="yes"/>
      <point x="80.0" y="-4.0"/>
      <point x="114.0" y="-20.0"/>
      <point x="177.0" y="-20.0" type="curve" smooth="yes"/>
      <point x="266.0" y="-20.0"/>
      <point x="368.0" y="30.0"/>
      <point x="509.0" y="195.0" type="curve"/>
      <point x="481.0" y="227.0" type="line"/>
      <point x="393.0" y="146.0"/>
      <point x="291.0" y="101.0"/>
      <point x="226.0" y="109.0" type="curve"/>
      <point x="238.0" y="81.0" type="line"/>
      <point x="641.0" y="1419.0" type="line"/>
      <point x="618.0" y="1419.0" type="line"/>
      <point x="349.0" y="1370.0" type="line"/>
      <point x="341.0" y="1345.0" type="line"/>
      <point x="398.0" y="1324.0"/>
      <point x="427.0" y="1302.0"/>
    </contour>
  </outline>
</glyph>
<glyph name="Eng" format="2">
  <advance width="1448"/>
  <unicode hex="014A"/>
  <outline>
    <contour>
      <point x="1082.0" y="169.0" type="line"/>
      <point x="657.0" y="1340.0" type="line"/>
      <point x="351.0" y="1340.0" type="line"/>
      <point x="340.0" y="1302.0" type="line"/>
      <point x="498.0" y="1240.0" type="line"/>
      <point x="146.0" y="86.0" type="line"/>
      <point x="-16.0" y="38.0" type="line"/>
      <point x="-28.0" y="0.0" type="line"/>
      <point x="359.0" y="0.0" type="line"/>
      <point x="371.0" y="38.0" type="line"/>
      <point x="232.0" y="83.0" type="line"/>
      <point x="580.0" y="1221.0" type="line"/>
      <point x="543.0" y="1243.0" type="line"/>
      <point x="1028.0" y="-79.0" type="line"/>
    </contour>
    <contour>
      <point x="1071.0" y="-71.0" type="curve" smooth="yes"/>
      <point x="1476.0" y="1254.0" type="line"/>
      <point x="1638.0" y="1302.0" type="line"/>
      <point x="1650.0" y="1340.0" type="line"/>
      <point x="1263.0" y="1340.0" type="line"/>
      <point x="1251.0" y="1302.0" type="line"/>
      <point x="1390.0" y="1257.0" type="line"/>
      <point x="981.0" y="-79.0" type="line" smooth="yes"/>
      <point x="899.0" y="-347.0"/>
      <point x="788.0" y="-419.0"/>
      <point x="690.0" y="-419.0" type="curve" smooth="yes"/>
      <point x="610.0" y="-419.0"/>
      <point x="569.0" y="-330.0"/>
      <point x="520.0" y="-330.0" type="curve" smooth="yes"/>
      <point x="469.0" y="-330.0"/>
      <point x="437.0" y="-374.0"/>
      <point x="437.0" y="-424.0" type="curve" smooth="yes"/>
      <point x="437.0" y="-488.0"/>
      <point x="496.0" y="-530.0"/>
      <point x="605.0" y="-530.0" type="curve" smooth="yes"/>
      <point x="815.0" y="-530.0"/>
      <point x="974.0" y="-388.0"/>
    </contour>
  </outline>
</glyph>
<glyph name="eng" format="2">
  <advance width="947"/>
  <unicode hex="014B"/>
  <outline>
    <contour>
      <point x="263" y="-530" type="curve" smooth="yes"/>
      <point x="410" y="-530"/>
      <point x="568" y="-384"/>
      <point x="647" y="-124" type="curve" smooth="yes"/>
      <point x="853" y="555" type="line" smooth="yes"/>
      <point x="877" y="634"/>
      <point x="892" y="698"/>
      <point x="892" y="741" type="curve" smooth="yes"/>
      <point x="892" y="817"/>
      <point x="856" y="869"/>
      <point x="746" y="869" type="curve" smooth="yes"/>
      <point x="588" y="869"/>
      <point x="456" y="668"/>
      <point x="341" y="462" type="curve"/>
      <point x="347" y="462" type="line"/>
      <point x="467" y="852" type="line"/>
      <point x="431" y="864"/>
      <point x="394" y="871"/>
      <point x="356" y="871" type="curve" smooth="yes"/>
      <point x="247" y="871"/>
      <point x="137" y="808"/>
      <point x="56" y="597" type="curve"/>
      <point x="92" y="582" type="line"/>
      <point x="163" y="711"/>
      <point x="228" y="746"/>
      <point x="300" y="746" type="curve" smooth="yes"/>
      <point x="305" y="746"/>
      <point x="310" y="746"/>
      <point x="315" y="746" type="curve"/>
      <point x="89" y="0" type="line"/>
      <point x="224" y="0" type="line"/>
      <point x="295" y="233" type="line"/>
      <point x="380" y="511"/>
      <point x="556" y="751"/>
      <point x="679" y="751" type="curve" smooth="yes"/>
      <point x="735" y="751"/>
      <point x="753" y="729"/>
      <point x="753" y="696" type="curve" smooth="yes"/>
      <point x="753" y="663"/>
      <point x="740" y="616"/>
      <point x="726" y="567" type="curve" smooth="yes"/>
      <point x="501" y="-225" type="line" smooth="yes"/>
      <point x="452" y="-398"/>
      <point x="417" y="-423"/>
      <point x="353" y="-423" type="curve" smooth="yes"/>
      <point x="338" y="-423.0"/>
      <point x="320" y="-412"/>
      <point x="293" y="-378" type="curve" smooth="yes"/>
      <point x="266.0" y="-344"/>
      <point x="248.0" y="-329.0"/>
      <point x="236" y="-329" type="curve" smooth="yes"/>
      <point x="194" y="-329"/>
      <point x="156" y="-368"/>
      <point x="156" y="-421" type="curve" smooth="yes"/>
      <point x="156" y="-481"/>
      <point x="202" y="-530"/>
    </contour>
  </outline>
</glyph>
<glyph name="OE" format="2">
  <advance width="1973"/>
  <unicode hex="0152"/>
  <outline>
    <contour>
      <point x="1287.0" y="1340.0" type="line"/>
      <point x="877.0" y="0.0" type="line"/>
      <point x="1029.0" y="0.0" type="line"/>
      <point x="1439.0" y="1340.0" type="line"/>
    </contour>
    <contour>
      <point x="1082.0" y="1340.0" type="line" smooth="yes"/>
      <point x="486.0" y="1340.0"/>
      <point x="164.0" y="970.0"/>
      <point x="164.0" y="548.0" type="curve" smooth="yes"/>
      <point x="164.0" y="240.0"/>
      <point x="368.0" y="0.0"/>
      <point x="810.0" y="0.0" type="curve" smooth="yes"/>
      <point x="1588.0" y="0.0" type="line"/>
      <point x="1684.0" y="-59.0" type="line"/>
      <point x="1699.0" y="-59.0" type="line"/>
      <point x="1898.0" y="360.0" type="line"/>
      <point x="1863.0" y="381.0" type="line"/>
      <point x="1567.0" y="68.0" type="line"/>
      <point x="1646.0" y="88.0" type="line"/>
      <point x="890.0" y="88.0" type="line"/>
      <point x="493.0" y="88.0"/>
      <point x="326.0" y="277.0"/>
      <point x="326.0" y="558.0" type="curve" smooth="yes"/>
      <point x="326.0" y="918.0"/>
      <point x="528.0" y="1252.0"/>
      <point x="1104.0" y="1252.0" type="curve" smooth="yes"/>
      <point x="1948.0" y="1252.0" type="line"/>
      <point x="1907.0" y="1271.0" type="line"/>
      <point x="1962.0" y="957.0" type="line"/>
      <point x="2010.0" y="957.0" type="line"/>
      <point x="2079.0" y="1389.0" type="line"/>
      <point x="2064.0" y="1389.0" type="line"/>
      <point x="1943.0" y="1340.0" type="line"/>
    </contour>
    <contour>
      <point x="1611.0" y="441.0" type="line"/>
      <point x="1691.0" y="703.0" type="line"/>
      <point x="1771.0" y="965.0" type="line"/>
      <point x="1700.0" y="965.0" type="line"/>
      <point x="1612.0" y="746.0" type="line"/>
      <point x="1161.0" y="746.0" type="line"/>
      <point x="1135.0" y="660.0" type="line"/>
      <point x="1586.0" y="660.0" type="line"/>
      <point x="1540.0" y="441.0" type="line"/>
    </contour>
  </outline>
</glyph>
<glyph name="oe" format="2">
	<unicode hex="0153"/>
	<advance width="1295"/>
	<outline>
		<contour>
			<point x="527" y="872" type="curve" smooth="yes"/>
			<point x="264" y="872"/>
			<point x="62" y="583"/>
			<point x="62" y="272" type="curve" smooth="yes"/>
			<point x="62" y="87"/>
			<point x="161" y="-20"/>
			<point x="320" y="-20" type="curve" smooth="yes"/>
			<point x="439" y="-20"/>
			<point x="556" y="45"/>
			<point x="656" y="165" type="curve"/>
			<point x="627" y="170" type="line"/>
			<point x="659" y="42"/>
			<point x="743" y="-20"/>
			<point x="857" y="-20" type="curve" smooth="yes"/>
			<point x="1006" y="-20"/>
			<point x="1092" y="48"/>
			<point x="1191" y="276" type="curve"/>
			<point x="1135" y="276" type="line"/>
			<point x="1064" y="132"/>
			<point x="993" y="93"/>
			<point x="903" y="93" type="curve" smooth="yes"/>
			<point x="815" y="93"/>
			<point x="755" y="144"/>
			<point x="755" y="282" type="curve" smooth="yes"/>
			<point x="755" y="476"/>
			<point x="854" y="805"/>
			<point x="1050" y="805" type="curve" smooth="yes"/>
			<point x="1111" y="805"/>
			<point x="1144" y="767"/>
			<point x="1144" y="712" type="curve" smooth="yes"/>
			<point x="1144" y="622"/>
			<point x="1066" y="537"/>
			<point x="745" y="446" type="curve"/>
			<point x="742" y="374" type="line"/>
			<point x="899" y="425"/>
			<point x="1054" y="482"/>
			<point x="1209" y="547" type="curve"/>
			<point x="1248" y="579"/>
			<point x="1275" y="642"/>
			<point x="1275" y="699" type="curve" smooth="yes"/>
			<point x="1275" y="788"/>
			<point x="1216" y="872"/>
			<point x="1076" y="872" type="curve" smooth="yes"/>
			<point x="961" y="872"/>
			<point x="814" y="794"/>
			<point x="729" y="663" type="curve"/>
			<point x="753" y="658" type="line"/>
			<point x="738" y="788"/>
			<point x="670" y="872"/>
		</contour>
		<contour>
			<point x="322" y="47" type="curve" smooth="yes"/>
			<point x="239" y="47"/>
			<point x="203" y="106"/>
			<point x="203" y="232" type="curve" smooth="yes"/>
			<point x="203" y="493"/>
			<point x="355" y="805"/>
			<point x="525" y="805" type="curve" smooth="yes"/>
			<point x="608" y="805"/>
			<point x="644" y="746"/>
			<point x="644" y="620" type="curve" smooth="yes"/>
			<point x="644" y="359"/>
			<point x="492" y="47"/>
		</contour>
	</outline>
	<anchor name="top" x="794" y="852"/>
	<anchor name="bottom" x="534" y="0"/>
</glyph>
<glyph name="Scedilla" format="2">
	<unicode hex="015E"/>
	<advance width="1044"/>
	<outline>
		<contour>
			<point x="970" y="1186" type="curve"/>
			<point x="914" y="1273" type="line"/>
			<point x="979" y="936" type="line"/>
			<point x="1021" y="936" type="line"/>
			<point x="1107" y="1398" type="line"/>
			<point x="1090" y="1398" type="line"/>
			<point x="945" y="1315" type="line"/>
			<point x="1004" y="1313" type="line"/>
			<point x="905" y="1350"/>
			<point x="835" y="1360"/>
			<point x="743" y="1360" type="curve" smooth="yes"/>
			<point x="457" y="1360"/>
			<point x="285" y="1198"/>
			<point x="285" y="980" type="curve" smooth="yes"/>
			<point x="285" y="821"/>
			<point x="365" y="751"/>
			<point x="488" y="681" type="curve" smooth="yes"/>
			<point x="611" y="612"/>
			<point x="799" y="571"/>
			<point x="799" y="357" type="curve" smooth="yes"/>
			<point x="799" y="174"/>
			<point x="665" y="60"/>
			<point x="418" y="60" type="curve" smooth="yes"/>
			<point x="354" y="60"/>
			<point x="305" y="66"/>
			<point x="242" y="90" type="curve"/>
			<point x="286" y="54" type="line"/>
			<point x="131" y="386" type="line"/>
			<point x="90" y="386" type="line"/>
			<point x="103" y="45" type="line"/>
			<point x="207" y="-5"/>
			<point x="288" y="-20"/>
			<point x="420" y="-20" type="curve" smooth="yes"/>
			<point x="732" y="-20"/>
			<point x="936" y="150"/>
			<point x="936" y="395" type="curve" smooth="yes"/>
			<point x="936" y="591"/>
			<point x="829" y="676"/>
			<point x="701" y="745" type="curve" smooth="yes"/>
			<point x="572" y="815"/>
			<point x="419" y="860"/>
			<point x="419" y="1026" type="curve" smooth="yes"/>
			<point x="419" y="1191"/>
			<point x="524" y="1283"/>
			<point x="704" y="1283" type="curve" smooth="yes"/>
			<point x="824" y="1283"/>
			<point x="883" y="1254"/>
		</contour>
		<contour>
			<point x="255" y="-530" type="curve"/>
			<point x="414" y="-530"/>
			<point x="547" y="-420"/>
			<point x="547" y="-281" type="curve" smooth="yes"/>
			<point x="547" y="-213"/>
			<point x="508" y="-151"/>
			<point x="372" y="-126" type="curve"/>
			<point x="338" y="-216" type="line"/>
			<point x="548" y="50" type="line"/>
			<point x="475" y="50" type="line"/>
			<point x="270" y="-211" type="line"/>
			<point x="264" y="-229" type="line"/>
			<point x="399" y="-247"/>
			<point x="447" y="-283"/>
			<point x="447" y="-340" type="curve" smooth="yes"/>
			<point x="447" y="-410"/>
			<point x="397" y="-459"/>
			<point x="322" y="-459" type="curve" smooth="yes"/>
			<point x="257" y="-459"/>
			<point x="256" y="-396"/>
			<point x="204" y="-396" type="curve" smooth="yes"/>
			<point x="164" y="-396"/>
			<point x="141" y="-424"/>
			<point x="141" y="-456" type="curve" smooth="yes"/>
			<point x="141" y="-492"/>
			<point x="175" y="-530"/>
		</contour>
	</outline>
</glyph>
<glyph name="scedilla" format="2">
	<unicode hex="015F"/>
	<advance width="644"/>
	<outline>
		<contour>
			<point x="16" y="-530" type="curve"/>
			<point x="175" y="-530"/>
			<point x="308" y="-420"/>
			<point x="308" y="-281" type="curve" smooth="yes"/>
			<point x="308" y="-213"/>
			<point x="269" y="-151"/>
			<point x="133" y="-126" type="curve"/>
			<point x="99" y="-216" type="line"/>
			<point x="274" y="6" type="line"/>
			<point x="201" y="6" type="line"/>
			<point x="31" y="-211" type="line"/>
			<point x="25" y="-229" type="line"/>
			<point x="160" y="-247"/>
			<point x="208" y="-283"/>
			<point x="208" y="-340" type="curve" smooth="yes"/>
			<point x="208" y="-410"/>
			<point x="158" y="-459"/>
			<point x="83" y="-459" type="curve" smooth="yes"/>
			<point x="18" y="-459"/>
			<point x="17" y="-396"/>
			<point x="-35" y="-396" type="curve" smooth="yes"/>
			<point x="-75" y="-396"/>
			<point x="-98" y="-424"/>
			<point x="-98" y="-456" type="curve" smooth="yes"/>
			<point x="-98" y="-492"/>
			<point x="-64" y="-530"/>
		</contour>
		<contour>
			<point x="88" y="202" type="curve" smooth="yes"/>
			<point x="37" y="202"/>
			<point x="2" y="165"/>
			<point x="2" y="119" type="curve" smooth="yes"/>
			<point x="2" y="48"/>
			<point x="69" y="-20"/>
			<point x="216" y="-20" type="curve" smooth="yes"/>
			<point x="386" y="-20"/>
			<point x="513" y="90"/>
			<point x="513" y="234" type="curve" smooth="yes"/>
			<point x="513" y="301"/>
			<point x="480" y="379"/>
			<point x="393" y="484" type="curve" smooth="yes"/>
			<point x="306" y="589"/>
			<point x="277" y="647"/>
			<point x="277" y="691" type="curve" smooth="yes"/>
			<point x="277" y="760"/>
			<point x="316" y="800"/>
			<point x="383" y="800" type="curve" smooth="yes"/>
			<point x="418" y="800"/>
			<point x="457" y="775"/>
			<point x="493" y="724" type="curve" smooth="yes"/>
			<point x="529" y="673"/>
			<point x="545" y="663"/>
			<point x="558" y="663" type="curve" smooth="yes"/>
			<point x="605" y="663"/>
			<point x="638" y="698"/>
			<point x="638" y="744" type="curve" smooth="yes"/>
			<point x="638" y="813"/>
			<point x="581" y="872"/>
			<point x="448" y="872" type="curve" smooth="yes"/>
			<point x="271" y="872"/>
			<point x="176" y="762"/>
			<point x="176" y="626" type="curve" smooth="yes"/>
			<point x="176" y="560"/>
			<point x="203" y="493"/>
			<point x="294" y="389" type="curve" smooth="yes"/>
			<point x="385" y="285"/>
			<point x="408" y="231"/>
			<point x="408" y="173" type="curve" smooth="yes"/>
			<point x="408" y="90"/>
			<point x="349" y="46"/>
			<point x="269" y="46" type="curve" smooth="yes"/>
			<point x="232" y="46"/>
			<point x="196" y="65"/>
			<point x="157" y="125" type="curve" smooth="yes"/>
			<point x="118" y="185"/>
			<point x="106" y="202"/>
		</contour>
	</outline>
</glyph>
<glyph name="uni0162" format="2">
	<unicode hex="0162"/>
	<advance width="1226"/>
	<outline>
		<contour>
			<point x="1351" y="1246" type="line"/>
			<point x="1272" y="1265" type="line"/>
			<point x="1309" y="978" type="line"/>
			<point x="1346" y="978" type="line"/>
			<point x="1446" y="1408" type="line"/>
			<point x="1429" y="1408" type="line"/>
			<point x="1273" y="1324" type="line"/>
			<point x="1358" y="1340" type="line"/>
			<point x="419" y="1340" type="line"/>
			<point x="485" y="1324" type="line"/>
			<point x="388" y="1408" type="line"/>
			<point x="371" y="1408" type="line"/>
			<point x="221" y="998" type="line"/>
			<point x="258" y="979" type="line"/>
			<point x="479" y="1267" type="line"/>
			<point x="368" y="1246" type="line"/>
		</contour>
		<contour>
			<point x="796" y="1279" type="line"/>
			<point x="434" y="86" type="line"/>
			<point x="272" y="38" type="line"/>
			<point x="260" y="0" type="line"/>
			<point x="712" y="0" type="line"/>
			<point x="724" y="38" type="line"/>
			<point x="585" y="83" type="line"/>
			<point x="948" y="1279" type="line"/>
		</contour>
		<contour>
			<point x="290" y="-530" type="curve"/>
			<point x="449" y="-530"/>
			<point x="582" y="-420"/>
			<point x="582" y="-281" type="curve" smooth="yes"/>
			<point x="582" y="-213"/>
			<point x="543" y="-151"/>
			<point x="407" y="-126" type="curve"/>
			<point x="373" y="-216" type="line"/>
			<point x="583" y="50" type="line"/>
			<point x="510" y="50" type="line"/>
			<point x="305" y="-211" type="line"/>
			<point x="299" y="-229" type="line"/>
			<point x="434" y="-247"/>
			<point x="482" y="-283"/>
			<point x="482" y="-340" type="curve" smooth="yes"/>
			<point x="482" y="-410"/>
			<point x="432" y="-459"/>
			<point x="357" y="-459" type="curve" smooth="yes"/>
			<point x="292" y="-459"/>
			<point x="291" y="-396"/>
			<point x="239" y="-396" type="curve" smooth="yes"/>
			<point x="199" y="-396"/>
			<point x="176" y="-424"/>
			<point x="176" y="-456" type="curve" smooth="yes"/>
			<point x="176" y="-492"/>
			<point x="210" y="-530"/>
		</contour>
	</outline>
</glyph>
<glyph name="uni0163" format="2">
	<unicode hex="0163"/>
	<advance width="598"/>
	<outline>
		<contour>
			<point x="125" y="772" type="line"/>
			<point x="617" y="772" type="line"/>
			<point x="633" y="852" type="line"/>
			<point x="143" y="852" type="line"/>
		</contour>
		<contour>
			<point x="262" y="211" type="curve" smooth="yes"/>
			<point x="495" y="1026" type="line"/>
			<point x="360" y="1026" type="line"/>
			<point x="140" y="236" type="line" smooth="yes"/>
			<point x="123" y="176"/>
			<point x="116" y="129"/>
			<point x="116" y="93" type="curve" smooth="yes"/>
			<point x="116" y="11"/>
			<point x="154" y="-18"/>
			<point x="211" y="-18" type="curve" smooth="yes"/>
			<point x="309" y="-18"/>
			<point x="425" y="106"/>
			<point x="541" y="284" type="curve"/>
			<point x="501" y="310" type="line"/>
			<point x="411" y="190"/>
			<point x="312" y="111"/>
			<point x="271" y="111" type="curve" smooth="yes"/>
			<point x="257" y="111"/>
			<point x="249" y="121"/>
			<point x="249" y="143" type="curve" smooth="yes"/>
			<point x="249" y="159"/>
			<point x="253" y="181"/>
		</contour>
		<contour>
			<point x="30" y="-530" type="curve"/>
			<point x="189" y="-530"/>
			<point x="322" y="-420"/>
			<point x="322" y="-281" type="curve" smooth="yes"/>
			<point x="322" y="-213"/>
			<point x="283" y="-151"/>
			<point x="147" y="-126" type="curve"/>
			<point x="113" y="-216" type="line"/>
			<point x="323" y="50" type="line"/>
			<point x="250" y="50" type="line"/>
			<point x="45" y="-211" type="line"/>
			<point x="39" y="-229" type="line"/>
			<point x="174" y="-247"/>
			<point x="222" y="-283"/>
			<point x="222" y="-340" type="curve" smooth="yes"/>
			<point x="222" y="-410"/>
			<point x="172" y="-459"/>
			<point x="97" y="-459" type="curve" smooth="yes"/>
			<point x="32" y="-459"/>
			<point x="31" y="-396"/>
			<point x="-21" y="-396" type="curve" smooth="yes"/>
			<point x="-61" y="-396"/>
			<point x="-84" y="-424"/>
			<point x="-84" y="-456" type="curve" smooth="yes"/>
			<point x="-84" y="-492"/>
			<point x="-50" y="-530"/>
		</contour>
	</outline>
</glyph>
<glyph name="Tbar" format="2">
	<unicode hex="0166"/>
	<advance width="1235"/>
	<outline>
		<contour>
			<point x="331" y="649" type="line"/>
			<point x="1036" y="649" type="line"/>
			<point x="1065" y="743" type="line"/>
			<point x="360" y="743" type="line"/>
		</contour>
		<contour>
			<point x="1354" y="1246" type="line"/>
			<point x="1275" y="1265" type="line"/>
			<point x="1312" y="978" type="line"/>
			<point x="1349" y="978" type="line"/>
			<point x="1449" y="1408" type="line"/>
			<point x="1432" y="1408" type="line"/>
			<point x="1276" y="1324" type="line"/>
			<point x="1361" y="1340" type="line"/>
			<point x="422" y="1340" type="line"/>
			<point x="488" y="1324" type="line"/>
			<point x="391" y="1408" type="line"/>
			<point x="374" y="1408" type="line"/>
			<point x="224" y="998" type="line"/>
			<point x="261" y="979" type="line"/>
			<point x="482" y="1267" type="line"/>
			<point x="371" y="1246" type="line"/>
		</contour>
		<contour>
			<point x="799" y="1279" type="line"/>
			<point x="437" y="86" type="line"/>
			<point x="275" y="38" type="line"/>
			<point x="263" y="0" type="line"/>
			<point x="715" y="0" type="line"/>
			<point x="727" y="38" type="line"/>
			<point x="588" y="83" type="line"/>
			<point x="951" y="1279" type="line"/>
		</contour>
	</outline>
</glyph>
<glyph name="tbar" format="2">
	<unicode hex="0167"/>
	<advance width="618"/>
	<outline>
		<contour>
			<point x="86" y="479" type="line"/>
			<point x="533" y="479" type="line"/>
			<point x="558" y="559" type="line"/>
			<point x="110" y="559" type="line"/>
		</contour>
		<contour>
			<point x="141" y="772" type="line"/>
			<point x="633" y="772" type="line"/>
			<point x="649" y="852" type="line"/>
			<point x="159" y="852" type="line"/>
		</contour>
		<contour>
			<point x="265" y="143" type="curve" smooth="yes"/>
			<point x="265" y="159"/>
			<point x="269" y="181"/>
			<point x="278" y="211" type="curve" smooth="yes"/>
			<point x="511" y="1026" type="line"/>
			<point x="376" y="1026" type="line"/>
			<point x="156" y="236" type="line" smooth="yes"/>
			<point x="139" y="176"/>
			<point x="132" y="129"/>
			<point x="132" y="93" type="curve" smooth="yes"/>
			<point x="132" y="11"/>
			<point x="170" y="-18"/>
			<point x="227" y="-18" type="curve" smooth="yes"/>
			<point x="325" y="-18"/>
			<point x="441" y="106"/>
			<point x="557" y="284" type="curve"/>
			<point x="517" y="310" type="line"/>
			<point x="427" y="190"/>
			<point x="328" y="111"/>
			<point x="287" y="111" type="curve" smooth="yes"/>
			<point x="273" y="111"/>
			<point x="265" y="121"/>
		</contour>
	</outline>
</glyph>
<glyph name="Uogonek" format="2">
	<unicode hex="0172"/>
	<advance width="1442"/>
	<outline>
		<contour>
			<point x="394" y="514" type="curve" smooth="yes"/>
			<point x="620" y="1254" type="line"/>
			<point x="782" y="1302" type="line"/>
			<point x="794" y="1340" type="line"/>
			<point x="342" y="1340" type="line"/>
			<point x="330" y="1302" type="line"/>
			<point x="469" y="1257" type="line"/>
			<point x="245" y="523" type="line" smooth="yes"/>
			<point x="132" y="154"/>
			<point x="299" y="-20"/>
			<point x="637" y="-20" type="curve" smooth="yes"/>
			<point x="927" y="-20"/>
			<point x="1141" y="117"/>
			<point x="1246" y="464" type="curve" smooth="yes"/>
			<point x="1486" y="1254" type="line"/>
			<point x="1648" y="1302" type="line"/>
			<point x="1660" y="1340" type="line"/>
			<point x="1273" y="1340" type="line"/>
			<point x="1261" y="1302" type="line"/>
			<point x="1400" y="1257" type="line"/>
			<point x="1166" y="489" type="line" smooth="yes"/>
			<point x="1074" y="187"/>
			<point x="889" y="92"/>
			<point x="676" y="92" type="curve" smooth="yes"/>
			<point x="391" y="92"/>
			<point x="309" y="236"/>
		</contour>
		<contour>
			<point x="468" y="-346" type="curve" smooth="yes"/>
			<point x="468" y="-295"/>
			<point x="498" y="-223"/>
			<point x="571" y="-136" type="curve" smooth="yes"/>
			<point x="722" y="46" type="line"/>
			<point x="671" y="46" type="line"/>
			<point x="482" y="-159" type="line" smooth="yes"/>
			<point x="381" y="-269"/>
			<point x="351" y="-345"/>
			<point x="351" y="-406" type="curve" smooth="yes"/>
			<point x="351" y="-484"/>
			<point x="405" y="-530"/>
			<point x="483" y="-530" type="curve" smooth="yes"/>
			<point x="568" y="-530"/>
			<point x="628" y="-484"/>
			<point x="735" y="-370" type="curve"/>
			<point x="717" y="-344" type="line"/>
			<point x="631" y="-415"/>
			<point x="596" y="-430"/>
			<point x="555" y="-430" type="curve" smooth="yes"/>
			<point x="502" y="-430"/>
			<point x="468" y="-400"/>
		</contour>
	</outline>
</glyph>
<glyph name="uogonek" format="2">
	<unicode hex="0173"/>
	<advance width="967"/>
	<outline>
		<contour>
			<point x="958" y="195" type="curve"/>
			<point x="930" y="227" type="line"/>
			<point x="842" y="146"/>
			<point x="740" y="101"/>
			<point x="675" y="109" type="curve"/>
			<point x="674" y="80" type="line"/>
			<point x="908" y="852" type="line"/>
			<point x="773" y="852" type="line"/>
			<point x="702" y="619" type="line" smooth="yes"/>
			<point x="611" y="321"/>
			<point x="415" y="102"/>
			<point x="303" y="102" type="curve" smooth="yes"/>
			<point x="260" y="102"/>
			<point x="243" y="119"/>
			<point x="243" y="150" type="curve" smooth="yes"/>
			<point x="243" y="169"/>
			<point x="249" y="192"/>
			<point x="259" y="220" type="curve" smooth="yes"/>
			<point x="481" y="817" type="line" smooth="yes"/>
			<point x="494" y="852"/>
			<point x="466" y="872"/>
			<point x="410" y="872" type="curve" smooth="yes"/>
			<point x="313" y="872"/>
			<point x="207" y="815"/>
			<point x="67" y="628" type="curve"/>
			<point x="100" y="598" type="line"/>
			<point x="187" y="690"/>
			<point x="292" y="743"/>
			<point x="361" y="740" type="curve"/>
			<point x="335" y="781" type="line"/>
			<point x="143" y="268" type="line" smooth="yes"/>
			<point x="115" y="194"/>
			<point x="101" y="138"/>
			<point x="101" y="95" type="curve" smooth="yes"/>
			<point x="101" y="24"/>
			<point x="140" y="-20"/>
			<point x="232" y="-20" type="curve" smooth="yes"/>
			<point x="349" y="-20"/>
			<point x="459" y="44"/>
			<point x="657" y="389" type="curve"/>
			<point x="650" y="389" type="line"/>
			<point x="541" y="35" type="line" smooth="yes"/>
			<point x="530" y="-2"/>
			<point x="552" y="-20"/>
			<point x="626" y="-20" type="curve" smooth="yes"/>
			<point x="662" y="-20"/>
			<point x="701" y="-12"/>
			<point x="744" y="10" type="curve"/>
			<point x="731" y="20" type="line"/>
			<point x="554" y="-126" type="line" smooth="yes"/>
			<point x="424" y="-234"/>
			<point x="382" y="-310"/>
			<point x="382" y="-393" type="curve" smooth="yes"/>
			<point x="382" y="-474"/>
			<point x="444" y="-530"/>
			<point x="526" y="-530" type="curve" smooth="yes"/>
			<point x="611" y="-530"/>
			<point x="671" y="-484"/>
			<point x="778" y="-370" type="curve"/>
			<point x="760" y="-344" type="line"/>
			<point x="674" y="-415"/>
			<point x="639" y="-430"/>
			<point x="598" y="-430" type="curve" smooth="yes"/>
			<point x="537" y="-430"/>
			<point x="500" y="-392"/>
			<point x="500" y="-333" type="curve" smooth="yes"/>
			<point x="500" y="-262"/>
			<point x="542" y="-199"/>
			<point x="644" y="-105" type="curve" smooth="yes"/>
			<point x="827" y="64" type="line" smooth="yes"/>
			<point x="889" y="122"/>
			<point x="930" y="165"/>
		</contour>
	</outline>
</glyph>
<glyph name="uni018F" format="2">
	<unicode hex="018F"/>
	<advance width="1318"/>
	<outline>
		<contour>
			<point x="138" y="546" type="line"/>
			<point x="132" y="505"/>
			<point x="130" y="465"/>
			<point x="130" y="428" type="curve" smooth="yes"/>
			<point x="130" y="136"/>
			<point x="297" y="-20"/>
			<point x="570" y="-20" type="curve" smooth="yes"/>
			<point x="992" y="-20"/>
			<point x="1307" y="417"/>
			<point x="1307" y="825" type="curve" smooth="yes"/>
			<point x="1307" y="1131"/>
			<point x="1115" y="1360"/>
			<point x="812" y="1360" type="curve" smooth="yes"/>
			<point x="602" y="1360"/>
			<point x="421" y="1271"/>
			<point x="256" y="1105" type="curve"/>
			<point x="285" y="1059" type="line"/>
			<point x="428" y="1188"/>
			<point x="548" y="1245"/>
			<point x="762" y="1245" type="curve" smooth="yes"/>
			<point x="1001" y="1245"/>
			<point x="1150" y="1056"/>
			<point x="1150" y="795" type="curve" smooth="yes"/>
			<point x="1150" y="421"/>
			<point x="896" y="56"/>
			<point x="587" y="56" type="curve" smooth="yes"/>
			<point x="392" y="56"/>
			<point x="289" y="155"/>
			<point x="289" y="354" type="curve" smooth="yes"/>
			<point x="289" y="401"/>
			<point x="295" y="454"/>
			<point x="307" y="511" type="curve"/>
			<point x="251" y="458" type="line"/>
			<point x="1153" y="458" type="line"/>
			<point x="1184" y="546" type="line"/>
		</contour>
	</outline>
</glyph>
<glyph name="Ohorn" format="2">
	<unicode hex="01A0"/>
	<advance width="1485"/>
	<outline>
		<contour>
			<point x="324" y="495" type="curve" smooth="yes"/>
			<point x="324" y="929"/>
			<point x="605" y="1275"/>
			<point x="931" y="1275" type="curve" smooth="yes"/>
			<point x="1171" y="1275"/>
			<point x="1302" y="1126"/>
			<point x="1302" y="845" type="curve" smooth="yes"/>
			<point x="1302" y="411"/>
			<point x="1021" y="65"/>
			<point x="695" y="65" type="curve" smooth="yes"/>
			<point x="455" y="65"/>
			<point x="324" y="214"/>
		</contour>
		<contour>
			<point x="1464" y="818" type="curve" smooth="yes"/>
			<point x="1464" y="1010"/>
			<point x="1400" y="1165"/>
			<point x="1261" y="1267" type="curve"/>
			<point x="1257" y="1253" type="line"/>
			<point x="1499" y="1224"/>
			<point x="1609" y="1332"/>
			<point x="1609" y="1494" type="curve" smooth="yes"/>
			<point x="1609" y="1543"/>
			<point x="1583" y="1574"/>
			<point x="1535" y="1574" type="curve" smooth="yes"/>
			<point x="1485" y="1574"/>
			<point x="1451" y="1538"/>
			<point x="1451" y="1490" type="curve" smooth="yes"/>
			<point x="1451" y="1468"/>
			<point x="1458" y="1452"/>
			<point x="1458" y="1430" type="curve" smooth="yes"/>
			<point x="1458" y="1376"/>
			<point x="1423" y="1321"/>
			<point x="1294" y="1321" type="curve" smooth="yes"/>
			<point x="1167" y="1321"/>
			<point x="1074" y="1360"/>
			<point x="936" y="1360" type="curve" smooth="yes"/>
			<point x="497" y="1360"/>
			<point x="162" y="969"/>
			<point x="162" y="522" type="curve" smooth="yes"/>
			<point x="162" y="181"/>
			<point x="366" y="-20"/>
			<point x="690" y="-20" type="curve" smooth="yes"/>
			<point x="1129" y="-20"/>
			<point x="1464" y="371"/>
		</contour>
	</outline>
	<anchor name="UCtop" x="962" y="1340"/>
	<anchor name="bottom" x="633" y="0"/>
</glyph>
